solid OpenSCAD_Model
  facet normal 0 0 -1
    outer loop
      vertex 348.995 0 0
      vertex 77.7817 327.782 0
      vertex 405.563 0 0
    endloop
  endfacet
  facet normal 0 -0 -1
    outer loop
      vertex 77.7817 327.782 0
      vertex 348.995 0 0
      vertex 49.4975 299.497 0
    endloop
  endfacet
  facet normal 0.707108 0.707106 0
    outer loop
      vertex 405.563 0 20
      vertex 77.7817 327.782 0
      vertex 77.7817 327.782 20
    endloop
  endfacet
  facet normal 0.707108 0.707106 0
    outer loop
      vertex 77.7817 327.782 0
      vertex 405.563 0 20
      vertex 405.563 0 0
    endloop
  endfacet
  facet normal 0 -1 0
    outer loop
      vertex 348.995 0 0
      vertex 405.563 0 20
      vertex 348.995 0 20
    endloop
  endfacet
  facet normal 0 -1 -0
    outer loop
      vertex 405.563 0 20
      vertex 348.995 0 0
      vertex 405.563 0 0
    endloop
  endfacet
  facet normal -0.707117 0.707097 0
    outer loop
      vertex 49.4975 299.497 0
      vertex 77.7817 327.782 20
      vertex 77.7817 327.782 0
    endloop
  endfacet
  facet normal -0.707117 0.707097 0
    outer loop
      vertex 77.7817 327.782 20
      vertex 49.4975 299.497 0
      vertex 49.4975 299.497 20
    endloop
  endfacet
  facet normal 0 0 1
    outer loop
      vertex 77.7817 327.782 20
      vertex 348.995 0 20
      vertex 405.563 0 20
    endloop
  endfacet
  facet normal 0 0 1
    outer loop
      vertex 348.995 0 20
      vertex 77.7817 327.782 20
      vertex 49.4975 299.497 20
    endloop
  endfacet
  facet normal -0.707106 -0.707107 0
    outer loop
      vertex 348.995 0 0
      vertex 49.4975 299.497 20
      vertex 49.4975 299.497 0
    endloop
  endfacet
  facet normal -0.707106 -0.707107 0
    outer loop
      vertex 49.4975 299.497 20
      vertex 348.995 0 0
      vertex 348.995 0 20
    endloop
  endfacet
endsolid OpenSCAD_Model
