solid OpenSCAD_Model
  facet normal 0 0 -1
    outer loop
      vertex 63.3609 -40.755 0
      vertex 50.7304 -39.4275 0
      vertex 50.8 -38.1 0
    endloop
  endfacet
  facet normal 0 0 -1
    outer loop
      vertex 53.0297 -58.649 0
      vertex 50.5225 -40.7405 0
      vertex 50.7304 -39.4275 0
    endloop
  endfacet
  facet normal 0 0 -1
    outer loop
      vertex 53.0297 -58.649 0
      vertex 50.1784 -42.0245 0
      vertex 50.5225 -40.7405 0
    endloop
  endfacet
  facet normal 0 0 -1
    outer loop
      vertex 53.0297 -58.649 0
      vertex 49.702 -43.2655 0
      vertex 50.1784 -42.0245 0
    endloop
  endfacet
  facet normal 0 0 -1
    outer loop
      vertex 53.0297 -58.649 0
      vertex 49.0985 -44.45 0
      vertex 49.702 -43.2655 0
    endloop
  endfacet
  facet normal 0 0 -1
    outer loop
      vertex 44.45 -49.0985 0
      vertex 50.8 -60.097 0
      vertex 48.4311 -61.304 0
    endloop
  endfacet
  facet normal 0 0 -1
    outer loop
      vertex 53.0297 -58.649 0
      vertex 48.3745 -45.5649 0
      vertex 49.0985 -44.45 0
    endloop
  endfacet
  facet normal 0 0 -1
    outer loop
      vertex 53.0297 -58.649 0
      vertex 47.5379 -46.5979 0
      vertex 48.3745 -45.5649 0
    endloop
  endfacet
  facet normal 0 0 -1
    outer loop
      vertex 53.0297 -58.649 0
      vertex 46.5979 -47.5379 0
      vertex 47.5379 -46.5979 0
    endloop
  endfacet
  facet normal 0 0 -1
    outer loop
      vertex 43.2655 -49.702 0
      vertex 48.4311 -61.304 0
      vertex 45.949 -62.2568 0
    endloop
  endfacet
  facet normal 0 0 -1
    outer loop
      vertex 53.0297 -58.649 0
      vertex 45.5649 -48.3745 0
      vertex 46.5979 -47.5379 0
    endloop
  endfacet
  facet normal 0 0 -1
    outer loop
      vertex 50.8 -60.097 0
      vertex 44.45 -49.0985 0
      vertex 45.5649 -48.3745 0
    endloop
  endfacet
  facet normal 0 0 -1
    outer loop
      vertex 42.0245 -50.1784 0
      vertex 45.949 -62.2568 0
      vertex 43.381 -62.9449 0
    endloop
  endfacet
  facet normal 0 0 -1
    outer loop
      vertex 48.4311 -61.304 0
      vertex 43.2655 -49.702 0
      vertex 44.45 -49.0985 0
    endloop
  endfacet
  facet normal 0 0 -1
    outer loop
      vertex 45.949 -62.2568 0
      vertex 42.0245 -50.1784 0
      vertex 43.2655 -49.702 0
    endloop
  endfacet
  facet normal 0 0 -1
    outer loop
      vertex 40.7405 -50.5225 0
      vertex 43.381 -62.9449 0
      vertex 40.755 -63.3609 0
    endloop
  endfacet
  facet normal 0 0 -1
    outer loop
      vertex 43.381 -62.9449 0
      vertex 40.7405 -50.5225 0
      vertex 42.0245 -50.1784 0
    endloop
  endfacet
  facet normal 0 0 -1
    outer loop
      vertex 40.755 -63.3609 0
      vertex 39.4275 -50.7304 0
      vertex 40.7405 -50.5225 0
    endloop
  endfacet
  facet normal 0 0 -1
    outer loop
      vertex 38.1 -63.5 0
      vertex 39.4275 -50.7304 0
      vertex 40.755 -63.3609 0
    endloop
  endfacet
  facet normal 0 0 -1
    outer loop
      vertex 38.1 -63.5 0
      vertex 38.1 -50.8 0
      vertex 39.4275 -50.7304 0
    endloop
  endfacet
  facet normal 0 0 -1
    outer loop
      vertex 10 -63.5 0
      vertex 38.1 -50.8 0
      vertex 38.1 -63.5 0
    endloop
  endfacet
  facet normal -0 0 -1
    outer loop
      vertex 38.1 -50.8 0
      vertex 10 -63.5 0
      vertex 10 -50.8 0
    endloop
  endfacet
  facet normal 0 0 -1
    outer loop
      vertex 50.8 -38.1 0
      vertex 63.5 -38.1 0
      vertex 63.3609 -40.755 0
    endloop
  endfacet
  facet normal 0 0 -1
    outer loop
      vertex 63.5 -38.1 0
      vertex 50.8 -38.1 0
      vertex 63.5 38.1 0
    endloop
  endfacet
  facet normal 0 0 -1
    outer loop
      vertex 50.7304 -39.4275 0
      vertex 63.3609 -40.755 0
      vertex 62.9449 -43.381 0
    endloop
  endfacet
  facet normal 0 0 -1
    outer loop
      vertex 50.8 38.1 0
      vertex 63.5 38.1 0
      vertex 50.8 -38.1 0
    endloop
  endfacet
  facet normal 0 0 -1
    outer loop
      vertex 50.7304 -39.4275 0
      vertex 62.9449 -43.381 0
      vertex 62.2568 -45.949 0
    endloop
  endfacet
  facet normal 0 0 -1
    outer loop
      vertex 63.5 38.1 0
      vertex 50.8 38.1 0
      vertex 63.3609 40.755 0
    endloop
  endfacet
  facet normal 0 0 -1
    outer loop
      vertex 50.7304 -39.4275 0
      vertex 62.2568 -45.949 0
      vertex 61.304 -48.4311 0
    endloop
  endfacet
  facet normal 0 0 -1
    outer loop
      vertex 50.7304 39.4275 0
      vertex 63.3609 40.755 0
      vertex 50.8 38.1 0
    endloop
  endfacet
  facet normal 0 0 -1
    outer loop
      vertex 50.7304 -39.4275 0
      vertex 61.304 -48.4311 0
      vertex 60.097 -50.8 0
    endloop
  endfacet
  facet normal -0 0 -1
    outer loop
      vertex 63.3609 40.755 0
      vertex 50.7304 39.4275 0
      vertex 62.9449 43.381 0
    endloop
  endfacet
  facet normal 0 0 -1
    outer loop
      vertex 50.7304 -39.4275 0
      vertex 60.097 -50.8 0
      vertex 58.649 -53.0297 0
    endloop
  endfacet
  facet normal 0 0 -1
    outer loop
      vertex 50.5225 40.7405 0
      vertex 62.9449 43.381 0
      vertex 50.7304 39.4275 0
    endloop
  endfacet
  facet normal 0 0 -1
    outer loop
      vertex 50.7304 -39.4275 0
      vertex 58.649 -53.0297 0
      vertex 56.9759 -55.0959 0
    endloop
  endfacet
  facet normal -0 0 -1
    outer loop
      vertex 62.9449 43.381 0
      vertex 50.5225 40.7405 0
      vertex 62.2568 45.949 0
    endloop
  endfacet
  facet normal 0 0 -1
    outer loop
      vertex 50.7304 -39.4275 0
      vertex 56.9759 -55.0959 0
      vertex 55.0959 -56.9759 0
    endloop
  endfacet
  facet normal 0 0 -1
    outer loop
      vertex 50.1784 42.0245 0
      vertex 62.2568 45.949 0
      vertex 50.5225 40.7405 0
    endloop
  endfacet
  facet normal 0 0 -1
    outer loop
      vertex 50.7304 -39.4275 0
      vertex 55.0959 -56.9759 0
      vertex 53.0297 -58.649 0
    endloop
  endfacet
  facet normal -0 0 -1
    outer loop
      vertex 62.2568 45.949 0
      vertex 50.1784 42.0245 0
      vertex 61.304 48.4311 0
    endloop
  endfacet
  facet normal 0 0 -1
    outer loop
      vertex 45.5649 -48.3745 0
      vertex 53.0297 -58.649 0
      vertex 50.8 -60.097 0
    endloop
  endfacet
  facet normal 0 0 -1
    outer loop
      vertex 49.702 43.2655 0
      vertex 61.304 48.4311 0
      vertex 50.1784 42.0245 0
    endloop
  endfacet
  facet normal -0 0 -1
    outer loop
      vertex 61.304 48.4311 0
      vertex 49.702 43.2655 0
      vertex 60.097 50.8 0
    endloop
  endfacet
  facet normal 0 0 -1
    outer loop
      vertex 49.0985 44.45 0
      vertex 60.097 50.8 0
      vertex 49.702 43.2655 0
    endloop
  endfacet
  facet normal -0 0 -1
    outer loop
      vertex 60.097 50.8 0
      vertex 49.0985 44.45 0
      vertex 58.649 53.0297 0
    endloop
  endfacet
  facet normal 0 0 -1
    outer loop
      vertex 48.3745 45.5649 0
      vertex 58.649 53.0297 0
      vertex 49.0985 44.45 0
    endloop
  endfacet
  facet normal -0 0 -1
    outer loop
      vertex 58.649 53.0297 0
      vertex 48.3745 45.5649 0
      vertex 56.9759 55.0959 0
    endloop
  endfacet
  facet normal 0 0 -1
    outer loop
      vertex 47.5379 46.5979 0
      vertex 56.9759 55.0959 0
      vertex 48.3745 45.5649 0
    endloop
  endfacet
  facet normal -0 0 -1
    outer loop
      vertex 56.9759 55.0959 0
      vertex 47.5379 46.5979 0
      vertex 55.0959 56.9759 0
    endloop
  endfacet
  facet normal 0 0 -1
    outer loop
      vertex 46.5979 47.5379 0
      vertex 55.0959 56.9759 0
      vertex 47.5379 46.5979 0
    endloop
  endfacet
  facet normal -0 0 -1
    outer loop
      vertex 55.0959 56.9759 0
      vertex 46.5979 47.5379 0
      vertex 53.0297 58.649 0
    endloop
  endfacet
  facet normal 0 0 -1
    outer loop
      vertex 45.5649 48.3745 0
      vertex 53.0297 58.649 0
      vertex 46.5979 47.5379 0
    endloop
  endfacet
  facet normal -0 0 -1
    outer loop
      vertex 53.0297 58.649 0
      vertex 45.5649 48.3745 0
      vertex 50.8 60.097 0
    endloop
  endfacet
  facet normal 0 0 -1
    outer loop
      vertex 44.45 49.0985 0
      vertex 50.8 60.097 0
      vertex 45.5649 48.3745 0
    endloop
  endfacet
  facet normal -0 0 -1
    outer loop
      vertex 50.8 60.097 0
      vertex 44.45 49.0985 0
      vertex 48.4311 61.304 0
    endloop
  endfacet
  facet normal 0 0 -1
    outer loop
      vertex 43.2655 49.702 0
      vertex 48.4311 61.304 0
      vertex 44.45 49.0985 0
    endloop
  endfacet
  facet normal -0 0 -1
    outer loop
      vertex 48.4311 61.304 0
      vertex 43.2655 49.702 0
      vertex 45.949 62.2568 0
    endloop
  endfacet
  facet normal 0 0 -1
    outer loop
      vertex 42.0245 50.1784 0
      vertex 45.949 62.2568 0
      vertex 43.2655 49.702 0
    endloop
  endfacet
  facet normal -0 0 -1
    outer loop
      vertex 45.949 62.2568 0
      vertex 42.0245 50.1784 0
      vertex 43.381 62.9449 0
    endloop
  endfacet
  facet normal 0 0 -1
    outer loop
      vertex 40.7405 50.5225 0
      vertex 43.381 62.9449 0
      vertex 42.0245 50.1784 0
    endloop
  endfacet
  facet normal -0 0 -1
    outer loop
      vertex 43.381 62.9449 0
      vertex 40.7405 50.5225 0
      vertex 40.755 63.3609 0
    endloop
  endfacet
  facet normal 0 0 -1
    outer loop
      vertex 39.4275 50.7304 0
      vertex 40.755 63.3609 0
      vertex 40.7405 50.5225 0
    endloop
  endfacet
  facet normal 0 0 -1
    outer loop
      vertex 38.1 50.8 0
      vertex 40.755 63.3609 0
      vertex 39.4275 50.7304 0
    endloop
  endfacet
  facet normal 0 0 -1
    outer loop
      vertex 38.1 50.8 0
      vertex 38.1 63.5 0
      vertex 40.755 63.3609 0
    endloop
  endfacet
  facet normal 0 0 -1
    outer loop
      vertex 10 50.8 0
      vertex 38.1 63.5 0
      vertex 38.1 50.8 0
    endloop
  endfacet
  facet normal -0 0 -1
    outer loop
      vertex 38.1 63.5 0
      vertex 10 50.8 0
      vertex 10 63.5 0
    endloop
  endfacet
  facet normal 0 0 -1
    outer loop
      vertex -38.1 -63.5 0
      vertex -10 -50.8 0
      vertex -10 -63.5 0
    endloop
  endfacet
  facet normal 0 0 -1
    outer loop
      vertex -38.1 -63.5 0
      vertex -38.1 -50.8 0
      vertex -10 -50.8 0
    endloop
  endfacet
  facet normal 0 0 -1
    outer loop
      vertex -38.1 -63.5 0
      vertex -39.4275 -50.7304 0
      vertex -38.1 -50.8 0
    endloop
  endfacet
  facet normal 0 0 -1
    outer loop
      vertex -40.755 -63.3609 0
      vertex -39.4275 -50.7304 0
      vertex -38.1 -63.5 0
    endloop
  endfacet
  facet normal -0 0 -1
    outer loop
      vertex -39.4275 -50.7304 0
      vertex -40.755 -63.3609 0
      vertex -40.7405 -50.5225 0
    endloop
  endfacet
  facet normal 0 0 -1
    outer loop
      vertex -43.381 -62.9449 0
      vertex -40.7405 -50.5225 0
      vertex -40.755 -63.3609 0
    endloop
  endfacet
  facet normal -0 0 -1
    outer loop
      vertex -40.7405 -50.5225 0
      vertex -43.381 -62.9449 0
      vertex -42.0245 -50.1784 0
    endloop
  endfacet
  facet normal 0 0 -1
    outer loop
      vertex -45.949 -62.2568 0
      vertex -42.0245 -50.1784 0
      vertex -43.381 -62.9449 0
    endloop
  endfacet
  facet normal -0 0 -1
    outer loop
      vertex -42.0245 -50.1784 0
      vertex -45.949 -62.2568 0
      vertex -43.2655 -49.702 0
    endloop
  endfacet
  facet normal 0 0 -1
    outer loop
      vertex -48.4311 -61.304 0
      vertex -43.2655 -49.702 0
      vertex -45.949 -62.2568 0
    endloop
  endfacet
  facet normal -0 0 -1
    outer loop
      vertex -43.2655 -49.702 0
      vertex -48.4311 -61.304 0
      vertex -44.45 -49.0985 0
    endloop
  endfacet
  facet normal 0 0 -1
    outer loop
      vertex -50.8 -60.097 0
      vertex -44.45 -49.0985 0
      vertex -48.4311 -61.304 0
    endloop
  endfacet
  facet normal -0 0 -1
    outer loop
      vertex -44.45 -49.0985 0
      vertex -50.8 -60.097 0
      vertex -45.5649 -48.3745 0
    endloop
  endfacet
  facet normal 0 0 -1
    outer loop
      vertex -53.0297 -58.649 0
      vertex -45.5649 -48.3745 0
      vertex -50.8 -60.097 0
    endloop
  endfacet
  facet normal -0 0 -1
    outer loop
      vertex -45.5649 -48.3745 0
      vertex -53.0297 -58.649 0
      vertex -46.5979 -47.5379 0
    endloop
  endfacet
  facet normal 0 0 -1
    outer loop
      vertex -55.0959 -56.9759 0
      vertex -46.5979 -47.5379 0
      vertex -53.0297 -58.649 0
    endloop
  endfacet
  facet normal -0 0 -1
    outer loop
      vertex -46.5979 -47.5379 0
      vertex -55.0959 -56.9759 0
      vertex -47.5379 -46.5979 0
    endloop
  endfacet
  facet normal 0 0 -1
    outer loop
      vertex -56.9759 -55.0959 0
      vertex -47.5379 -46.5979 0
      vertex -55.0959 -56.9759 0
    endloop
  endfacet
  facet normal -0 0 -1
    outer loop
      vertex -47.5379 -46.5979 0
      vertex -56.9759 -55.0959 0
      vertex -48.3745 -45.5649 0
    endloop
  endfacet
  facet normal 0 0 -1
    outer loop
      vertex -58.649 -53.0297 0
      vertex -48.3745 -45.5649 0
      vertex -56.9759 -55.0959 0
    endloop
  endfacet
  facet normal -0 0 -1
    outer loop
      vertex -48.3745 -45.5649 0
      vertex -58.649 -53.0297 0
      vertex -49.0985 -44.45 0
    endloop
  endfacet
  facet normal 0 0 -1
    outer loop
      vertex -60.097 -50.8 0
      vertex -49.0985 -44.45 0
      vertex -58.649 -53.0297 0
    endloop
  endfacet
  facet normal -0 0 -1
    outer loop
      vertex -49.0985 -44.45 0
      vertex -60.097 -50.8 0
      vertex -49.702 -43.2655 0
    endloop
  endfacet
  facet normal 0 0 -1
    outer loop
      vertex -50.8 -38.1 0
      vertex -63.5 -38.1 0
      vertex -50.8 38.1 0
    endloop
  endfacet
  facet normal 0 0 -1
    outer loop
      vertex -61.304 -48.4311 0
      vertex -49.702 -43.2655 0
      vertex -60.097 -50.8 0
    endloop
  endfacet
  facet normal 0 0 -1
    outer loop
      vertex -63.5 38.1 0
      vertex -50.8 38.1 0
      vertex -63.5 -38.1 0
    endloop
  endfacet
  facet normal -0 0 -1
    outer loop
      vertex -49.702 -43.2655 0
      vertex -61.304 -48.4311 0
      vertex -50.1784 -42.0245 0
    endloop
  endfacet
  facet normal 0 -0 -1
    outer loop
      vertex -63.3609 40.755 0
      vertex -50.8 38.1 0
      vertex -63.5 38.1 0
    endloop
  endfacet
  facet normal 0 0 -1
    outer loop
      vertex -62.2568 -45.949 0
      vertex -50.1784 -42.0245 0
      vertex -61.304 -48.4311 0
    endloop
  endfacet
  facet normal 0 0 -1
    outer loop
      vertex -50.8 38.1 0
      vertex -53.0297 58.649 0
      vertex -50.8 60.097 0
    endloop
  endfacet
  facet normal -0 0 -1
    outer loop
      vertex -50.1784 -42.0245 0
      vertex -62.2568 -45.949 0
      vertex -50.5225 -40.7405 0
    endloop
  endfacet
  facet normal 0 0 -1
    outer loop
      vertex -50.8 38.1 0
      vertex -55.0959 56.9759 0
      vertex -53.0297 58.649 0
    endloop
  endfacet
  facet normal 0 0 -1
    outer loop
      vertex -62.9449 -43.381 0
      vertex -50.5225 -40.7405 0
      vertex -62.2568 -45.949 0
    endloop
  endfacet
  facet normal 0 0 -1
    outer loop
      vertex -50.8 38.1 0
      vertex -56.9759 55.0959 0
      vertex -55.0959 56.9759 0
    endloop
  endfacet
  facet normal -0 0 -1
    outer loop
      vertex -50.5225 -40.7405 0
      vertex -62.9449 -43.381 0
      vertex -50.7304 -39.4275 0
    endloop
  endfacet
  facet normal 0 0 -1
    outer loop
      vertex -50.8 38.1 0
      vertex -58.649 53.0297 0
      vertex -56.9759 55.0959 0
    endloop
  endfacet
  facet normal 0 0 -1
    outer loop
      vertex -63.3609 -40.755 0
      vertex -50.7304 -39.4275 0
      vertex -62.9449 -43.381 0
    endloop
  endfacet
  facet normal 0 0 -1
    outer loop
      vertex -50.8 38.1 0
      vertex -60.097 50.8 0
      vertex -58.649 53.0297 0
    endloop
  endfacet
  facet normal -0 0 -1
    outer loop
      vertex -50.7304 -39.4275 0
      vertex -63.3609 -40.755 0
      vertex -50.8 -38.1 0
    endloop
  endfacet
  facet normal 0 0 -1
    outer loop
      vertex -50.8 38.1 0
      vertex -61.304 48.4311 0
      vertex -60.097 50.8 0
    endloop
  endfacet
  facet normal -0 0 -1
    outer loop
      vertex -50.8 -38.1 0
      vertex -63.3609 -40.755 0
      vertex -63.5 -38.1 0
    endloop
  endfacet
  facet normal 0 0 -1
    outer loop
      vertex -50.8 38.1 0
      vertex -62.2568 45.949 0
      vertex -61.304 48.4311 0
    endloop
  endfacet
  facet normal 0 0 -1
    outer loop
      vertex -50.8 38.1 0
      vertex -62.9449 43.381 0
      vertex -62.2568 45.949 0
    endloop
  endfacet
  facet normal 0 0 -1
    outer loop
      vertex -50.8 38.1 0
      vertex -63.3609 40.755 0
      vertex -62.9449 43.381 0
    endloop
  endfacet
  facet normal 0 0 -1
    outer loop
      vertex -38.1 50.8 0
      vertex -10 63.5 0
      vertex -10 50.8 0
    endloop
  endfacet
  facet normal 0 0 -1
    outer loop
      vertex -38.1 50.8 0
      vertex -38.1 63.5 0
      vertex -10 63.5 0
    endloop
  endfacet
  facet normal 0 0 -1
    outer loop
      vertex -39.4275 50.7304 0
      vertex -38.1 63.5 0
      vertex -38.1 50.8 0
    endloop
  endfacet
  facet normal 0 0 -1
    outer loop
      vertex -40.755 63.3609 0
      vertex -39.4275 50.7304 0
      vertex -40.7405 50.5225 0
    endloop
  endfacet
  facet normal 0 0 -1
    outer loop
      vertex -39.4275 50.7304 0
      vertex -40.755 63.3609 0
      vertex -38.1 63.5 0
    endloop
  endfacet
  facet normal 0 0 -1
    outer loop
      vertex -43.381 62.9449 0
      vertex -40.7405 50.5225 0
      vertex -42.0245 50.1784 0
    endloop
  endfacet
  facet normal 0 0 -1
    outer loop
      vertex -45.949 62.2568 0
      vertex -42.0245 50.1784 0
      vertex -43.2655 49.702 0
    endloop
  endfacet
  facet normal 0 0 -1
    outer loop
      vertex -40.7405 50.5225 0
      vertex -43.381 62.9449 0
      vertex -40.755 63.3609 0
    endloop
  endfacet
  facet normal 0 0 -1
    outer loop
      vertex -48.4311 61.304 0
      vertex -43.2655 49.702 0
      vertex -44.45 49.0985 0
    endloop
  endfacet
  facet normal 0 0 -1
    outer loop
      vertex -50.8 60.097 0
      vertex -44.45 49.0985 0
      vertex -45.5649 48.3745 0
    endloop
  endfacet
  facet normal 0 0 -1
    outer loop
      vertex -42.0245 50.1784 0
      vertex -45.949 62.2568 0
      vertex -43.381 62.9449 0
    endloop
  endfacet
  facet normal 0 0 -1
    outer loop
      vertex -50.8 60.097 0
      vertex -45.5649 48.3745 0
      vertex -46.5979 47.5379 0
    endloop
  endfacet
  facet normal 0 0 -1
    outer loop
      vertex -50.8 60.097 0
      vertex -46.5979 47.5379 0
      vertex -47.5379 46.5979 0
    endloop
  endfacet
  facet normal 0 0 -1
    outer loop
      vertex -50.8 60.097 0
      vertex -47.5379 46.5979 0
      vertex -48.3745 45.5649 0
    endloop
  endfacet
  facet normal 0 0 -1
    outer loop
      vertex -43.2655 49.702 0
      vertex -48.4311 61.304 0
      vertex -45.949 62.2568 0
    endloop
  endfacet
  facet normal 0 0 -1
    outer loop
      vertex -50.8 60.097 0
      vertex -48.3745 45.5649 0
      vertex -49.0985 44.45 0
    endloop
  endfacet
  facet normal 0 0 -1
    outer loop
      vertex -50.8 60.097 0
      vertex -49.0985 44.45 0
      vertex -49.702 43.2655 0
    endloop
  endfacet
  facet normal 0 0 -1
    outer loop
      vertex -50.8 60.097 0
      vertex -49.702 43.2655 0
      vertex -50.1784 42.0245 0
    endloop
  endfacet
  facet normal 0 0 -1
    outer loop
      vertex -50.8 60.097 0
      vertex -50.1784 42.0245 0
      vertex -50.5225 40.7405 0
    endloop
  endfacet
  facet normal 0 0 -1
    outer loop
      vertex -50.8 60.097 0
      vertex -50.5225 40.7405 0
      vertex -50.7304 39.4275 0
    endloop
  endfacet
  facet normal 0 0 -1
    outer loop
      vertex -44.45 49.0985 0
      vertex -50.8 60.097 0
      vertex -48.4311 61.304 0
    endloop
  endfacet
  facet normal 0 0 -1
    outer loop
      vertex -50.8 60.097 0
      vertex -50.7304 39.4275 0
      vertex -50.8 38.1 0
    endloop
  endfacet
  facet normal 0 0 1
    outer loop
      vertex 63.3609 40.755 250
      vertex 50.7304 39.4275 250
      vertex 50.8 38.1 250
    endloop
  endfacet
  facet normal 0 0 1
    outer loop
      vertex 53.0297 58.649 250
      vertex 50.5225 40.7405 250
      vertex 50.7304 39.4275 250
    endloop
  endfacet
  facet normal 0 0 1
    outer loop
      vertex 53.0297 58.649 250
      vertex 50.1784 42.0245 250
      vertex 50.5225 40.7405 250
    endloop
  endfacet
  facet normal 0 0 1
    outer loop
      vertex 53.0297 58.649 250
      vertex 49.702 43.2655 250
      vertex 50.1784 42.0245 250
    endloop
  endfacet
  facet normal 0 0 1
    outer loop
      vertex 53.0297 58.649 250
      vertex 49.0985 44.45 250
      vertex 49.702 43.2655 250
    endloop
  endfacet
  facet normal 0 0 1
    outer loop
      vertex 44.45 49.0985 250
      vertex 50.8 60.097 250
      vertex 48.4311 61.304 250
    endloop
  endfacet
  facet normal 0 0 1
    outer loop
      vertex 53.0297 58.649 250
      vertex 48.3745 45.5649 250
      vertex 49.0985 44.45 250
    endloop
  endfacet
  facet normal 0 0 1
    outer loop
      vertex 53.0297 58.649 250
      vertex 47.5379 46.5979 250
      vertex 48.3745 45.5649 250
    endloop
  endfacet
  facet normal 0 0 1
    outer loop
      vertex 53.0297 58.649 250
      vertex 46.5979 47.5379 250
      vertex 47.5379 46.5979 250
    endloop
  endfacet
  facet normal 0 0 1
    outer loop
      vertex 43.2655 49.702 250
      vertex 48.4311 61.304 250
      vertex 45.949 62.2568 250
    endloop
  endfacet
  facet normal 0 0 1
    outer loop
      vertex 53.0297 58.649 250
      vertex 45.5649 48.3745 250
      vertex 46.5979 47.5379 250
    endloop
  endfacet
  facet normal 0 0 1
    outer loop
      vertex 50.8 60.097 250
      vertex 44.45 49.0985 250
      vertex 45.5649 48.3745 250
    endloop
  endfacet
  facet normal 0 0 1
    outer loop
      vertex 42.0245 50.1784 250
      vertex 45.949 62.2568 250
      vertex 43.381 62.9449 250
    endloop
  endfacet
  facet normal 0 0 1
    outer loop
      vertex 48.4311 61.304 250
      vertex 43.2655 49.702 250
      vertex 44.45 49.0985 250
    endloop
  endfacet
  facet normal 0 0 1
    outer loop
      vertex 45.949 62.2568 250
      vertex 42.0245 50.1784 250
      vertex 43.2655 49.702 250
    endloop
  endfacet
  facet normal 0 0 1
    outer loop
      vertex 40.7405 50.5225 250
      vertex 43.381 62.9449 250
      vertex 40.755 63.3609 250
    endloop
  endfacet
  facet normal 0 0 1
    outer loop
      vertex 43.381 62.9449 250
      vertex 40.7405 50.5225 250
      vertex 42.0245 50.1784 250
    endloop
  endfacet
  facet normal 0 0 1
    outer loop
      vertex 40.755 63.3609 250
      vertex 39.4275 50.7304 250
      vertex 40.7405 50.5225 250
    endloop
  endfacet
  facet normal 0 0 1
    outer loop
      vertex 38.1 63.5 250
      vertex 39.4275 50.7304 250
      vertex 40.755 63.3609 250
    endloop
  endfacet
  facet normal 0 0 1
    outer loop
      vertex 38.1 63.5 250
      vertex 38.1 50.8 250
      vertex 39.4275 50.7304 250
    endloop
  endfacet
  facet normal -0 0 1
    outer loop
      vertex -38.1 63.5 250
      vertex 38.1 50.8 250
      vertex 38.1 63.5 250
    endloop
  endfacet
  facet normal 0 0 1
    outer loop
      vertex -38.1 63.5 250
      vertex -38.1 50.8 250
      vertex 38.1 50.8 250
    endloop
  endfacet
  facet normal 0 0 1
    outer loop
      vertex -38.1 63.5 250
      vertex -39.4275 50.7304 250
      vertex -38.1 50.8 250
    endloop
  endfacet
  facet normal -0 0 1
    outer loop
      vertex -40.755 63.3609 250
      vertex -39.4275 50.7304 250
      vertex -38.1 63.5 250
    endloop
  endfacet
  facet normal 0 0 1
    outer loop
      vertex -39.4275 50.7304 250
      vertex -40.755 63.3609 250
      vertex -40.7405 50.5225 250
    endloop
  endfacet
  facet normal -0 0 1
    outer loop
      vertex -43.381 62.9449 250
      vertex -40.7405 50.5225 250
      vertex -40.755 63.3609 250
    endloop
  endfacet
  facet normal 0 0 1
    outer loop
      vertex -40.7405 50.5225 250
      vertex -43.381 62.9449 250
      vertex -42.0245 50.1784 250
    endloop
  endfacet
  facet normal -0 0 1
    outer loop
      vertex -45.949 62.2568 250
      vertex -42.0245 50.1784 250
      vertex -43.381 62.9449 250
    endloop
  endfacet
  facet normal 0 0 1
    outer loop
      vertex -42.0245 50.1784 250
      vertex -45.949 62.2568 250
      vertex -43.2655 49.702 250
    endloop
  endfacet
  facet normal -0 0 1
    outer loop
      vertex -48.4311 61.304 250
      vertex -43.2655 49.702 250
      vertex -45.949 62.2568 250
    endloop
  endfacet
  facet normal 0 0 1
    outer loop
      vertex -43.2655 49.702 250
      vertex -48.4311 61.304 250
      vertex -44.45 49.0985 250
    endloop
  endfacet
  facet normal -0 0 1
    outer loop
      vertex -50.8 60.097 250
      vertex -44.45 49.0985 250
      vertex -48.4311 61.304 250
    endloop
  endfacet
  facet normal 0 0 1
    outer loop
      vertex -44.45 49.0985 250
      vertex -50.8 60.097 250
      vertex -45.5649 48.3745 250
    endloop
  endfacet
  facet normal -0 0 1
    outer loop
      vertex -53.0297 58.649 250
      vertex -45.5649 48.3745 250
      vertex -50.8 60.097 250
    endloop
  endfacet
  facet normal 0 0 1
    outer loop
      vertex -45.5649 48.3745 250
      vertex -53.0297 58.649 250
      vertex -46.5979 47.5379 250
    endloop
  endfacet
  facet normal -0 0 1
    outer loop
      vertex -55.0959 56.9759 250
      vertex -46.5979 47.5379 250
      vertex -53.0297 58.649 250
    endloop
  endfacet
  facet normal 0 0 1
    outer loop
      vertex -46.5979 47.5379 250
      vertex -55.0959 56.9759 250
      vertex -47.5379 46.5979 250
    endloop
  endfacet
  facet normal -0 0 1
    outer loop
      vertex -56.9759 55.0959 250
      vertex -47.5379 46.5979 250
      vertex -55.0959 56.9759 250
    endloop
  endfacet
  facet normal 0 0 1
    outer loop
      vertex -47.5379 46.5979 250
      vertex -56.9759 55.0959 250
      vertex -48.3745 45.5649 250
    endloop
  endfacet
  facet normal -0 0 1
    outer loop
      vertex -58.649 53.0297 250
      vertex -48.3745 45.5649 250
      vertex -56.9759 55.0959 250
    endloop
  endfacet
  facet normal 0 0 1
    outer loop
      vertex -48.3745 45.5649 250
      vertex -58.649 53.0297 250
      vertex -49.0985 44.45 250
    endloop
  endfacet
  facet normal -0 0 1
    outer loop
      vertex -60.097 50.8 250
      vertex -49.0985 44.45 250
      vertex -58.649 53.0297 250
    endloop
  endfacet
  facet normal 0 0 1
    outer loop
      vertex -49.0985 44.45 250
      vertex -60.097 50.8 250
      vertex -49.702 43.2655 250
    endloop
  endfacet
  facet normal 0 0 1
    outer loop
      vertex -50.8 38.1 250
      vertex -63.5 38.1 250
      vertex -50.8 -38.1 250
    endloop
  endfacet
  facet normal -0 0 1
    outer loop
      vertex -61.304 48.4311 250
      vertex -49.702 43.2655 250
      vertex -60.097 50.8 250
    endloop
  endfacet
  facet normal 0 0 1
    outer loop
      vertex -63.5 -38.1 250
      vertex -50.8 -38.1 250
      vertex -63.5 38.1 250
    endloop
  endfacet
  facet normal 0 0 1
    outer loop
      vertex -49.702 43.2655 250
      vertex -61.304 48.4311 250
      vertex -50.1784 42.0245 250
    endloop
  endfacet
  facet normal 0 -0 1
    outer loop
      vertex -63.3609 -40.755 250
      vertex -50.8 -38.1 250
      vertex -63.5 -38.1 250
    endloop
  endfacet
  facet normal -0 0 1
    outer loop
      vertex -62.2568 45.949 250
      vertex -50.1784 42.0245 250
      vertex -61.304 48.4311 250
    endloop
  endfacet
  facet normal 0 0 1
    outer loop
      vertex -50.8 -38.1 250
      vertex -53.0297 -58.649 250
      vertex -50.8 -60.097 250
    endloop
  endfacet
  facet normal 0 0 1
    outer loop
      vertex -50.1784 42.0245 250
      vertex -62.2568 45.949 250
      vertex -50.5225 40.7405 250
    endloop
  endfacet
  facet normal 0 0 1
    outer loop
      vertex -50.8 -38.1 250
      vertex -55.0959 -56.9759 250
      vertex -53.0297 -58.649 250
    endloop
  endfacet
  facet normal -0 0 1
    outer loop
      vertex -62.9449 43.381 250
      vertex -50.5225 40.7405 250
      vertex -62.2568 45.949 250
    endloop
  endfacet
  facet normal 0 0 1
    outer loop
      vertex -50.8 -38.1 250
      vertex -56.9759 -55.0959 250
      vertex -55.0959 -56.9759 250
    endloop
  endfacet
  facet normal 0 0 1
    outer loop
      vertex -50.5225 40.7405 250
      vertex -62.9449 43.381 250
      vertex -50.7304 39.4275 250
    endloop
  endfacet
  facet normal 0 0 1
    outer loop
      vertex -50.8 -38.1 250
      vertex -58.649 -53.0297 250
      vertex -56.9759 -55.0959 250
    endloop
  endfacet
  facet normal -0 0 1
    outer loop
      vertex -63.3609 40.755 250
      vertex -50.7304 39.4275 250
      vertex -62.9449 43.381 250
    endloop
  endfacet
  facet normal 0 0 1
    outer loop
      vertex -50.8 -38.1 250
      vertex -60.097 -50.8 250
      vertex -58.649 -53.0297 250
    endloop
  endfacet
  facet normal 0 0 1
    outer loop
      vertex -50.7304 39.4275 250
      vertex -63.3609 40.755 250
      vertex -50.8 38.1 250
    endloop
  endfacet
  facet normal 0 0 1
    outer loop
      vertex -50.8 -38.1 250
      vertex -61.304 -48.4311 250
      vertex -60.097 -50.8 250
    endloop
  endfacet
  facet normal 0 0 1
    outer loop
      vertex -50.8 38.1 250
      vertex -63.3609 40.755 250
      vertex -63.5 38.1 250
    endloop
  endfacet
  facet normal 0 0 1
    outer loop
      vertex -50.8 -38.1 250
      vertex -62.2568 -45.949 250
      vertex -61.304 -48.4311 250
    endloop
  endfacet
  facet normal 0 0 1
    outer loop
      vertex -50.8 -38.1 250
      vertex -62.9449 -43.381 250
      vertex -62.2568 -45.949 250
    endloop
  endfacet
  facet normal 0 0 1
    outer loop
      vertex -50.8 -38.1 250
      vertex -63.3609 -40.755 250
      vertex -62.9449 -43.381 250
    endloop
  endfacet
  facet normal 0 0 1
    outer loop
      vertex 50.8 38.1 250
      vertex 63.5 38.1 250
      vertex 63.3609 40.755 250
    endloop
  endfacet
  facet normal 0 0 1
    outer loop
      vertex 63.5 38.1 250
      vertex 50.8 38.1 250
      vertex 63.5 -38.1 250
    endloop
  endfacet
  facet normal 0 0 1
    outer loop
      vertex 50.7304 39.4275 250
      vertex 63.3609 40.755 250
      vertex 62.9449 43.381 250
    endloop
  endfacet
  facet normal 0 0 1
    outer loop
      vertex 50.8 -38.1 250
      vertex 63.5 -38.1 250
      vertex 50.8 38.1 250
    endloop
  endfacet
  facet normal 0 0 1
    outer loop
      vertex 50.7304 39.4275 250
      vertex 62.9449 43.381 250
      vertex 62.2568 45.949 250
    endloop
  endfacet
  facet normal 0 0 1
    outer loop
      vertex 63.5 -38.1 250
      vertex 50.8 -38.1 250
      vertex 63.3609 -40.755 250
    endloop
  endfacet
  facet normal 0 0 1
    outer loop
      vertex 50.7304 39.4275 250
      vertex 62.2568 45.949 250
      vertex 61.304 48.4311 250
    endloop
  endfacet
  facet normal -0 0 1
    outer loop
      vertex 50.7304 -39.4275 250
      vertex 63.3609 -40.755 250
      vertex 50.8 -38.1 250
    endloop
  endfacet
  facet normal 0 0 1
    outer loop
      vertex 50.7304 39.4275 250
      vertex 61.304 48.4311 250
      vertex 60.097 50.8 250
    endloop
  endfacet
  facet normal 0 0 1
    outer loop
      vertex 63.3609 -40.755 250
      vertex 50.7304 -39.4275 250
      vertex 62.9449 -43.381 250
    endloop
  endfacet
  facet normal 0 0 1
    outer loop
      vertex 50.7304 39.4275 250
      vertex 60.097 50.8 250
      vertex 58.649 53.0297 250
    endloop
  endfacet
  facet normal -0 0 1
    outer loop
      vertex 50.5225 -40.7405 250
      vertex 62.9449 -43.381 250
      vertex 50.7304 -39.4275 250
    endloop
  endfacet
  facet normal 0 0 1
    outer loop
      vertex 50.7304 39.4275 250
      vertex 58.649 53.0297 250
      vertex 56.9759 55.0959 250
    endloop
  endfacet
  facet normal 0 0 1
    outer loop
      vertex 62.9449 -43.381 250
      vertex 50.5225 -40.7405 250
      vertex 62.2568 -45.949 250
    endloop
  endfacet
  facet normal 0 0 1
    outer loop
      vertex 50.7304 39.4275 250
      vertex 56.9759 55.0959 250
      vertex 55.0959 56.9759 250
    endloop
  endfacet
  facet normal -0 0 1
    outer loop
      vertex 50.1784 -42.0245 250
      vertex 62.2568 -45.949 250
      vertex 50.5225 -40.7405 250
    endloop
  endfacet
  facet normal 0 0 1
    outer loop
      vertex 50.7304 39.4275 250
      vertex 55.0959 56.9759 250
      vertex 53.0297 58.649 250
    endloop
  endfacet
  facet normal 0 0 1
    outer loop
      vertex 62.2568 -45.949 250
      vertex 50.1784 -42.0245 250
      vertex 61.304 -48.4311 250
    endloop
  endfacet
  facet normal 0 0 1
    outer loop
      vertex 45.5649 48.3745 250
      vertex 53.0297 58.649 250
      vertex 50.8 60.097 250
    endloop
  endfacet
  facet normal -0 0 1
    outer loop
      vertex 49.702 -43.2655 250
      vertex 61.304 -48.4311 250
      vertex 50.1784 -42.0245 250
    endloop
  endfacet
  facet normal 0 0 1
    outer loop
      vertex 61.304 -48.4311 250
      vertex 49.702 -43.2655 250
      vertex 60.097 -50.8 250
    endloop
  endfacet
  facet normal -0 0 1
    outer loop
      vertex 49.0985 -44.45 250
      vertex 60.097 -50.8 250
      vertex 49.702 -43.2655 250
    endloop
  endfacet
  facet normal 0 0 1
    outer loop
      vertex 60.097 -50.8 250
      vertex 49.0985 -44.45 250
      vertex 58.649 -53.0297 250
    endloop
  endfacet
  facet normal -0 0 1
    outer loop
      vertex 48.3745 -45.5649 250
      vertex 58.649 -53.0297 250
      vertex 49.0985 -44.45 250
    endloop
  endfacet
  facet normal 0 0 1
    outer loop
      vertex 58.649 -53.0297 250
      vertex 48.3745 -45.5649 250
      vertex 56.9759 -55.0959 250
    endloop
  endfacet
  facet normal -0 0 1
    outer loop
      vertex 47.5379 -46.5979 250
      vertex 56.9759 -55.0959 250
      vertex 48.3745 -45.5649 250
    endloop
  endfacet
  facet normal 0 0 1
    outer loop
      vertex 56.9759 -55.0959 250
      vertex 47.5379 -46.5979 250
      vertex 55.0959 -56.9759 250
    endloop
  endfacet
  facet normal -0 0 1
    outer loop
      vertex 46.5979 -47.5379 250
      vertex 55.0959 -56.9759 250
      vertex 47.5379 -46.5979 250
    endloop
  endfacet
  facet normal 0 0 1
    outer loop
      vertex 55.0959 -56.9759 250
      vertex 46.5979 -47.5379 250
      vertex 53.0297 -58.649 250
    endloop
  endfacet
  facet normal -0 0 1
    outer loop
      vertex 45.5649 -48.3745 250
      vertex 53.0297 -58.649 250
      vertex 46.5979 -47.5379 250
    endloop
  endfacet
  facet normal 0 0 1
    outer loop
      vertex 53.0297 -58.649 250
      vertex 45.5649 -48.3745 250
      vertex 50.8 -60.097 250
    endloop
  endfacet
  facet normal -0 0 1
    outer loop
      vertex 44.45 -49.0985 250
      vertex 50.8 -60.097 250
      vertex 45.5649 -48.3745 250
    endloop
  endfacet
  facet normal 0 0 1
    outer loop
      vertex 50.8 -60.097 250
      vertex 44.45 -49.0985 250
      vertex 48.4311 -61.304 250
    endloop
  endfacet
  facet normal -0 0 1
    outer loop
      vertex 43.2655 -49.702 250
      vertex 48.4311 -61.304 250
      vertex 44.45 -49.0985 250
    endloop
  endfacet
  facet normal 0 0 1
    outer loop
      vertex 48.4311 -61.304 250
      vertex 43.2655 -49.702 250
      vertex 45.949 -62.2568 250
    endloop
  endfacet
  facet normal -0 0 1
    outer loop
      vertex 42.0245 -50.1784 250
      vertex 45.949 -62.2568 250
      vertex 43.2655 -49.702 250
    endloop
  endfacet
  facet normal 0 0 1
    outer loop
      vertex 45.949 -62.2568 250
      vertex 42.0245 -50.1784 250
      vertex 43.381 -62.9449 250
    endloop
  endfacet
  facet normal -0 0 1
    outer loop
      vertex 40.7405 -50.5225 250
      vertex 43.381 -62.9449 250
      vertex 42.0245 -50.1784 250
    endloop
  endfacet
  facet normal 0 0 1
    outer loop
      vertex 43.381 -62.9449 250
      vertex 40.7405 -50.5225 250
      vertex 40.755 -63.3609 250
    endloop
  endfacet
  facet normal -0 0 1
    outer loop
      vertex 39.4275 -50.7304 250
      vertex 40.755 -63.3609 250
      vertex 40.7405 -50.5225 250
    endloop
  endfacet
  facet normal -0 0 1
    outer loop
      vertex 38.1 -50.8 250
      vertex 40.755 -63.3609 250
      vertex 39.4275 -50.7304 250
    endloop
  endfacet
  facet normal 0 0 1
    outer loop
      vertex 38.1 -50.8 250
      vertex 38.1 -63.5 250
      vertex 40.755 -63.3609 250
    endloop
  endfacet
  facet normal -0 0 1
    outer loop
      vertex -38.1 -50.8 250
      vertex 38.1 -63.5 250
      vertex 38.1 -50.8 250
    endloop
  endfacet
  facet normal 0 0 1
    outer loop
      vertex -38.1 -50.8 250
      vertex -38.1 -63.5 250
      vertex 38.1 -63.5 250
    endloop
  endfacet
  facet normal 0 0 1
    outer loop
      vertex -39.4275 -50.7304 250
      vertex -38.1 -63.5 250
      vertex -38.1 -50.8 250
    endloop
  endfacet
  facet normal 0 0 1
    outer loop
      vertex -40.755 -63.3609 250
      vertex -39.4275 -50.7304 250
      vertex -40.7405 -50.5225 250
    endloop
  endfacet
  facet normal 0 0 1
    outer loop
      vertex -39.4275 -50.7304 250
      vertex -40.755 -63.3609 250
      vertex -38.1 -63.5 250
    endloop
  endfacet
  facet normal 0 0 1
    outer loop
      vertex -43.381 -62.9449 250
      vertex -40.7405 -50.5225 250
      vertex -42.0245 -50.1784 250
    endloop
  endfacet
  facet normal 0 0 1
    outer loop
      vertex -45.949 -62.2568 250
      vertex -42.0245 -50.1784 250
      vertex -43.2655 -49.702 250
    endloop
  endfacet
  facet normal 0 0 1
    outer loop
      vertex -40.7405 -50.5225 250
      vertex -43.381 -62.9449 250
      vertex -40.755 -63.3609 250
    endloop
  endfacet
  facet normal 0 0 1
    outer loop
      vertex -48.4311 -61.304 250
      vertex -43.2655 -49.702 250
      vertex -44.45 -49.0985 250
    endloop
  endfacet
  facet normal 0 0 1
    outer loop
      vertex -50.8 -60.097 250
      vertex -44.45 -49.0985 250
      vertex -45.5649 -48.3745 250
    endloop
  endfacet
  facet normal 0 0 1
    outer loop
      vertex -42.0245 -50.1784 250
      vertex -45.949 -62.2568 250
      vertex -43.381 -62.9449 250
    endloop
  endfacet
  facet normal 0 0 1
    outer loop
      vertex -50.8 -60.097 250
      vertex -45.5649 -48.3745 250
      vertex -46.5979 -47.5379 250
    endloop
  endfacet
  facet normal 0 0 1
    outer loop
      vertex -50.8 -60.097 250
      vertex -46.5979 -47.5379 250
      vertex -47.5379 -46.5979 250
    endloop
  endfacet
  facet normal 0 0 1
    outer loop
      vertex -50.8 -60.097 250
      vertex -47.5379 -46.5979 250
      vertex -48.3745 -45.5649 250
    endloop
  endfacet
  facet normal 0 0 1
    outer loop
      vertex -43.2655 -49.702 250
      vertex -48.4311 -61.304 250
      vertex -45.949 -62.2568 250
    endloop
  endfacet
  facet normal 0 0 1
    outer loop
      vertex -50.8 -60.097 250
      vertex -48.3745 -45.5649 250
      vertex -49.0985 -44.45 250
    endloop
  endfacet
  facet normal 0 0 1
    outer loop
      vertex -50.8 -60.097 250
      vertex -49.0985 -44.45 250
      vertex -49.702 -43.2655 250
    endloop
  endfacet
  facet normal 0 0 1
    outer loop
      vertex -50.8 -60.097 250
      vertex -49.702 -43.2655 250
      vertex -50.1784 -42.0245 250
    endloop
  endfacet
  facet normal 0 0 1
    outer loop
      vertex -50.8 -60.097 250
      vertex -50.1784 -42.0245 250
      vertex -50.5225 -40.7405 250
    endloop
  endfacet
  facet normal 0 0 1
    outer loop
      vertex -50.8 -60.097 250
      vertex -50.5225 -40.7405 250
      vertex -50.7304 -39.4275 250
    endloop
  endfacet
  facet normal 0 0 1
    outer loop
      vertex -44.45 -49.0985 250
      vertex -50.8 -60.097 250
      vertex -48.4311 -61.304 250
    endloop
  endfacet
  facet normal 0 0 1
    outer loop
      vertex -50.8 -60.097 250
      vertex -50.7304 -39.4275 250
      vertex -50.8 -38.1 250
    endloop
  endfacet
  facet normal 0.156465 -0.987684 0
    outer loop
      vertex 40.755 -63.3609 0
      vertex 43.381 -62.9449 250
      vertex 40.755 -63.3609 250
    endloop
  endfacet
  facet normal 0.156465 -0.987684 0
    outer loop
      vertex 43.381 -62.9449 250
      vertex 40.755 -63.3609 0
      vertex 43.381 -62.9449 0
    endloop
  endfacet
  facet normal 0.258821 -0.965925 0
    outer loop
      vertex 43.381 -62.9449 0
      vertex 45.949 -62.2568 250
      vertex 43.381 -62.9449 250
    endloop
  endfacet
  facet normal 0.258821 -0.965925 0
    outer loop
      vertex 45.949 -62.2568 250
      vertex 43.381 -62.9449 0
      vertex 45.949 -62.2568 0
    endloop
  endfacet
  facet normal 0.358372 -0.933579 0
    outer loop
      vertex 45.949 -62.2568 0
      vertex 48.4311 -61.304 250
      vertex 45.949 -62.2568 250
    endloop
  endfacet
  facet normal 0.358372 -0.933579 0
    outer loop
      vertex 48.4311 -61.304 250
      vertex 45.949 -62.2568 0
      vertex 48.4311 -61.304 0
    endloop
  endfacet
  facet normal 0.453986 -0.891009 0
    outer loop
      vertex 48.4311 -61.304 0
      vertex 50.8 -60.097 250
      vertex 48.4311 -61.304 250
    endloop
  endfacet
  facet normal 0.453986 -0.891009 0
    outer loop
      vertex 50.8 -60.097 250
      vertex 48.4311 -61.304 0
      vertex 50.8 -60.097 0
    endloop
  endfacet
  facet normal 0.544643 -0.838668 0
    outer loop
      vertex 50.8 -60.097 0
      vertex 53.0297 -58.649 250
      vertex 50.8 -60.097 250
    endloop
  endfacet
  facet normal 0.544643 -0.838668 0
    outer loop
      vertex 53.0297 -58.649 250
      vertex 50.8 -60.097 0
      vertex 53.0297 -58.649 0
    endloop
  endfacet
  facet normal 0.629303 -0.77716 0
    outer loop
      vertex 53.0297 -58.649 0
      vertex 55.0959 -56.9759 250
      vertex 53.0297 -58.649 250
    endloop
  endfacet
  facet normal 0.629303 -0.77716 0
    outer loop
      vertex 55.0959 -56.9759 250
      vertex 53.0297 -58.649 0
      vertex 55.0959 -56.9759 0
    endloop
  endfacet
  facet normal 0.707107 -0.707107 0
    outer loop
      vertex 55.0959 -56.9759 250
      vertex 56.9759 -55.0959 0
      vertex 56.9759 -55.0959 250
    endloop
  endfacet
  facet normal 0.707107 -0.707107 0
    outer loop
      vertex 56.9759 -55.0959 0
      vertex 55.0959 -56.9759 250
      vertex 55.0959 -56.9759 0
    endloop
  endfacet
  facet normal 0.77716 -0.629303 0
    outer loop
      vertex 56.9759 -55.0959 250
      vertex 58.649 -53.0297 0
      vertex 58.649 -53.0297 250
    endloop
  endfacet
  facet normal 0.77716 -0.629303 0
    outer loop
      vertex 58.649 -53.0297 0
      vertex 56.9759 -55.0959 250
      vertex 56.9759 -55.0959 0
    endloop
  endfacet
  facet normal 0.838668 -0.544643 0
    outer loop
      vertex 58.649 -53.0297 250
      vertex 60.097 -50.8 0
      vertex 60.097 -50.8 250
    endloop
  endfacet
  facet normal 0.838668 -0.544643 0
    outer loop
      vertex 60.097 -50.8 0
      vertex 58.649 -53.0297 250
      vertex 58.649 -53.0297 0
    endloop
  endfacet
  facet normal 0.891009 -0.453986 0
    outer loop
      vertex 60.097 -50.8 250
      vertex 61.304 -48.4311 0
      vertex 61.304 -48.4311 250
    endloop
  endfacet
  facet normal 0.891009 -0.453986 0
    outer loop
      vertex 61.304 -48.4311 0
      vertex 60.097 -50.8 250
      vertex 60.097 -50.8 0
    endloop
  endfacet
  facet normal 0.933579 -0.358372 0
    outer loop
      vertex 61.304 -48.4311 250
      vertex 62.2568 -45.949 0
      vertex 62.2568 -45.949 250
    endloop
  endfacet
  facet normal 0.933579 -0.358372 0
    outer loop
      vertex 62.2568 -45.949 0
      vertex 61.304 -48.4311 250
      vertex 61.304 -48.4311 0
    endloop
  endfacet
  facet normal 0.965925 -0.258821 0
    outer loop
      vertex 62.2568 -45.949 250
      vertex 62.9449 -43.381 0
      vertex 62.9449 -43.381 250
    endloop
  endfacet
  facet normal 0.965925 -0.258821 0
    outer loop
      vertex 62.9449 -43.381 0
      vertex 62.2568 -45.949 250
      vertex 62.2568 -45.949 0
    endloop
  endfacet
  facet normal 0.987684 -0.156465 0
    outer loop
      vertex 62.9449 -43.381 250
      vertex 63.3609 -40.755 0
      vertex 63.3609 -40.755 250
    endloop
  endfacet
  facet normal 0.987684 -0.156465 0
    outer loop
      vertex 63.3609 -40.755 0
      vertex 62.9449 -43.381 250
      vertex 62.9449 -43.381 0
    endloop
  endfacet
  facet normal 0.99863 -0.05232 0
    outer loop
      vertex 63.3609 -40.755 250
      vertex 63.5 -38.1 0
      vertex 63.5 -38.1 250
    endloop
  endfacet
  facet normal 0.99863 -0.05232 0
    outer loop
      vertex 63.5 -38.1 0
      vertex 63.3609 -40.755 250
      vertex 63.3609 -40.755 0
    endloop
  endfacet
  facet normal 1 -0 0
    outer loop
      vertex 63.5 -38.1 250
      vertex 63.5 38.1 0
      vertex 63.5 38.1 250
    endloop
  endfacet
  facet normal 1 0 0
    outer loop
      vertex 63.5 38.1 0
      vertex 63.5 -38.1 250
      vertex 63.5 -38.1 0
    endloop
  endfacet
  facet normal 0.99863 0.05232 0
    outer loop
      vertex 63.5 38.1 250
      vertex 63.3609 40.755 0
      vertex 63.3609 40.755 250
    endloop
  endfacet
  facet normal 0.99863 0.05232 0
    outer loop
      vertex 63.3609 40.755 0
      vertex 63.5 38.1 250
      vertex 63.5 38.1 0
    endloop
  endfacet
  facet normal 0.987684 0.156465 0
    outer loop
      vertex 63.3609 40.755 250
      vertex 62.9449 43.381 0
      vertex 62.9449 43.381 250
    endloop
  endfacet
  facet normal 0.987684 0.156465 0
    outer loop
      vertex 62.9449 43.381 0
      vertex 63.3609 40.755 250
      vertex 63.3609 40.755 0
    endloop
  endfacet
  facet normal 0.965925 0.258821 0
    outer loop
      vertex 62.9449 43.381 250
      vertex 62.2568 45.949 0
      vertex 62.2568 45.949 250
    endloop
  endfacet
  facet normal 0.965925 0.258821 0
    outer loop
      vertex 62.2568 45.949 0
      vertex 62.9449 43.381 250
      vertex 62.9449 43.381 0
    endloop
  endfacet
  facet normal 0.933579 0.358372 0
    outer loop
      vertex 62.2568 45.949 250
      vertex 61.304 48.4311 0
      vertex 61.304 48.4311 250
    endloop
  endfacet
  facet normal 0.933579 0.358372 0
    outer loop
      vertex 61.304 48.4311 0
      vertex 62.2568 45.949 250
      vertex 62.2568 45.949 0
    endloop
  endfacet
  facet normal 0.891009 0.453986 0
    outer loop
      vertex 61.304 48.4311 250
      vertex 60.097 50.8 0
      vertex 60.097 50.8 250
    endloop
  endfacet
  facet normal 0.891009 0.453986 0
    outer loop
      vertex 60.097 50.8 0
      vertex 61.304 48.4311 250
      vertex 61.304 48.4311 0
    endloop
  endfacet
  facet normal 0.838668 0.544643 0
    outer loop
      vertex 60.097 50.8 250
      vertex 58.649 53.0297 0
      vertex 58.649 53.0297 250
    endloop
  endfacet
  facet normal 0.838668 0.544643 0
    outer loop
      vertex 58.649 53.0297 0
      vertex 60.097 50.8 250
      vertex 60.097 50.8 0
    endloop
  endfacet
  facet normal 0.77716 0.629303 0
    outer loop
      vertex 58.649 53.0297 250
      vertex 56.9759 55.0959 0
      vertex 56.9759 55.0959 250
    endloop
  endfacet
  facet normal 0.77716 0.629303 0
    outer loop
      vertex 56.9759 55.0959 0
      vertex 58.649 53.0297 250
      vertex 58.649 53.0297 0
    endloop
  endfacet
  facet normal 0.707107 0.707107 0
    outer loop
      vertex 56.9759 55.0959 250
      vertex 55.0959 56.9759 0
      vertex 55.0959 56.9759 250
    endloop
  endfacet
  facet normal 0.707107 0.707107 0
    outer loop
      vertex 55.0959 56.9759 0
      vertex 56.9759 55.0959 250
      vertex 56.9759 55.0959 0
    endloop
  endfacet
  facet normal 0.629303 0.77716 -0
    outer loop
      vertex 55.0959 56.9759 0
      vertex 53.0297 58.649 250
      vertex 55.0959 56.9759 250
    endloop
  endfacet
  facet normal 0.629303 0.77716 0
    outer loop
      vertex 53.0297 58.649 250
      vertex 55.0959 56.9759 0
      vertex 53.0297 58.649 0
    endloop
  endfacet
  facet normal 0.544643 0.838668 -0
    outer loop
      vertex 53.0297 58.649 0
      vertex 50.8 60.097 250
      vertex 53.0297 58.649 250
    endloop
  endfacet
  facet normal 0.544643 0.838668 0
    outer loop
      vertex 50.8 60.097 250
      vertex 53.0297 58.649 0
      vertex 50.8 60.097 0
    endloop
  endfacet
  facet normal 0.453986 0.891009 -0
    outer loop
      vertex 50.8 60.097 0
      vertex 48.4311 61.304 250
      vertex 50.8 60.097 250
    endloop
  endfacet
  facet normal 0.453986 0.891009 0
    outer loop
      vertex 48.4311 61.304 250
      vertex 50.8 60.097 0
      vertex 48.4311 61.304 0
    endloop
  endfacet
  facet normal 0.358372 0.933579 -0
    outer loop
      vertex 48.4311 61.304 0
      vertex 45.949 62.2568 250
      vertex 48.4311 61.304 250
    endloop
  endfacet
  facet normal 0.358372 0.933579 0
    outer loop
      vertex 45.949 62.2568 250
      vertex 48.4311 61.304 0
      vertex 45.949 62.2568 0
    endloop
  endfacet
  facet normal 0.258821 0.965925 -0
    outer loop
      vertex 45.949 62.2568 0
      vertex 43.381 62.9449 250
      vertex 45.949 62.2568 250
    endloop
  endfacet
  facet normal 0.258821 0.965925 0
    outer loop
      vertex 43.381 62.9449 250
      vertex 45.949 62.2568 0
      vertex 43.381 62.9449 0
    endloop
  endfacet
  facet normal 0.156465 0.987684 -0
    outer loop
      vertex 43.381 62.9449 0
      vertex 40.755 63.3609 250
      vertex 43.381 62.9449 250
    endloop
  endfacet
  facet normal 0.156465 0.987684 0
    outer loop
      vertex 40.755 63.3609 250
      vertex 43.381 62.9449 0
      vertex 40.755 63.3609 0
    endloop
  endfacet
  facet normal 0.05232 0.99863 -0
    outer loop
      vertex 40.755 63.3609 0
      vertex 38.1 63.5 250
      vertex 40.755 63.3609 250
    endloop
  endfacet
  facet normal 0.05232 0.99863 0
    outer loop
      vertex 38.1 63.5 250
      vertex 40.755 63.3609 0
      vertex 38.1 63.5 0
    endloop
  endfacet
  facet normal 0 1 0
    outer loop
      vertex 38.1 63.5 250
      vertex 10 63.5 100
      vertex -38.1 63.5 250
    endloop
  endfacet
  facet normal 0 1 -0
    outer loop
      vertex 38.1 63.5 0
      vertex 10 63.5 100
      vertex 38.1 63.5 250
    endloop
  endfacet
  facet normal 0 1 0
    outer loop
      vertex 10 63.5 100
      vertex 38.1 63.5 0
      vertex 10 63.5 0
    endloop
  endfacet
  facet normal 0 1 -0
    outer loop
      vertex -10 63.5 100
      vertex -38.1 63.5 250
      vertex 10 63.5 100
    endloop
  endfacet
  facet normal 0 1 0
    outer loop
      vertex -38.1 63.5 0
      vertex -10 63.5 100
      vertex -10 63.5 0
    endloop
  endfacet
  facet normal 0 1 0
    outer loop
      vertex -10 63.5 100
      vertex -38.1 63.5 0
      vertex -38.1 63.5 250
    endloop
  endfacet
  facet normal -0.05232 0.99863 0
    outer loop
      vertex -38.1 63.5 0
      vertex -40.755 63.3609 250
      vertex -38.1 63.5 250
    endloop
  endfacet
  facet normal -0.05232 0.99863 0
    outer loop
      vertex -40.755 63.3609 250
      vertex -38.1 63.5 0
      vertex -40.755 63.3609 0
    endloop
  endfacet
  facet normal -0.156465 0.987684 0
    outer loop
      vertex -40.755 63.3609 0
      vertex -43.381 62.9449 250
      vertex -40.755 63.3609 250
    endloop
  endfacet
  facet normal -0.156465 0.987684 0
    outer loop
      vertex -43.381 62.9449 250
      vertex -40.755 63.3609 0
      vertex -43.381 62.9449 0
    endloop
  endfacet
  facet normal -0.258821 0.965925 0
    outer loop
      vertex -43.381 62.9449 0
      vertex -45.949 62.2568 250
      vertex -43.381 62.9449 250
    endloop
  endfacet
  facet normal -0.258821 0.965925 0
    outer loop
      vertex -45.949 62.2568 250
      vertex -43.381 62.9449 0
      vertex -45.949 62.2568 0
    endloop
  endfacet
  facet normal -0.358372 0.933579 0
    outer loop
      vertex -45.949 62.2568 0
      vertex -48.4311 61.304 250
      vertex -45.949 62.2568 250
    endloop
  endfacet
  facet normal -0.358372 0.933579 0
    outer loop
      vertex -48.4311 61.304 250
      vertex -45.949 62.2568 0
      vertex -48.4311 61.304 0
    endloop
  endfacet
  facet normal -0.453986 0.891009 0
    outer loop
      vertex -48.4311 61.304 0
      vertex -50.8 60.097 250
      vertex -48.4311 61.304 250
    endloop
  endfacet
  facet normal -0.453986 0.891009 0
    outer loop
      vertex -50.8 60.097 250
      vertex -48.4311 61.304 0
      vertex -50.8 60.097 0
    endloop
  endfacet
  facet normal -0.544643 0.838668 0
    outer loop
      vertex -50.8 60.097 0
      vertex -53.0297 58.649 250
      vertex -50.8 60.097 250
    endloop
  endfacet
  facet normal -0.544643 0.838668 0
    outer loop
      vertex -53.0297 58.649 250
      vertex -50.8 60.097 0
      vertex -53.0297 58.649 0
    endloop
  endfacet
  facet normal -0.629303 0.77716 0
    outer loop
      vertex -53.0297 58.649 0
      vertex -55.0959 56.9759 250
      vertex -53.0297 58.649 250
    endloop
  endfacet
  facet normal -0.629303 0.77716 0
    outer loop
      vertex -55.0959 56.9759 250
      vertex -53.0297 58.649 0
      vertex -55.0959 56.9759 0
    endloop
  endfacet
  facet normal -0.707107 0.707107 0
    outer loop
      vertex -56.9759 55.0959 0
      vertex -55.0959 56.9759 250
      vertex -55.0959 56.9759 0
    endloop
  endfacet
  facet normal -0.707107 0.707107 0
    outer loop
      vertex -55.0959 56.9759 250
      vertex -56.9759 55.0959 0
      vertex -56.9759 55.0959 250
    endloop
  endfacet
  facet normal -0.77716 0.629303 0
    outer loop
      vertex -58.649 53.0297 0
      vertex -56.9759 55.0959 250
      vertex -56.9759 55.0959 0
    endloop
  endfacet
  facet normal -0.77716 0.629303 0
    outer loop
      vertex -56.9759 55.0959 250
      vertex -58.649 53.0297 0
      vertex -58.649 53.0297 250
    endloop
  endfacet
  facet normal -0.838668 0.544643 0
    outer loop
      vertex -60.097 50.8 0
      vertex -58.649 53.0297 250
      vertex -58.649 53.0297 0
    endloop
  endfacet
  facet normal -0.838668 0.544643 0
    outer loop
      vertex -58.649 53.0297 250
      vertex -60.097 50.8 0
      vertex -60.097 50.8 250
    endloop
  endfacet
  facet normal -0.891009 0.453986 0
    outer loop
      vertex -61.304 48.4311 0
      vertex -60.097 50.8 250
      vertex -60.097 50.8 0
    endloop
  endfacet
  facet normal -0.891009 0.453986 0
    outer loop
      vertex -60.097 50.8 250
      vertex -61.304 48.4311 0
      vertex -61.304 48.4311 250
    endloop
  endfacet
  facet normal -0.933579 0.358372 0
    outer loop
      vertex -62.2568 45.949 0
      vertex -61.304 48.4311 250
      vertex -61.304 48.4311 0
    endloop
  endfacet
  facet normal -0.933579 0.358372 0
    outer loop
      vertex -61.304 48.4311 250
      vertex -62.2568 45.949 0
      vertex -62.2568 45.949 250
    endloop
  endfacet
  facet normal -0.965925 0.258821 0
    outer loop
      vertex -62.9449 43.381 0
      vertex -62.2568 45.949 250
      vertex -62.2568 45.949 0
    endloop
  endfacet
  facet normal -0.965925 0.258821 0
    outer loop
      vertex -62.2568 45.949 250
      vertex -62.9449 43.381 0
      vertex -62.9449 43.381 250
    endloop
  endfacet
  facet normal -0.987684 0.156465 0
    outer loop
      vertex -63.3609 40.755 0
      vertex -62.9449 43.381 250
      vertex -62.9449 43.381 0
    endloop
  endfacet
  facet normal -0.987684 0.156465 0
    outer loop
      vertex -62.9449 43.381 250
      vertex -63.3609 40.755 0
      vertex -63.3609 40.755 250
    endloop
  endfacet
  facet normal -0.99863 0.05232 0
    outer loop
      vertex -63.5 38.1 0
      vertex -63.3609 40.755 250
      vertex -63.3609 40.755 0
    endloop
  endfacet
  facet normal -0.99863 0.05232 0
    outer loop
      vertex -63.3609 40.755 250
      vertex -63.5 38.1 0
      vertex -63.5 38.1 250
    endloop
  endfacet
  facet normal -1 0 0
    outer loop
      vertex -63.5 -38.1 0
      vertex -63.5 38.1 250
      vertex -63.5 38.1 0
    endloop
  endfacet
  facet normal -1 -0 0
    outer loop
      vertex -63.5 38.1 250
      vertex -63.5 -38.1 0
      vertex -63.5 -38.1 250
    endloop
  endfacet
  facet normal -0.99863 -0.05232 0
    outer loop
      vertex -63.3609 -40.755 0
      vertex -63.5 -38.1 250
      vertex -63.5 -38.1 0
    endloop
  endfacet
  facet normal -0.99863 -0.05232 0
    outer loop
      vertex -63.5 -38.1 250
      vertex -63.3609 -40.755 0
      vertex -63.3609 -40.755 250
    endloop
  endfacet
  facet normal -0.987684 -0.156465 0
    outer loop
      vertex -62.9449 -43.381 0
      vertex -63.3609 -40.755 250
      vertex -63.3609 -40.755 0
    endloop
  endfacet
  facet normal -0.987684 -0.156465 0
    outer loop
      vertex -63.3609 -40.755 250
      vertex -62.9449 -43.381 0
      vertex -62.9449 -43.381 250
    endloop
  endfacet
  facet normal -0.965925 -0.258821 0
    outer loop
      vertex -62.2568 -45.949 0
      vertex -62.9449 -43.381 250
      vertex -62.9449 -43.381 0
    endloop
  endfacet
  facet normal -0.965925 -0.258821 0
    outer loop
      vertex -62.9449 -43.381 250
      vertex -62.2568 -45.949 0
      vertex -62.2568 -45.949 250
    endloop
  endfacet
  facet normal -0.933579 -0.358372 0
    outer loop
      vertex -61.304 -48.4311 0
      vertex -62.2568 -45.949 250
      vertex -62.2568 -45.949 0
    endloop
  endfacet
  facet normal -0.933579 -0.358372 0
    outer loop
      vertex -62.2568 -45.949 250
      vertex -61.304 -48.4311 0
      vertex -61.304 -48.4311 250
    endloop
  endfacet
  facet normal -0.891009 -0.453986 0
    outer loop
      vertex -60.097 -50.8 0
      vertex -61.304 -48.4311 250
      vertex -61.304 -48.4311 0
    endloop
  endfacet
  facet normal -0.891009 -0.453986 0
    outer loop
      vertex -61.304 -48.4311 250
      vertex -60.097 -50.8 0
      vertex -60.097 -50.8 250
    endloop
  endfacet
  facet normal -0.838668 -0.544643 0
    outer loop
      vertex -58.649 -53.0297 0
      vertex -60.097 -50.8 250
      vertex -60.097 -50.8 0
    endloop
  endfacet
  facet normal -0.838668 -0.544643 0
    outer loop
      vertex -60.097 -50.8 250
      vertex -58.649 -53.0297 0
      vertex -58.649 -53.0297 250
    endloop
  endfacet
  facet normal -0.77716 -0.629303 0
    outer loop
      vertex -56.9759 -55.0959 0
      vertex -58.649 -53.0297 250
      vertex -58.649 -53.0297 0
    endloop
  endfacet
  facet normal -0.77716 -0.629303 0
    outer loop
      vertex -58.649 -53.0297 250
      vertex -56.9759 -55.0959 0
      vertex -56.9759 -55.0959 250
    endloop
  endfacet
  facet normal -0.707107 -0.707107 0
    outer loop
      vertex -55.0959 -56.9759 0
      vertex -56.9759 -55.0959 250
      vertex -56.9759 -55.0959 0
    endloop
  endfacet
  facet normal -0.707107 -0.707107 0
    outer loop
      vertex -56.9759 -55.0959 250
      vertex -55.0959 -56.9759 0
      vertex -55.0959 -56.9759 250
    endloop
  endfacet
  facet normal -0.629303 -0.77716 0
    outer loop
      vertex -55.0959 -56.9759 0
      vertex -53.0297 -58.649 250
      vertex -55.0959 -56.9759 250
    endloop
  endfacet
  facet normal -0.629303 -0.77716 -0
    outer loop
      vertex -53.0297 -58.649 250
      vertex -55.0959 -56.9759 0
      vertex -53.0297 -58.649 0
    endloop
  endfacet
  facet normal -0.544643 -0.838668 0
    outer loop
      vertex -53.0297 -58.649 0
      vertex -50.8 -60.097 250
      vertex -53.0297 -58.649 250
    endloop
  endfacet
  facet normal -0.544643 -0.838668 -0
    outer loop
      vertex -50.8 -60.097 250
      vertex -53.0297 -58.649 0
      vertex -50.8 -60.097 0
    endloop
  endfacet
  facet normal -0.453986 -0.891009 0
    outer loop
      vertex -50.8 -60.097 0
      vertex -48.4311 -61.304 250
      vertex -50.8 -60.097 250
    endloop
  endfacet
  facet normal -0.453986 -0.891009 -0
    outer loop
      vertex -48.4311 -61.304 250
      vertex -50.8 -60.097 0
      vertex -48.4311 -61.304 0
    endloop
  endfacet
  facet normal -0.358372 -0.933579 0
    outer loop
      vertex -48.4311 -61.304 0
      vertex -45.949 -62.2568 250
      vertex -48.4311 -61.304 250
    endloop
  endfacet
  facet normal -0.358372 -0.933579 -0
    outer loop
      vertex -45.949 -62.2568 250
      vertex -48.4311 -61.304 0
      vertex -45.949 -62.2568 0
    endloop
  endfacet
  facet normal -0.258821 -0.965925 0
    outer loop
      vertex -45.949 -62.2568 0
      vertex -43.381 -62.9449 250
      vertex -45.949 -62.2568 250
    endloop
  endfacet
  facet normal -0.258821 -0.965925 -0
    outer loop
      vertex -43.381 -62.9449 250
      vertex -45.949 -62.2568 0
      vertex -43.381 -62.9449 0
    endloop
  endfacet
  facet normal -0.156465 -0.987684 0
    outer loop
      vertex -43.381 -62.9449 0
      vertex -40.755 -63.3609 250
      vertex -43.381 -62.9449 250
    endloop
  endfacet
  facet normal -0.156465 -0.987684 -0
    outer loop
      vertex -40.755 -63.3609 250
      vertex -43.381 -62.9449 0
      vertex -40.755 -63.3609 0
    endloop
  endfacet
  facet normal -0.05232 -0.99863 0
    outer loop
      vertex -40.755 -63.3609 0
      vertex -38.1 -63.5 250
      vertex -40.755 -63.3609 250
    endloop
  endfacet
  facet normal -0.05232 -0.99863 -0
    outer loop
      vertex -38.1 -63.5 250
      vertex -40.755 -63.3609 0
      vertex -38.1 -63.5 0
    endloop
  endfacet
  facet normal 0 -1 0
    outer loop
      vertex -38.1 -63.5 250
      vertex -10 -63.5 100
      vertex 38.1 -63.5 250
    endloop
  endfacet
  facet normal 0 -1 0
    outer loop
      vertex -38.1 -63.5 0
      vertex -10 -63.5 100
      vertex -38.1 -63.5 250
    endloop
  endfacet
  facet normal 0 -1 -0
    outer loop
      vertex -10 -63.5 100
      vertex -38.1 -63.5 0
      vertex -10 -63.5 0
    endloop
  endfacet
  facet normal 0 -1 0
    outer loop
      vertex 10 -63.5 100
      vertex 38.1 -63.5 250
      vertex -10 -63.5 100
    endloop
  endfacet
  facet normal 0 -1 0
    outer loop
      vertex 38.1 -63.5 0
      vertex 10 -63.5 100
      vertex 10 -63.5 0
    endloop
  endfacet
  facet normal 0 -1 0
    outer loop
      vertex 10 -63.5 100
      vertex 38.1 -63.5 0
      vertex 38.1 -63.5 250
    endloop
  endfacet
  facet normal 0.05232 -0.99863 0
    outer loop
      vertex 38.1 -63.5 0
      vertex 40.755 -63.3609 250
      vertex 38.1 -63.5 250
    endloop
  endfacet
  facet normal 0.05232 -0.99863 0
    outer loop
      vertex 40.755 -63.3609 250
      vertex 38.1 -63.5 0
      vertex 40.755 -63.3609 0
    endloop
  endfacet
  facet normal 0.0523575 0.998628 -0
    outer loop
      vertex -38.1 -50.8 0
      vertex -39.4275 -50.7304 250
      vertex -38.1 -50.8 250
    endloop
  endfacet
  facet normal 0.0523575 0.998628 0
    outer loop
      vertex -39.4275 -50.7304 250
      vertex -38.1 -50.8 0
      vertex -39.4275 -50.7304 0
    endloop
  endfacet
  facet normal 0.156391 0.987695 -0
    outer loop
      vertex -39.4275 -50.7304 0
      vertex -40.7405 -50.5225 250
      vertex -39.4275 -50.7304 250
    endloop
  endfacet
  facet normal 0.156391 0.987695 0
    outer loop
      vertex -40.7405 -50.5225 250
      vertex -39.4275 -50.7304 0
      vertex -40.7405 -50.5225 0
    endloop
  endfacet
  facet normal 0.258856 0.965916 -0
    outer loop
      vertex -40.7405 -50.5225 0
      vertex -42.0245 -50.1784 250
      vertex -40.7405 -50.5225 250
    endloop
  endfacet
  facet normal 0.258856 0.965916 0
    outer loop
      vertex -42.0245 -50.1784 250
      vertex -40.7405 -50.5225 0
      vertex -42.0245 -50.1784 0
    endloop
  endfacet
  facet normal 0.358384 0.933574 -0
    outer loop
      vertex -42.0245 -50.1784 0
      vertex -43.2655 -49.702 250
      vertex -42.0245 -50.1784 250
    endloop
  endfacet
  facet normal 0.358384 0.933574 0
    outer loop
      vertex -43.2655 -49.702 250
      vertex -42.0245 -50.1784 0
      vertex -43.2655 -49.702 0
    endloop
  endfacet
  facet normal 0.453971 0.891017 -0
    outer loop
      vertex -43.2655 -49.702 0
      vertex -44.45 -49.0985 250
      vertex -43.2655 -49.702 250
    endloop
  endfacet
  facet normal 0.453971 0.891017 0
    outer loop
      vertex -44.45 -49.0985 250
      vertex -43.2655 -49.702 0
      vertex -44.45 -49.0985 0
    endloop
  endfacet
  facet normal 0.544626 0.838679 -0
    outer loop
      vertex -44.45 -49.0985 0
      vertex -45.5649 -48.3745 250
      vertex -44.45 -49.0985 250
    endloop
  endfacet
  facet normal 0.544626 0.838679 0
    outer loop
      vertex -45.5649 -48.3745 250
      vertex -44.45 -49.0985 0
      vertex -45.5649 -48.3745 0
    endloop
  endfacet
  facet normal 0.629363 0.777112 -0
    outer loop
      vertex -45.5649 -48.3745 0
      vertex -46.5979 -47.5379 250
      vertex -45.5649 -48.3745 250
    endloop
  endfacet
  facet normal 0.629363 0.777112 0
    outer loop
      vertex -46.5979 -47.5379 250
      vertex -45.5649 -48.3745 0
      vertex -46.5979 -47.5379 0
    endloop
  endfacet
  facet normal 0.707107 0.707107 0
    outer loop
      vertex -46.5979 -47.5379 250
      vertex -47.5379 -46.5979 0
      vertex -47.5379 -46.5979 250
    endloop
  endfacet
  facet normal 0.707107 0.707107 0
    outer loop
      vertex -47.5379 -46.5979 0
      vertex -46.5979 -47.5379 250
      vertex -46.5979 -47.5379 0
    endloop
  endfacet
  facet normal 0.777112 0.629363 0
    outer loop
      vertex -47.5379 -46.5979 250
      vertex -48.3745 -45.5649 0
      vertex -48.3745 -45.5649 250
    endloop
  endfacet
  facet normal 0.777112 0.629363 0
    outer loop
      vertex -48.3745 -45.5649 0
      vertex -47.5379 -46.5979 250
      vertex -47.5379 -46.5979 0
    endloop
  endfacet
  facet normal 0.838679 0.544626 0
    outer loop
      vertex -48.3745 -45.5649 250
      vertex -49.0985 -44.45 0
      vertex -49.0985 -44.45 250
    endloop
  endfacet
  facet normal 0.838679 0.544626 0
    outer loop
      vertex -49.0985 -44.45 0
      vertex -48.3745 -45.5649 250
      vertex -48.3745 -45.5649 0
    endloop
  endfacet
  facet normal 0.891017 0.453971 0
    outer loop
      vertex -49.0985 -44.45 250
      vertex -49.702 -43.2655 0
      vertex -49.702 -43.2655 250
    endloop
  endfacet
  facet normal 0.891017 0.453971 0
    outer loop
      vertex -49.702 -43.2655 0
      vertex -49.0985 -44.45 250
      vertex -49.0985 -44.45 0
    endloop
  endfacet
  facet normal 0.933574 0.358384 0
    outer loop
      vertex -49.702 -43.2655 250
      vertex -50.1784 -42.0245 0
      vertex -50.1784 -42.0245 250
    endloop
  endfacet
  facet normal 0.933574 0.358384 0
    outer loop
      vertex -50.1784 -42.0245 0
      vertex -49.702 -43.2655 250
      vertex -49.702 -43.2655 0
    endloop
  endfacet
  facet normal 0.965916 0.258856 0
    outer loop
      vertex -50.1784 -42.0245 250
      vertex -50.5225 -40.7405 0
      vertex -50.5225 -40.7405 250
    endloop
  endfacet
  facet normal 0.965916 0.258856 0
    outer loop
      vertex -50.5225 -40.7405 0
      vertex -50.1784 -42.0245 250
      vertex -50.1784 -42.0245 0
    endloop
  endfacet
  facet normal 0.987695 0.156391 0
    outer loop
      vertex -50.5225 -40.7405 250
      vertex -50.7304 -39.4275 0
      vertex -50.7304 -39.4275 250
    endloop
  endfacet
  facet normal 0.987695 0.156391 0
    outer loop
      vertex -50.7304 -39.4275 0
      vertex -50.5225 -40.7405 250
      vertex -50.5225 -40.7405 0
    endloop
  endfacet
  facet normal 0.998628 0.0523575 0
    outer loop
      vertex -50.7304 -39.4275 250
      vertex -50.8 -38.1 0
      vertex -50.8 -38.1 250
    endloop
  endfacet
  facet normal 0.998628 0.0523575 0
    outer loop
      vertex -50.8 -38.1 0
      vertex -50.7304 -39.4275 250
      vertex -50.7304 -39.4275 0
    endloop
  endfacet
  facet normal 1 -0 0
    outer loop
      vertex -50.8 -38.1 250
      vertex -50.8 38.1 0
      vertex -50.8 38.1 250
    endloop
  endfacet
  facet normal 1 0 0
    outer loop
      vertex -50.8 38.1 0
      vertex -50.8 -38.1 250
      vertex -50.8 -38.1 0
    endloop
  endfacet
  facet normal 0.998628 -0.0523575 0
    outer loop
      vertex -50.8 38.1 250
      vertex -50.7304 39.4275 0
      vertex -50.7304 39.4275 250
    endloop
  endfacet
  facet normal 0.998628 -0.0523575 0
    outer loop
      vertex -50.7304 39.4275 0
      vertex -50.8 38.1 250
      vertex -50.8 38.1 0
    endloop
  endfacet
  facet normal 0.987695 -0.156391 0
    outer loop
      vertex -50.7304 39.4275 250
      vertex -50.5225 40.7405 0
      vertex -50.5225 40.7405 250
    endloop
  endfacet
  facet normal 0.987695 -0.156391 0
    outer loop
      vertex -50.5225 40.7405 0
      vertex -50.7304 39.4275 250
      vertex -50.7304 39.4275 0
    endloop
  endfacet
  facet normal 0.965916 -0.258856 0
    outer loop
      vertex -50.5225 40.7405 250
      vertex -50.1784 42.0245 0
      vertex -50.1784 42.0245 250
    endloop
  endfacet
  facet normal 0.965916 -0.258856 0
    outer loop
      vertex -50.1784 42.0245 0
      vertex -50.5225 40.7405 250
      vertex -50.5225 40.7405 0
    endloop
  endfacet
  facet normal 0.933574 -0.358384 0
    outer loop
      vertex -50.1784 42.0245 250
      vertex -49.702 43.2655 0
      vertex -49.702 43.2655 250
    endloop
  endfacet
  facet normal 0.933574 -0.358384 0
    outer loop
      vertex -49.702 43.2655 0
      vertex -50.1784 42.0245 250
      vertex -50.1784 42.0245 0
    endloop
  endfacet
  facet normal 0.891017 -0.453971 0
    outer loop
      vertex -49.702 43.2655 250
      vertex -49.0985 44.45 0
      vertex -49.0985 44.45 250
    endloop
  endfacet
  facet normal 0.891017 -0.453971 0
    outer loop
      vertex -49.0985 44.45 0
      vertex -49.702 43.2655 250
      vertex -49.702 43.2655 0
    endloop
  endfacet
  facet normal 0.838679 -0.544626 0
    outer loop
      vertex -49.0985 44.45 250
      vertex -48.3745 45.5649 0
      vertex -48.3745 45.5649 250
    endloop
  endfacet
  facet normal 0.838679 -0.544626 0
    outer loop
      vertex -48.3745 45.5649 0
      vertex -49.0985 44.45 250
      vertex -49.0985 44.45 0
    endloop
  endfacet
  facet normal 0.777112 -0.629363 0
    outer loop
      vertex -48.3745 45.5649 250
      vertex -47.5379 46.5979 0
      vertex -47.5379 46.5979 250
    endloop
  endfacet
  facet normal 0.777112 -0.629363 0
    outer loop
      vertex -47.5379 46.5979 0
      vertex -48.3745 45.5649 250
      vertex -48.3745 45.5649 0
    endloop
  endfacet
  facet normal 0.707107 -0.707107 0
    outer loop
      vertex -47.5379 46.5979 250
      vertex -46.5979 47.5379 0
      vertex -46.5979 47.5379 250
    endloop
  endfacet
  facet normal 0.707107 -0.707107 0
    outer loop
      vertex -46.5979 47.5379 0
      vertex -47.5379 46.5979 250
      vertex -47.5379 46.5979 0
    endloop
  endfacet
  facet normal 0.629363 -0.777112 0
    outer loop
      vertex -46.5979 47.5379 0
      vertex -45.5649 48.3745 250
      vertex -46.5979 47.5379 250
    endloop
  endfacet
  facet normal 0.629363 -0.777112 0
    outer loop
      vertex -45.5649 48.3745 250
      vertex -46.5979 47.5379 0
      vertex -45.5649 48.3745 0
    endloop
  endfacet
  facet normal 0.544626 -0.838679 0
    outer loop
      vertex -45.5649 48.3745 0
      vertex -44.45 49.0985 250
      vertex -45.5649 48.3745 250
    endloop
  endfacet
  facet normal 0.544626 -0.838679 0
    outer loop
      vertex -44.45 49.0985 250
      vertex -45.5649 48.3745 0
      vertex -44.45 49.0985 0
    endloop
  endfacet
  facet normal 0.453971 -0.891017 0
    outer loop
      vertex -44.45 49.0985 0
      vertex -43.2655 49.702 250
      vertex -44.45 49.0985 250
    endloop
  endfacet
  facet normal 0.453971 -0.891017 0
    outer loop
      vertex -43.2655 49.702 250
      vertex -44.45 49.0985 0
      vertex -43.2655 49.702 0
    endloop
  endfacet
  facet normal 0.358384 -0.933574 0
    outer loop
      vertex -43.2655 49.702 0
      vertex -42.0245 50.1784 250
      vertex -43.2655 49.702 250
    endloop
  endfacet
  facet normal 0.358384 -0.933574 0
    outer loop
      vertex -42.0245 50.1784 250
      vertex -43.2655 49.702 0
      vertex -42.0245 50.1784 0
    endloop
  endfacet
  facet normal 0.258856 -0.965916 0
    outer loop
      vertex -42.0245 50.1784 0
      vertex -40.7405 50.5225 250
      vertex -42.0245 50.1784 250
    endloop
  endfacet
  facet normal 0.258856 -0.965916 0
    outer loop
      vertex -40.7405 50.5225 250
      vertex -42.0245 50.1784 0
      vertex -40.7405 50.5225 0
    endloop
  endfacet
  facet normal 0.156391 -0.987695 0
    outer loop
      vertex -40.7405 50.5225 0
      vertex -39.4275 50.7304 250
      vertex -40.7405 50.5225 250
    endloop
  endfacet
  facet normal 0.156391 -0.987695 0
    outer loop
      vertex -39.4275 50.7304 250
      vertex -40.7405 50.5225 0
      vertex -39.4275 50.7304 0
    endloop
  endfacet
  facet normal 0.0523575 -0.998628 0
    outer loop
      vertex -39.4275 50.7304 0
      vertex -38.1 50.8 250
      vertex -39.4275 50.7304 250
    endloop
  endfacet
  facet normal 0.0523575 -0.998628 0
    outer loop
      vertex -38.1 50.8 250
      vertex -39.4275 50.7304 0
      vertex -38.1 50.8 0
    endloop
  endfacet
  facet normal 0 -1 0
    outer loop
      vertex -38.1 50.8 250
      vertex -10 50.8 100
      vertex 38.1 50.8 250
    endloop
  endfacet
  facet normal 0 -1 0
    outer loop
      vertex -38.1 50.8 0
      vertex -10 50.8 100
      vertex -38.1 50.8 250
    endloop
  endfacet
  facet normal 0 -1 -0
    outer loop
      vertex -10 50.8 100
      vertex -38.1 50.8 0
      vertex -10 50.8 0
    endloop
  endfacet
  facet normal 0 -1 0
    outer loop
      vertex 10 50.8 100
      vertex 38.1 50.8 250
      vertex -10 50.8 100
    endloop
  endfacet
  facet normal 0 -1 0
    outer loop
      vertex 38.1 50.8 0
      vertex 10 50.8 100
      vertex 10 50.8 0
    endloop
  endfacet
  facet normal 0 -1 0
    outer loop
      vertex 10 50.8 100
      vertex 38.1 50.8 0
      vertex 38.1 50.8 250
    endloop
  endfacet
  facet normal -0.0523575 -0.998628 0
    outer loop
      vertex 38.1 50.8 0
      vertex 39.4275 50.7304 250
      vertex 38.1 50.8 250
    endloop
  endfacet
  facet normal -0.0523575 -0.998628 -0
    outer loop
      vertex 39.4275 50.7304 250
      vertex 38.1 50.8 0
      vertex 39.4275 50.7304 0
    endloop
  endfacet
  facet normal -0.156391 -0.987695 0
    outer loop
      vertex 39.4275 50.7304 0
      vertex 40.7405 50.5225 250
      vertex 39.4275 50.7304 250
    endloop
  endfacet
  facet normal -0.156391 -0.987695 -0
    outer loop
      vertex 40.7405 50.5225 250
      vertex 39.4275 50.7304 0
      vertex 40.7405 50.5225 0
    endloop
  endfacet
  facet normal -0.258856 -0.965916 0
    outer loop
      vertex 40.7405 50.5225 0
      vertex 42.0245 50.1784 250
      vertex 40.7405 50.5225 250
    endloop
  endfacet
  facet normal -0.258856 -0.965916 -0
    outer loop
      vertex 42.0245 50.1784 250
      vertex 40.7405 50.5225 0
      vertex 42.0245 50.1784 0
    endloop
  endfacet
  facet normal -0.358384 -0.933574 0
    outer loop
      vertex 42.0245 50.1784 0
      vertex 43.2655 49.702 250
      vertex 42.0245 50.1784 250
    endloop
  endfacet
  facet normal -0.358384 -0.933574 -0
    outer loop
      vertex 43.2655 49.702 250
      vertex 42.0245 50.1784 0
      vertex 43.2655 49.702 0
    endloop
  endfacet
  facet normal -0.453971 -0.891017 0
    outer loop
      vertex 43.2655 49.702 0
      vertex 44.45 49.0985 250
      vertex 43.2655 49.702 250
    endloop
  endfacet
  facet normal -0.453971 -0.891017 -0
    outer loop
      vertex 44.45 49.0985 250
      vertex 43.2655 49.702 0
      vertex 44.45 49.0985 0
    endloop
  endfacet
  facet normal -0.544626 -0.838679 0
    outer loop
      vertex 44.45 49.0985 0
      vertex 45.5649 48.3745 250
      vertex 44.45 49.0985 250
    endloop
  endfacet
  facet normal -0.544626 -0.838679 -0
    outer loop
      vertex 45.5649 48.3745 250
      vertex 44.45 49.0985 0
      vertex 45.5649 48.3745 0
    endloop
  endfacet
  facet normal -0.629363 -0.777112 0
    outer loop
      vertex 45.5649 48.3745 0
      vertex 46.5979 47.5379 250
      vertex 45.5649 48.3745 250
    endloop
  endfacet
  facet normal -0.629363 -0.777112 -0
    outer loop
      vertex 46.5979 47.5379 250
      vertex 45.5649 48.3745 0
      vertex 46.5979 47.5379 0
    endloop
  endfacet
  facet normal -0.707107 -0.707107 0
    outer loop
      vertex 47.5379 46.5979 0
      vertex 46.5979 47.5379 250
      vertex 46.5979 47.5379 0
    endloop
  endfacet
  facet normal -0.707107 -0.707107 0
    outer loop
      vertex 46.5979 47.5379 250
      vertex 47.5379 46.5979 0
      vertex 47.5379 46.5979 250
    endloop
  endfacet
  facet normal -0.777112 -0.629363 0
    outer loop
      vertex 48.3745 45.5649 0
      vertex 47.5379 46.5979 250
      vertex 47.5379 46.5979 0
    endloop
  endfacet
  facet normal -0.777112 -0.629363 0
    outer loop
      vertex 47.5379 46.5979 250
      vertex 48.3745 45.5649 0
      vertex 48.3745 45.5649 250
    endloop
  endfacet
  facet normal -0.838679 -0.544626 0
    outer loop
      vertex 49.0985 44.45 0
      vertex 48.3745 45.5649 250
      vertex 48.3745 45.5649 0
    endloop
  endfacet
  facet normal -0.838679 -0.544626 0
    outer loop
      vertex 48.3745 45.5649 250
      vertex 49.0985 44.45 0
      vertex 49.0985 44.45 250
    endloop
  endfacet
  facet normal -0.891017 -0.453971 0
    outer loop
      vertex 49.702 43.2655 0
      vertex 49.0985 44.45 250
      vertex 49.0985 44.45 0
    endloop
  endfacet
  facet normal -0.891017 -0.453971 0
    outer loop
      vertex 49.0985 44.45 250
      vertex 49.702 43.2655 0
      vertex 49.702 43.2655 250
    endloop
  endfacet
  facet normal -0.933574 -0.358384 0
    outer loop
      vertex 50.1784 42.0245 0
      vertex 49.702 43.2655 250
      vertex 49.702 43.2655 0
    endloop
  endfacet
  facet normal -0.933574 -0.358384 0
    outer loop
      vertex 49.702 43.2655 250
      vertex 50.1784 42.0245 0
      vertex 50.1784 42.0245 250
    endloop
  endfacet
  facet normal -0.965916 -0.258856 0
    outer loop
      vertex 50.5225 40.7405 0
      vertex 50.1784 42.0245 250
      vertex 50.1784 42.0245 0
    endloop
  endfacet
  facet normal -0.965916 -0.258856 0
    outer loop
      vertex 50.1784 42.0245 250
      vertex 50.5225 40.7405 0
      vertex 50.5225 40.7405 250
    endloop
  endfacet
  facet normal -0.987695 -0.156391 0
    outer loop
      vertex 50.7304 39.4275 0
      vertex 50.5225 40.7405 250
      vertex 50.5225 40.7405 0
    endloop
  endfacet
  facet normal -0.987695 -0.156391 0
    outer loop
      vertex 50.5225 40.7405 250
      vertex 50.7304 39.4275 0
      vertex 50.7304 39.4275 250
    endloop
  endfacet
  facet normal -0.998628 -0.0523575 0
    outer loop
      vertex 50.8 38.1 0
      vertex 50.7304 39.4275 250
      vertex 50.7304 39.4275 0
    endloop
  endfacet
  facet normal -0.998628 -0.0523575 0
    outer loop
      vertex 50.7304 39.4275 250
      vertex 50.8 38.1 0
      vertex 50.8 38.1 250
    endloop
  endfacet
  facet normal -1 0 0
    outer loop
      vertex 50.8 -38.1 0
      vertex 50.8 38.1 250
      vertex 50.8 38.1 0
    endloop
  endfacet
  facet normal -1 -0 0
    outer loop
      vertex 50.8 38.1 250
      vertex 50.8 -38.1 0
      vertex 50.8 -38.1 250
    endloop
  endfacet
  facet normal -0.998628 0.0523575 0
    outer loop
      vertex 50.7304 -39.4275 0
      vertex 50.8 -38.1 250
      vertex 50.8 -38.1 0
    endloop
  endfacet
  facet normal -0.998628 0.0523575 0
    outer loop
      vertex 50.8 -38.1 250
      vertex 50.7304 -39.4275 0
      vertex 50.7304 -39.4275 250
    endloop
  endfacet
  facet normal -0.987695 0.156391 0
    outer loop
      vertex 50.5225 -40.7405 0
      vertex 50.7304 -39.4275 250
      vertex 50.7304 -39.4275 0
    endloop
  endfacet
  facet normal -0.987695 0.156391 0
    outer loop
      vertex 50.7304 -39.4275 250
      vertex 50.5225 -40.7405 0
      vertex 50.5225 -40.7405 250
    endloop
  endfacet
  facet normal -0.965916 0.258856 0
    outer loop
      vertex 50.1784 -42.0245 0
      vertex 50.5225 -40.7405 250
      vertex 50.5225 -40.7405 0
    endloop
  endfacet
  facet normal -0.965916 0.258856 0
    outer loop
      vertex 50.5225 -40.7405 250
      vertex 50.1784 -42.0245 0
      vertex 50.1784 -42.0245 250
    endloop
  endfacet
  facet normal -0.933574 0.358384 0
    outer loop
      vertex 49.702 -43.2655 0
      vertex 50.1784 -42.0245 250
      vertex 50.1784 -42.0245 0
    endloop
  endfacet
  facet normal -0.933574 0.358384 0
    outer loop
      vertex 50.1784 -42.0245 250
      vertex 49.702 -43.2655 0
      vertex 49.702 -43.2655 250
    endloop
  endfacet
  facet normal -0.891017 0.453971 0
    outer loop
      vertex 49.0985 -44.45 0
      vertex 49.702 -43.2655 250
      vertex 49.702 -43.2655 0
    endloop
  endfacet
  facet normal -0.891017 0.453971 0
    outer loop
      vertex 49.702 -43.2655 250
      vertex 49.0985 -44.45 0
      vertex 49.0985 -44.45 250
    endloop
  endfacet
  facet normal -0.838679 0.544626 0
    outer loop
      vertex 48.3745 -45.5649 0
      vertex 49.0985 -44.45 250
      vertex 49.0985 -44.45 0
    endloop
  endfacet
  facet normal -0.838679 0.544626 0
    outer loop
      vertex 49.0985 -44.45 250
      vertex 48.3745 -45.5649 0
      vertex 48.3745 -45.5649 250
    endloop
  endfacet
  facet normal -0.777112 0.629363 0
    outer loop
      vertex 47.5379 -46.5979 0
      vertex 48.3745 -45.5649 250
      vertex 48.3745 -45.5649 0
    endloop
  endfacet
  facet normal -0.777112 0.629363 0
    outer loop
      vertex 48.3745 -45.5649 250
      vertex 47.5379 -46.5979 0
      vertex 47.5379 -46.5979 250
    endloop
  endfacet
  facet normal -0.707107 0.707107 0
    outer loop
      vertex 46.5979 -47.5379 0
      vertex 47.5379 -46.5979 250
      vertex 47.5379 -46.5979 0
    endloop
  endfacet
  facet normal -0.707107 0.707107 0
    outer loop
      vertex 47.5379 -46.5979 250
      vertex 46.5979 -47.5379 0
      vertex 46.5979 -47.5379 250
    endloop
  endfacet
  facet normal -0.629363 0.777112 0
    outer loop
      vertex 46.5979 -47.5379 0
      vertex 45.5649 -48.3745 250
      vertex 46.5979 -47.5379 250
    endloop
  endfacet
  facet normal -0.629363 0.777112 0
    outer loop
      vertex 45.5649 -48.3745 250
      vertex 46.5979 -47.5379 0
      vertex 45.5649 -48.3745 0
    endloop
  endfacet
  facet normal -0.544626 0.838679 0
    outer loop
      vertex 45.5649 -48.3745 0
      vertex 44.45 -49.0985 250
      vertex 45.5649 -48.3745 250
    endloop
  endfacet
  facet normal -0.544626 0.838679 0
    outer loop
      vertex 44.45 -49.0985 250
      vertex 45.5649 -48.3745 0
      vertex 44.45 -49.0985 0
    endloop
  endfacet
  facet normal -0.453971 0.891017 0
    outer loop
      vertex 44.45 -49.0985 0
      vertex 43.2655 -49.702 250
      vertex 44.45 -49.0985 250
    endloop
  endfacet
  facet normal -0.453971 0.891017 0
    outer loop
      vertex 43.2655 -49.702 250
      vertex 44.45 -49.0985 0
      vertex 43.2655 -49.702 0
    endloop
  endfacet
  facet normal -0.358384 0.933574 0
    outer loop
      vertex 43.2655 -49.702 0
      vertex 42.0245 -50.1784 250
      vertex 43.2655 -49.702 250
    endloop
  endfacet
  facet normal -0.358384 0.933574 0
    outer loop
      vertex 42.0245 -50.1784 250
      vertex 43.2655 -49.702 0
      vertex 42.0245 -50.1784 0
    endloop
  endfacet
  facet normal -0.258856 0.965916 0
    outer loop
      vertex 42.0245 -50.1784 0
      vertex 40.7405 -50.5225 250
      vertex 42.0245 -50.1784 250
    endloop
  endfacet
  facet normal -0.258856 0.965916 0
    outer loop
      vertex 40.7405 -50.5225 250
      vertex 42.0245 -50.1784 0
      vertex 40.7405 -50.5225 0
    endloop
  endfacet
  facet normal -0.156391 0.987695 0
    outer loop
      vertex 40.7405 -50.5225 0
      vertex 39.4275 -50.7304 250
      vertex 40.7405 -50.5225 250
    endloop
  endfacet
  facet normal -0.156391 0.987695 0
    outer loop
      vertex 39.4275 -50.7304 250
      vertex 40.7405 -50.5225 0
      vertex 39.4275 -50.7304 0
    endloop
  endfacet
  facet normal -0.0523575 0.998628 0
    outer loop
      vertex 39.4275 -50.7304 0
      vertex 38.1 -50.8 250
      vertex 39.4275 -50.7304 250
    endloop
  endfacet
  facet normal -0.0523575 0.998628 0
    outer loop
      vertex 38.1 -50.8 250
      vertex 39.4275 -50.7304 0
      vertex 38.1 -50.8 0
    endloop
  endfacet
  facet normal 0 1 0
    outer loop
      vertex 38.1 -50.8 250
      vertex 10 -50.8 100
      vertex -38.1 -50.8 250
    endloop
  endfacet
  facet normal 0 1 -0
    outer loop
      vertex 38.1 -50.8 0
      vertex 10 -50.8 100
      vertex 38.1 -50.8 250
    endloop
  endfacet
  facet normal 0 1 0
    outer loop
      vertex 10 -50.8 100
      vertex 38.1 -50.8 0
      vertex 10 -50.8 0
    endloop
  endfacet
  facet normal 0 1 -0
    outer loop
      vertex -10 -50.8 100
      vertex -38.1 -50.8 250
      vertex 10 -50.8 100
    endloop
  endfacet
  facet normal 0 1 0
    outer loop
      vertex -38.1 -50.8 0
      vertex -10 -50.8 100
      vertex -10 -50.8 0
    endloop
  endfacet
  facet normal 0 1 0
    outer loop
      vertex -10 -50.8 100
      vertex -38.1 -50.8 0
      vertex -38.1 -50.8 250
    endloop
  endfacet
  facet normal 1 -0 0
    outer loop
      vertex -10 50.8 100
      vertex -10 63.5 0
      vertex -10 63.5 100
    endloop
  endfacet
  facet normal 1 0 0
    outer loop
      vertex -10 63.5 0
      vertex -10 50.8 100
      vertex -10 50.8 0
    endloop
  endfacet
  facet normal 1 -0 0
    outer loop
      vertex -10 -63.5 100
      vertex -10 -50.8 0
      vertex -10 -50.8 100
    endloop
  endfacet
  facet normal 1 0 0
    outer loop
      vertex -10 -50.8 0
      vertex -10 -63.5 100
      vertex -10 -63.5 0
    endloop
  endfacet
  facet normal 0 0 -1
    outer loop
      vertex -10 50.8 100
      vertex 10 63.5 100
      vertex 10 50.8 100
    endloop
  endfacet
  facet normal -0 0 -1
    outer loop
      vertex 10 63.5 100
      vertex -10 50.8 100
      vertex -10 63.5 100
    endloop
  endfacet
  facet normal 0 0 -1
    outer loop
      vertex -10 -63.5 100
      vertex 10 -50.8 100
      vertex 10 -63.5 100
    endloop
  endfacet
  facet normal -0 0 -1
    outer loop
      vertex 10 -50.8 100
      vertex -10 -63.5 100
      vertex -10 -50.8 100
    endloop
  endfacet
  facet normal -1 0 0
    outer loop
      vertex 10 50.8 0
      vertex 10 63.5 100
      vertex 10 63.5 0
    endloop
  endfacet
  facet normal -1 -0 0
    outer loop
      vertex 10 63.5 100
      vertex 10 50.8 0
      vertex 10 50.8 100
    endloop
  endfacet
  facet normal -1 0 0
    outer loop
      vertex 10 -63.5 0
      vertex 10 -50.8 100
      vertex 10 -50.8 0
    endloop
  endfacet
  facet normal -1 -0 0
    outer loop
      vertex 10 -50.8 100
      vertex 10 -63.5 0
      vertex 10 -63.5 100
    endloop
  endfacet
endsolid OpenSCAD_Model
