solid OpenSCAD_Model
  facet normal 0 0 -1
    outer loop
      vertex 7.5 0 0
      vertex 0 0 0
      vertex 0 7.5 0
    endloop
  endfacet
  facet normal 0 -1 0
    outer loop
      vertex 0 0 0
      vertex 7.5 0 200
      vertex 0 0 200
    endloop
  endfacet
  facet normal 0 -1 -0
    outer loop
      vertex 7.5 0 200
      vertex 0 0 0
      vertex 7.5 0 0
    endloop
  endfacet
  facet normal 0.707107 0.707107 0
    outer loop
      vertex 7.5 0 200
      vertex 0 7.5 0
      vertex 0 7.5 200
    endloop
  endfacet
  facet normal 0.707107 0.707107 0
    outer loop
      vertex 0 7.5 0
      vertex 7.5 0 200
      vertex 7.5 0 0
    endloop
  endfacet
  facet normal 0 0 1
    outer loop
      vertex 0 7.5 200
      vertex 0 0 200
      vertex 7.5 0 200
    endloop
  endfacet
  facet normal -1 0 0
    outer loop
      vertex 0 0 0
      vertex 0 7.5 200
      vertex 0 7.5 0
    endloop
  endfacet
  facet normal -1 -0 0
    outer loop
      vertex 0 7.5 200
      vertex 0 0 0
      vertex 0 0 200
    endloop
  endfacet
  facet normal 0 0 -1
    outer loop
      vertex 18.75 0 0
      vertex 11.25 0 0
      vertex 11.25 7.5 0
    endloop
  endfacet
  facet normal 0 -1 0
    outer loop
      vertex 11.25 0 0
      vertex 18.75 0 200
      vertex 11.25 0 200
    endloop
  endfacet
  facet normal 0 -1 -0
    outer loop
      vertex 18.75 0 200
      vertex 11.25 0 0
      vertex 18.75 0 0
    endloop
  endfacet
  facet normal 0.707107 0.707107 0
    outer loop
      vertex 18.75 0 200
      vertex 11.25 7.5 0
      vertex 11.25 7.5 200
    endloop
  endfacet
  facet normal 0.707107 0.707107 0
    outer loop
      vertex 11.25 7.5 0
      vertex 18.75 0 200
      vertex 18.75 0 0
    endloop
  endfacet
  facet normal 0 0 1
    outer loop
      vertex 11.25 7.5 200
      vertex 11.25 0 200
      vertex 18.75 0 200
    endloop
  endfacet
  facet normal -1 0 0
    outer loop
      vertex 11.25 0 0
      vertex 11.25 7.5 200
      vertex 11.25 7.5 0
    endloop
  endfacet
  facet normal -1 -0 0
    outer loop
      vertex 11.25 7.5 200
      vertex 11.25 0 0
      vertex 11.25 0 200
    endloop
  endfacet
  facet normal 0 0 -1
    outer loop
      vertex 30 0 0
      vertex 22.5 0 0
      vertex 22.5 7.5 0
    endloop
  endfacet
  facet normal 0 -1 0
    outer loop
      vertex 22.5 0 0
      vertex 30 0 200
      vertex 22.5 0 200
    endloop
  endfacet
  facet normal 0 -1 -0
    outer loop
      vertex 30 0 200
      vertex 22.5 0 0
      vertex 30 0 0
    endloop
  endfacet
  facet normal 0.707107 0.707107 0
    outer loop
      vertex 30 0 200
      vertex 22.5 7.5 0
      vertex 22.5 7.5 200
    endloop
  endfacet
  facet normal 0.707107 0.707107 0
    outer loop
      vertex 22.5 7.5 0
      vertex 30 0 200
      vertex 30 0 0
    endloop
  endfacet
  facet normal -1 0 0
    outer loop
      vertex 22.5 0 0
      vertex 22.5 7.5 200
      vertex 22.5 7.5 0
    endloop
  endfacet
  facet normal -1 -0 0
    outer loop
      vertex 22.5 7.5 200
      vertex 22.5 0 0
      vertex 22.5 0 200
    endloop
  endfacet
  facet normal 0 0 1
    outer loop
      vertex 22.5 7.5 200
      vertex 22.5 0 200
      vertex 30 0 200
    endloop
  endfacet
  facet normal 0 0 -1
    outer loop
      vertex 41.25 0 0
      vertex 33.75 0 0
      vertex 33.75 7.5 0
    endloop
  endfacet
  facet normal 0 -1 0
    outer loop
      vertex 33.75 0 0
      vertex 41.25 0 200
      vertex 33.75 0 200
    endloop
  endfacet
  facet normal 0 -1 -0
    outer loop
      vertex 41.25 0 200
      vertex 33.75 0 0
      vertex 41.25 0 0
    endloop
  endfacet
  facet normal 0.707107 0.707107 0
    outer loop
      vertex 41.25 0 200
      vertex 33.75 7.5 0
      vertex 33.75 7.5 200
    endloop
  endfacet
  facet normal 0.707107 0.707107 0
    outer loop
      vertex 33.75 7.5 0
      vertex 41.25 0 200
      vertex 41.25 0 0
    endloop
  endfacet
  facet normal 0 0 1
    outer loop
      vertex 33.75 7.5 200
      vertex 33.75 0 200
      vertex 41.25 0 200
    endloop
  endfacet
  facet normal -1 0 0
    outer loop
      vertex 33.75 0 0
      vertex 33.75 7.5 200
      vertex 33.75 7.5 0
    endloop
  endfacet
  facet normal -1 -0 0
    outer loop
      vertex 33.75 7.5 200
      vertex 33.75 0 0
      vertex 33.75 0 200
    endloop
  endfacet
endsolid OpenSCAD_Model
