solid OpenSCAD_Model
  facet normal 0 0 -1
    outer loop
      vertex 8 0 0
      vertex 0 0 0
      vertex 0 8 0
    endloop
  endfacet
  facet normal 0 -1 0
    outer loop
      vertex 0 0 0
      vertex 8 0 100
      vertex 0 0 100
    endloop
  endfacet
  facet normal 0 -1 -0
    outer loop
      vertex 8 0 100
      vertex 0 0 0
      vertex 8 0 0
    endloop
  endfacet
  facet normal 0.707107 0.707107 0
    outer loop
      vertex 8 0 100
      vertex 0 8 0
      vertex 0 8 100
    endloop
  endfacet
  facet normal 0.707107 0.707107 0
    outer loop
      vertex 0 8 0
      vertex 8 0 100
      vertex 8 0 0
    endloop
  endfacet
  facet normal 0 0 1
    outer loop
      vertex 0 8 100
      vertex 0 0 100
      vertex 8 0 100
    endloop
  endfacet
  facet normal -1 0 0
    outer loop
      vertex 0 0 0
      vertex 0 8 100
      vertex 0 8 0
    endloop
  endfacet
  facet normal -1 -0 0
    outer loop
      vertex 0 8 100
      vertex 0 0 0
      vertex 0 0 100
    endloop
  endfacet
  facet normal 0 0 -1
    outer loop
      vertex 24 0 0
      vertex 16 0 0
      vertex 16 8 0
    endloop
  endfacet
  facet normal 0 -1 0
    outer loop
      vertex 16 0 0
      vertex 24 0 100
      vertex 16 0 100
    endloop
  endfacet
  facet normal 0 -1 -0
    outer loop
      vertex 24 0 100
      vertex 16 0 0
      vertex 24 0 0
    endloop
  endfacet
  facet normal 0.707107 0.707107 0
    outer loop
      vertex 24 0 100
      vertex 16 8 0
      vertex 16 8 100
    endloop
  endfacet
  facet normal 0.707107 0.707107 0
    outer loop
      vertex 16 8 0
      vertex 24 0 100
      vertex 24 0 0
    endloop
  endfacet
  facet normal 0 0 1
    outer loop
      vertex 16 8 100
      vertex 16 0 100
      vertex 24 0 100
    endloop
  endfacet
  facet normal -1 0 0
    outer loop
      vertex 16 0 0
      vertex 16 8 100
      vertex 16 8 0
    endloop
  endfacet
  facet normal -1 -0 0
    outer loop
      vertex 16 8 100
      vertex 16 0 0
      vertex 16 0 100
    endloop
  endfacet
  facet normal 0 0 -1
    outer loop
      vertex 40 0 0
      vertex 32 0 0
      vertex 32 8 0
    endloop
  endfacet
  facet normal 0 -1 0
    outer loop
      vertex 32 0 0
      vertex 40 0 100
      vertex 32 0 100
    endloop
  endfacet
  facet normal 0 -1 -0
    outer loop
      vertex 40 0 100
      vertex 32 0 0
      vertex 40 0 0
    endloop
  endfacet
  facet normal 0.707107 0.707107 0
    outer loop
      vertex 40 0 100
      vertex 32 8 0
      vertex 32 8 100
    endloop
  endfacet
  facet normal 0.707107 0.707107 0
    outer loop
      vertex 32 8 0
      vertex 40 0 100
      vertex 40 0 0
    endloop
  endfacet
  facet normal 0 0 1
    outer loop
      vertex 32 8 100
      vertex 32 0 100
      vertex 40 0 100
    endloop
  endfacet
  facet normal -1 0 0
    outer loop
      vertex 32 0 0
      vertex 32 8 100
      vertex 32 8 0
    endloop
  endfacet
  facet normal -1 -0 0
    outer loop
      vertex 32 8 100
      vertex 32 0 0
      vertex 32 0 100
    endloop
  endfacet
  facet normal 0 0 -1
    outer loop
      vertex 56 0 0
      vertex 48 0 0
      vertex 48 8 0
    endloop
  endfacet
  facet normal 0 -1 0
    outer loop
      vertex 48 0 0
      vertex 56 0 100
      vertex 48 0 100
    endloop
  endfacet
  facet normal 0 -1 -0
    outer loop
      vertex 56 0 100
      vertex 48 0 0
      vertex 56 0 0
    endloop
  endfacet
  facet normal 0.707107 0.707107 0
    outer loop
      vertex 56 0 100
      vertex 48 8 0
      vertex 48 8 100
    endloop
  endfacet
  facet normal 0.707107 0.707107 0
    outer loop
      vertex 48 8 0
      vertex 56 0 100
      vertex 56 0 0
    endloop
  endfacet
  facet normal -1 0 0
    outer loop
      vertex 48 0 0
      vertex 48 8 100
      vertex 48 8 0
    endloop
  endfacet
  facet normal -1 -0 0
    outer loop
      vertex 48 8 100
      vertex 48 0 0
      vertex 48 0 100
    endloop
  endfacet
  facet normal 0 0 1
    outer loop
      vertex 48 8 100
      vertex 48 0 100
      vertex 56 0 100
    endloop
  endfacet
  facet normal 0 0 -1
    outer loop
      vertex 70 0 0
      vertex 64 0 0
      vertex 64 6 0
    endloop
  endfacet
  facet normal 0 -1 0
    outer loop
      vertex 64 0 0
      vertex 70 0 200
      vertex 64 0 200
    endloop
  endfacet
  facet normal 0 -1 -0
    outer loop
      vertex 70 0 200
      vertex 64 0 0
      vertex 70 0 0
    endloop
  endfacet
  facet normal 0.707107 0.707107 0
    outer loop
      vertex 70 0 200
      vertex 64 6 0
      vertex 64 6 200
    endloop
  endfacet
  facet normal 0.707107 0.707107 0
    outer loop
      vertex 64 6 0
      vertex 70 0 200
      vertex 70 0 0
    endloop
  endfacet
  facet normal 0 0 1
    outer loop
      vertex 64 6 200
      vertex 64 0 200
      vertex 70 0 200
    endloop
  endfacet
  facet normal -1 0 0
    outer loop
      vertex 64 0 0
      vertex 64 6 200
      vertex 64 6 0
    endloop
  endfacet
  facet normal -1 -0 0
    outer loop
      vertex 64 6 200
      vertex 64 0 0
      vertex 64 0 200
    endloop
  endfacet
  facet normal 0 0 -1
    outer loop
      vertex 86 0 0
      vertex 80 0 0
      vertex 80 6 0
    endloop
  endfacet
  facet normal 0 -1 0
    outer loop
      vertex 80 0 0
      vertex 86 0 200
      vertex 80 0 200
    endloop
  endfacet
  facet normal 0 -1 -0
    outer loop
      vertex 86 0 200
      vertex 80 0 0
      vertex 86 0 0
    endloop
  endfacet
  facet normal 0.707107 0.707107 0
    outer loop
      vertex 86 0 200
      vertex 80 6 0
      vertex 80 6 200
    endloop
  endfacet
  facet normal 0.707107 0.707107 0
    outer loop
      vertex 80 6 0
      vertex 86 0 200
      vertex 86 0 0
    endloop
  endfacet
  facet normal 0 0 1
    outer loop
      vertex 80 6 200
      vertex 80 0 200
      vertex 86 0 200
    endloop
  endfacet
  facet normal -1 0 0
    outer loop
      vertex 80 0 0
      vertex 80 6 200
      vertex 80 6 0
    endloop
  endfacet
  facet normal -1 -0 0
    outer loop
      vertex 80 6 200
      vertex 80 0 0
      vertex 80 0 200
    endloop
  endfacet
  facet normal 0 0 -1
    outer loop
      vertex 102 0 0
      vertex 96 0 0
      vertex 96 6 0
    endloop
  endfacet
  facet normal 0 -1 0
    outer loop
      vertex 96 0 0
      vertex 102 0 200
      vertex 96 0 200
    endloop
  endfacet
  facet normal 0 -1 -0
    outer loop
      vertex 102 0 200
      vertex 96 0 0
      vertex 102 0 0
    endloop
  endfacet
  facet normal 0.707107 0.707107 0
    outer loop
      vertex 102 0 200
      vertex 96 6 0
      vertex 96 6 200
    endloop
  endfacet
  facet normal 0.707107 0.707107 0
    outer loop
      vertex 96 6 0
      vertex 102 0 200
      vertex 102 0 0
    endloop
  endfacet
  facet normal 0 0 1
    outer loop
      vertex 96 6 200
      vertex 96 0 200
      vertex 102 0 200
    endloop
  endfacet
  facet normal -1 0 0
    outer loop
      vertex 96 0 0
      vertex 96 6 200
      vertex 96 6 0
    endloop
  endfacet
  facet normal -1 -0 0
    outer loop
      vertex 96 6 200
      vertex 96 0 0
      vertex 96 0 200
    endloop
  endfacet
  facet normal 0 0 -1
    outer loop
      vertex 118 0 0
      vertex 112 0 0
      vertex 112 6 0
    endloop
  endfacet
  facet normal 0 -1 0
    outer loop
      vertex 112 0 0
      vertex 118 0 200
      vertex 112 0 200
    endloop
  endfacet
  facet normal 0 -1 -0
    outer loop
      vertex 118 0 200
      vertex 112 0 0
      vertex 118 0 0
    endloop
  endfacet
  facet normal 0.707107 0.707107 0
    outer loop
      vertex 118 0 200
      vertex 112 6 0
      vertex 112 6 200
    endloop
  endfacet
  facet normal 0.707107 0.707107 0
    outer loop
      vertex 112 6 0
      vertex 118 0 200
      vertex 118 0 0
    endloop
  endfacet
  facet normal -1 0 0
    outer loop
      vertex 112 0 0
      vertex 112 6 200
      vertex 112 6 0
    endloop
  endfacet
  facet normal -1 -0 0
    outer loop
      vertex 112 6 200
      vertex 112 0 0
      vertex 112 0 200
    endloop
  endfacet
  facet normal 0 0 1
    outer loop
      vertex 112 6 200
      vertex 112 0 200
      vertex 118 0 200
    endloop
  endfacet
endsolid OpenSCAD_Model
