solid OpenSCAD_Model
  facet normal 0 0 -1
    outer loop
      vertex 10 0 0
      vertex 0 0 0
      vertex 0 10 0
    endloop
  endfacet
  facet normal 0 -1 0
    outer loop
      vertex 0 0 0
      vertex 10 0 100
      vertex 0 0 100
    endloop
  endfacet
  facet normal 0 -1 -0
    outer loop
      vertex 10 0 100
      vertex 0 0 0
      vertex 10 0 0
    endloop
  endfacet
  facet normal 0.707107 0.707107 0
    outer loop
      vertex 10 0 100
      vertex 0 10 0
      vertex 0 10 100
    endloop
  endfacet
  facet normal 0.707107 0.707107 0
    outer loop
      vertex 0 10 0
      vertex 10 0 100
      vertex 10 0 0
    endloop
  endfacet
  facet normal 0 0 1
    outer loop
      vertex 0 10 100
      vertex 0 0 100
      vertex 10 0 100
    endloop
  endfacet
  facet normal -1 0 0
    outer loop
      vertex 0 0 0
      vertex 0 10 100
      vertex 0 10 0
    endloop
  endfacet
  facet normal -1 -0 0
    outer loop
      vertex 0 10 100
      vertex 0 0 0
      vertex 0 0 100
    endloop
  endfacet
  facet normal 0 0 -1
    outer loop
      vertex 25 0 0
      vertex 15 0 0
      vertex 15 10 0
    endloop
  endfacet
  facet normal 0 -1 0
    outer loop
      vertex 15 0 0
      vertex 25 0 100
      vertex 15 0 100
    endloop
  endfacet
  facet normal 0 -1 -0
    outer loop
      vertex 25 0 100
      vertex 15 0 0
      vertex 25 0 0
    endloop
  endfacet
  facet normal 0.707107 0.707107 0
    outer loop
      vertex 25 0 100
      vertex 15 10 0
      vertex 15 10 100
    endloop
  endfacet
  facet normal 0.707107 0.707107 0
    outer loop
      vertex 15 10 0
      vertex 25 0 100
      vertex 25 0 0
    endloop
  endfacet
  facet normal 0 0 1
    outer loop
      vertex 15 10 100
      vertex 15 0 100
      vertex 25 0 100
    endloop
  endfacet
  facet normal -1 0 0
    outer loop
      vertex 15 0 0
      vertex 15 10 100
      vertex 15 10 0
    endloop
  endfacet
  facet normal -1 -0 0
    outer loop
      vertex 15 10 100
      vertex 15 0 0
      vertex 15 0 100
    endloop
  endfacet
  facet normal 0 0 -1
    outer loop
      vertex 40 0 0
      vertex 30 0 0
      vertex 30 10 0
    endloop
  endfacet
  facet normal 0 -1 0
    outer loop
      vertex 30 0 0
      vertex 40 0 100
      vertex 30 0 100
    endloop
  endfacet
  facet normal 0 -1 -0
    outer loop
      vertex 40 0 100
      vertex 30 0 0
      vertex 40 0 0
    endloop
  endfacet
  facet normal 0.707107 0.707107 0
    outer loop
      vertex 40 0 100
      vertex 30 10 0
      vertex 30 10 100
    endloop
  endfacet
  facet normal 0.707107 0.707107 0
    outer loop
      vertex 30 10 0
      vertex 40 0 100
      vertex 40 0 0
    endloop
  endfacet
  facet normal -1 0 0
    outer loop
      vertex 30 0 0
      vertex 30 10 100
      vertex 30 10 0
    endloop
  endfacet
  facet normal -1 -0 0
    outer loop
      vertex 30 10 100
      vertex 30 0 0
      vertex 30 0 100
    endloop
  endfacet
  facet normal 0 0 1
    outer loop
      vertex 30 10 100
      vertex 30 0 100
      vertex 40 0 100
    endloop
  endfacet
  facet normal 0 0 -1
    outer loop
      vertex 55 0 0
      vertex 45 0 0
      vertex 45 10 0
    endloop
  endfacet
  facet normal 0 -1 0
    outer loop
      vertex 45 0 0
      vertex 55 0 100
      vertex 45 0 100
    endloop
  endfacet
  facet normal 0 -1 -0
    outer loop
      vertex 55 0 100
      vertex 45 0 0
      vertex 55 0 0
    endloop
  endfacet
  facet normal 0.707107 0.707107 0
    outer loop
      vertex 55 0 100
      vertex 45 10 0
      vertex 45 10 100
    endloop
  endfacet
  facet normal 0.707107 0.707107 0
    outer loop
      vertex 45 10 0
      vertex 55 0 100
      vertex 55 0 0
    endloop
  endfacet
  facet normal 0 0 1
    outer loop
      vertex 45 10 100
      vertex 45 0 100
      vertex 55 0 100
    endloop
  endfacet
  facet normal -1 0 0
    outer loop
      vertex 45 0 0
      vertex 45 10 100
      vertex 45 10 0
    endloop
  endfacet
  facet normal -1 -0 0
    outer loop
      vertex 45 10 100
      vertex 45 0 0
      vertex 45 0 100
    endloop
  endfacet
endsolid OpenSCAD_Model
