solid OpenSCAD_Model
  facet normal -0 0 1
    outer loop
      vertex 0 60 10
      vertex 200 0 10
      vertex 200 60 10
    endloop
  endfacet
  facet normal 0 0 1
    outer loop
      vertex 200 0 10
      vertex 0 60 10
      vertex 0 0 10
    endloop
  endfacet
  facet normal 0 0 -1
    outer loop
      vertex 0 0 0
      vertex 200 60 0
      vertex 200 0 0
    endloop
  endfacet
  facet normal -0 0 -1
    outer loop
      vertex 200 60 0
      vertex 0 0 0
      vertex 0 60 0
    endloop
  endfacet
  facet normal 0 -1 0
    outer loop
      vertex 0 0 0
      vertex 200 0 10
      vertex 0 0 10
    endloop
  endfacet
  facet normal 0 -1 -0
    outer loop
      vertex 200 0 10
      vertex 0 0 0
      vertex 200 0 0
    endloop
  endfacet
  facet normal 1 -0 0
    outer loop
      vertex 200 0 10
      vertex 200 60 0
      vertex 200 60 10
    endloop
  endfacet
  facet normal 1 0 0
    outer loop
      vertex 200 60 0
      vertex 200 0 10
      vertex 200 0 0
    endloop
  endfacet
  facet normal 0 1 -0
    outer loop
      vertex 200 60 0
      vertex 0 60 10
      vertex 200 60 10
    endloop
  endfacet
  facet normal 0 1 0
    outer loop
      vertex 0 60 10
      vertex 200 60 0
      vertex 0 60 0
    endloop
  endfacet
  facet normal -1 0 0
    outer loop
      vertex 0 0 0
      vertex 0 60 10
      vertex 0 60 0
    endloop
  endfacet
  facet normal -1 -0 0
    outer loop
      vertex 0 60 10
      vertex 0 0 0
      vertex 0 0 10
    endloop
  endfacet
endsolid OpenSCAD_Model
