solid OpenSCAD_Model
  facet normal 0 0 -1
    outer loop
      vertex 180 60 0
      vertex 348.995 0 0
      vertex 180 0 0
    endloop
  endfacet
  facet normal 0 0 -1
    outer loop
      vertex 348.995 0 0
      vertex 180 60 0
      vertex 190 90 0
    endloop
  endfacet
  facet normal 0 0 -1
    outer loop
      vertex 190 90 0
      vertex 180 60 0
      vertex 170 70 0
    endloop
  endfacet
  facet normal 0 0 -1
    outer loop
      vertex 180 168.995 0
      vertex 190 90 0
      vertex 180 100 0
    endloop
  endfacet
  facet normal 0 0 -1
    outer loop
      vertex 190 90 0
      vertex 180 168.995 0
      vertex 348.995 0 0
    endloop
  endfacet
  facet normal 0.707107 0.707107 0
    outer loop
      vertex 348.995 0 20
      vertex 180 168.995 0
      vertex 180 168.995 20
    endloop
  endfacet
  facet normal 0.707107 0.707107 0
    outer loop
      vertex 180 168.995 0
      vertex 348.995 0 20
      vertex 348.995 0 0
    endloop
  endfacet
  facet normal 0 -1 0
    outer loop
      vertex 180 0 0
      vertex 348.995 0 20
      vertex 180 0 20
    endloop
  endfacet
  facet normal 0 -1 -0
    outer loop
      vertex 348.995 0 20
      vertex 180 0 0
      vertex 348.995 0 0
    endloop
  endfacet
  facet normal 0 0 1
    outer loop
      vertex 190 90 20
      vertex 170 70 20
      vertex 180 60 20
    endloop
  endfacet
  facet normal 0 0 1
    outer loop
      vertex 180 168.995 20
      vertex 190 90 20
      vertex 348.995 0 20
    endloop
  endfacet
  facet normal 0 0 1
    outer loop
      vertex 190 90 20
      vertex 180 168.995 20
      vertex 180 100 20
    endloop
  endfacet
  facet normal -0 0 1
    outer loop
      vertex 180 60 20
      vertex 348.995 0 20
      vertex 190 90 20
    endloop
  endfacet
  facet normal 0 0 1
    outer loop
      vertex 348.995 0 20
      vertex 180 60 20
      vertex 180 0 20
    endloop
  endfacet
  facet normal -1 0 0
    outer loop
      vertex 180 100 0
      vertex 180 168.995 20
      vertex 180 168.995 0
    endloop
  endfacet
  facet normal -1 -0 0
    outer loop
      vertex 180 168.995 20
      vertex 180 100 0
      vertex 180 100 20
    endloop
  endfacet
  facet normal -0.707107 -0.707107 0
    outer loop
      vertex 190 90 0
      vertex 180 100 20
      vertex 180 100 0
    endloop
  endfacet
  facet normal -0.707107 -0.707107 0
    outer loop
      vertex 180 100 20
      vertex 190 90 0
      vertex 190 90 20
    endloop
  endfacet
  facet normal -0.707107 0.707107 0
    outer loop
      vertex 170 70 0
      vertex 190 90 20
      vertex 190 90 0
    endloop
  endfacet
  facet normal -0.707107 0.707107 0
    outer loop
      vertex 190 90 20
      vertex 170 70 0
      vertex 170 70 20
    endloop
  endfacet
  facet normal -0.707107 -0.707107 0
    outer loop
      vertex 180 60 0
      vertex 170 70 20
      vertex 170 70 0
    endloop
  endfacet
  facet normal -0.707107 -0.707107 0
    outer loop
      vertex 170 70 20
      vertex 180 60 0
      vertex 180 60 20
    endloop
  endfacet
  facet normal -1 0 0
    outer loop
      vertex 180 0 0
      vertex 180 60 20
      vertex 180 60 0
    endloop
  endfacet
  facet normal -1 -0 0
    outer loop
      vertex 180 60 20
      vertex 180 0 0
      vertex 180 0 20
    endloop
  endfacet
endsolid OpenSCAD_Model
