<svg height="238.25342" id="svg2" inkscape:version="0.92.4 (unknown)" sodipodi:docname="w.svg" version="1.1" viewBox="0 0 589.97552 223.36258" width="629.30725" xmlns="http://www.w3.org/2000/svg" xmlns:cc="http://creativecommons.org/ns#" xmlns:dc="http://purl.org/dc/elements/1.1/" xmlns:inkscape="http://www.inkscape.org/namespaces/inkscape" xmlns:rdf="http://www.w3.org/1999/02/22-rdf-syntax-ns#" xmlns:sodipodi="http://sodipodi.sourceforge.net/DTD/sodipodi-0.dtd" xmlns:svg="http://www.w3.org/2000/svg" xmlns:xlink="http://www.w3.org/1999/xlink">
  <sodipodi:namedview bordercolor="#666666" borderopacity="1.0" fit-margin-bottom="0.1" fit-margin-left="0.1" fit-margin-right="0.1" fit-margin-top="0.1" id="base" inkscape:bbox-nodes="false" inkscape:current-layer="layer1" inkscape:cx="443.38463" inkscape:cy="121.14083" inkscape:document-units="px" inkscape:guide-bbox="true" inkscape:object-nodes="true" inkscape:object-paths="true" inkscape:pageopacity="0.0" inkscape:pageshadow="2" inkscape:snap-bbox="false" inkscape:snap-bbox-edge-midpoints="false" inkscape:snap-bbox-midpoints="false" inkscape:snap-center="false" inkscape:snap-global="false" inkscape:snap-grids="true" inkscape:snap-intersection-paths="false" inkscape:snap-midpoints="false" inkscape:snap-nodes="true" inkscape:snap-object-midpoints="false" inkscape:snap-page="false" inkscape:snap-smooth-nodes="false" inkscape:snap-to-guides="false" inkscape:window-height="979" inkscape:window-maximized="0" inkscape:window-width="1363" inkscape:window-x="592" inkscape:window-y="236" inkscape:zoom="1.5462592" pagecolor="#ffffff" showgrid="true" showguides="true" units="in">
    <inkscape:grid empspacing="5" enabled="true" id="grid2985" originx="-170.06506" originy="-638.05742" snapvisiblegridlinesonly="true" spacingx="8.9999996" spacingy="9" type="xygrid" units="in" visible="true"/>
    <sodipodi:guide id="guide3042" inkscape:locked="false" orientation="0,765" position="-170.06506,-638.05741"/>
    <sodipodi:guide id="guide3044" inkscape:locked="false" orientation="-990,0" position="594.93493,-638.05741"/>
    <sodipodi:guide id="guide3046" inkscape:locked="false" orientation="0,-765" position="594.93493,351.94257"/>
    <sodipodi:guide id="guide3048" inkscape:locked="false" orientation="990,0" position="-170.06506,351.94257"/>
    <sodipodi:guide id="guide3050" inkscape:locked="false" orientation="0,765" position="549.93493,-593.05741"/>
    <sodipodi:guide id="guide3052" inkscape:locked="false" orientation="-990,0" position="549.93493,261.94257"/>
    <sodipodi:guide id="guide3054" inkscape:locked="false" orientation="0,-765" position="-107.06506,261.94257"/>
    <sodipodi:guide id="guide3056" inkscape:locked="false" orientation="990,0" position="-80.065064,288.94257"/>
    <sodipodi:guide id="guide7083" inkscape:locked="false" orientation="0,1" position="110.51072,99.945503"/>
    <sodipodi:guide id="guide7085" inkscape:locked="false" orientation="0,1" position="107.4492,94.950386"/>
    <sodipodi:guide id="guide7087" inkscape:locked="false" orientation="0,1" position="96.653299,27.596873"/>
    <sodipodi:guide id="guide7089" inkscape:locked="false" orientation="0,1" position="85.535139,22.601757"/>
    <sodipodi:guide id="guide7117" inkscape:locked="false" orientation="0,1" position="158.26997,90.579664"/>
    <sodipodi:guide id="guide7119" inkscape:locked="false" orientation="0,1" position="163.739,33.154862"/>
    <sodipodi:guide id="guide7121" inkscape:locked="false" orientation="1,0" position="294.08417,104.70799"/>
    <sodipodi:guide id="guide7123" inkscape:locked="false" orientation="1,0" position="331.00012,76.907091"/>
  </sodipodi:namedview>
  <script id="script3033" xlink:href=""/>
  <defs id="defs4">
    <marker id="Arrow1Mstart" inkscape:stockid="Arrow1Mstart" orient="auto" refX="0" refY="0" style="overflow:visible">
      <path d="M 0,0 5,-5 -12.5,0 5,5 Z" id="path5375" inkscape:connector-curvature="0" style="fill-rule:evenodd;stroke:#000000;stroke-width:1.00000003pt" transform="matrix(0.4,0,0,0.4,4,0)"/>
    </marker>
    <marker id="Arrow1Lstart" inkscape:stockid="Arrow1Lstart" orient="auto" refX="0" refY="0" style="overflow:visible">
      <path d="M 0,0 5,-5 -12.5,0 5,5 Z" id="path5369" inkscape:connector-curvature="0" style="fill-rule:evenodd;stroke:#000000;stroke-width:1.00000003pt" transform="matrix(0.8,0,0,0.8,10,0)"/>
    </marker>
    <marker id="Arrow1Mend" inkscape:stockid="Arrow1Mend" orient="auto" refX="0" refY="0" style="overflow:visible">
      <path d="M 0,0 5,-5 -12.5,0 5,5 Z" id="path7139" inkscape:connector-curvature="0" style="fill-rule:evenodd;stroke:#000000;stroke-width:1.00000003pt;marker-start:none" transform="matrix(-0.4,0,0,-0.4,-4,0)"/>
    </marker>
    <marker id="Arrow2Lend" inkscape:stockid="Arrow2Lend" orient="auto" refX="0" refY="0" style="overflow:visible">
      <path d="M 8.7185878,4.0337352 -2.2072895,0.01601326 8.7185884,-4.0017078 c -1.7454984,2.3720609 -1.7354408,5.6174519 -6e-7,8.035443 z" id="path7151" inkscape:connector-curvature="0" style="font-size:12px;fill-rule:evenodd;stroke-width:0.625;stroke-linejoin:round" transform="matrix(-1.1,0,0,-1.1,-1.1,0)"/>
    </marker>
    <!-- markers by NMH <nholtz@cee.carleton.ca> -->
    <marker id="DimensionTick" inkscape:stockid="DimensionTick" orient="auto" refX="0" refY="0" style="overflow:visible">
      <path d="M 0,0 8,8" id="path6" inkscape:connector-curvature="0" style="stroke:#4d4d4d;stroke-width:1px;marker-start:none" transform="translate(-4,-4)"/>
    </marker>
    <marker id="TrussNodeS" inkscape:stockid="TrussNodeS" markerUnits="userSpaceOnUse" orient="auto" refX="0" refY="0" style="overflow:visible">
      <circle cx="0" cy="0" id="circle9" r="3" style="fill:#ffffff;stroke:#000000;stroke-width:1"/>
    </marker>
    <marker id="TrussNodeM" inkscape:stockid="TrussNodeM" markerUnits="userSpaceOnUse" orient="auto" refX="0" refY="0" style="overflow:visible">
      <circle cx="0" cy="0" id="circle12" r="4" style="fill:#ffffff;stroke:#000000;stroke-width:1"/>
    </marker>
  </defs>
  <metadata id="metadata7">
    <rdf:RDF>
      <cc:Work rdf:about="">
        <dc:format>image/svg+xml</dc:format>
        <dc:type rdf:resource="http://purl.org/dc/dcmitype/StillImage"/>
        <dc:title/>
        <cc:license rdf:resource="http://creativecommons.org/licenses/by-nc/3.0/"/>
      </cc:Work>
      <cc:License rdf:about="http://creativecommons.org/licenses/by-nc/3.0/">
        <cc:permits rdf:resource="http://creativecommons.org/ns#Reproduction"/>
        <cc:permits rdf:resource="http://creativecommons.org/ns#Distribution"/>
        <cc:requires rdf:resource="http://creativecommons.org/ns#Notice"/>
        <cc:requires rdf:resource="http://creativecommons.org/ns#Attribution"/>
        <cc:prohibits rdf:resource="http://creativecommons.org/ns#CommercialUse"/>
        <cc:permits rdf:resource="http://creativecommons.org/ns#DerivativeWorks"/>
      </cc:License>
    </rdf:RDF>
  </metadata>
  <g id="layer1" inkscape:groupmode="layer" inkscape:label="Layer 1" transform="translate(-170.06506,-190.94199)">
    <rect height="10.975238" id="rect3113" style="fill:#666666;fill-opacity:1;stroke:none" width="3.772738" x="673.78278" y="261.45151"/>
    <rect height="10.975238" id="rect5349" style="fill:#666666;fill-opacity:1;stroke:none" width="3.772738" x="746.10614" y="261.45151"/>
    <rect height="10.975238" id="rect5351" style="fill:#666666;fill-opacity:1;stroke:none" width="3.772738" x="673.78278" y="211.77487"/>
    <rect height="10.975238" id="rect5353" style="fill:#666666;fill-opacity:1;stroke:none" width="3.772738" x="746.10614" y="211.77487"/>
    <text id="text3091" style="font-style:normal;font-variant:normal;font-weight:normal;font-stretch:normal;line-height:0%;font-family:Verdana;-inkscape-font-specification:Verdana;text-align:start;letter-spacing:0px;word-spacing:0px;writing-mode:lr-tb;text-anchor:start;fill:#000000;fill-opacity:1;stroke:none" x="555.375" xml:space="preserve" y="207.36386"><tspan id="tspan3093" sodipodi:role="line" style="font-size:10px;line-height:1.25" x="555.375" y="207.36386">W250x67</tspan></text>
    <text id="text3099" style="font-style:normal;font-variant:normal;font-weight:normal;font-stretch:normal;line-height:0%;font-family:Verdana;-inkscape-font-specification:Verdana;text-align:start;letter-spacing:0px;word-spacing:0px;writing-mode:lr-tb;text-anchor:start;fill:#000000;fill-opacity:1;stroke:none" x="178.0885" xml:space="preserve" y="333.26465"><tspan id="tspan3101" sodipodi:role="line" style="font-size:10px;line-height:1.25" x="178.0885" y="333.26465">PL8x190x310</tspan></text>
    <path d="m 395.38921,238.44332 h 6.303 v 7.96372 h -6.303 z" id="path3934" inkscape:connector-curvature="0" style="fill:#808080;stroke:none"/>
    <path d="m 420.74467,238.60445 h 6.303 v 7.88316 h -6.303 z" id="path3936" inkscape:connector-curvature="0" style="fill:#808080;stroke:none"/>
    <path d="m 446.10013,238.36276 h 6.303 v 7.96372 h -6.303 z" id="path3938" inkscape:connector-curvature="0" style="fill:#808080;stroke:none"/>
    <path d="m 370.03375,238.36276 h 6.303 v 8.12485 h -6.303 z" id="path3932" inkscape:connector-curvature="0" style="fill:#808080;stroke:none"/>
    <g id="g3159" transform="translate(126.64454)">
      <path d="m 233.63886,211.77186 141.21466,-0.20088" id="path3133" inkscape:connector-curvature="0" style="fill:#4d4d4d;fill-opacity:1;fill-rule:nonzero;stroke:#000000"/>
      <path d="M 233.63886,272.97186 H 375.17578" id="path3135" inkscape:connector-curvature="0" style="fill:#4d4d4d;fill-opacity:1;fill-rule:nonzero;stroke:#000000;stroke-width:0.99000001;stroke-linecap:square;stroke-linejoin:miter;stroke-miterlimit:4;stroke-dasharray:none;stroke-dashoffset:0;stroke-opacity:1"/>
      <path d="m 233.63886,149.40986 v 61.2" id="path3137" inkscape:connector-curvature="0" style="fill:#4d4d4d;fill-opacity:1;fill-rule:nonzero;stroke:#000000;stroke-width:0.99000001;stroke-linecap:square;stroke-linejoin:miter;stroke-miterlimit:4;stroke-dasharray:none;stroke-dashoffset:0;stroke-opacity:1" transform="translate(0,62.362)"/>
      <g id="g3149">
        <path d="m 415,223.02072 h 70.97656" id="path3141" inkscape:connector-curvature="0" sodipodi:nodetypes="cc" style="fill:#4d4d4d;fill-opacity:1;fill-rule:nonzero;stroke:#000000;stroke-width:0.99000001;stroke-linecap:square;stroke-linejoin:miter;stroke-miterlimit:4;stroke-dasharray:none;stroke-dashoffset:0;stroke-opacity:1"/>
        <path d="M 465.97924,184.65677 A 75.893555,75.893555 0 0 1 425.80933,173.44443" id="path3145" sodipodi:cx="465.5127" sodipodi:cy="108.76465" sodipodi:end="2.1213338" sodipodi:open="true" sodipodi:rx="75.893555" sodipodi:ry="75.893555" sodipodi:start="1.5646489" sodipodi:type="arc" style="fill:none;stroke:#000000;stroke-width:0.99000001;stroke-linecap:square;stroke-linejoin:miter;stroke-miterlimit:4;stroke-dasharray:none;stroke-dashoffset:0;stroke-opacity:1" transform="translate(-50.644532,38.362)"/>
      </g>
      <g id="g3153" transform="matrix(1,0,0,-1,0,484.66602)">
        <path d="m 415,223.02072 h 70.97656" id="path3155" inkscape:connector-curvature="0" sodipodi:nodetypes="cc" style="fill:#4d4d4d;fill-opacity:1;fill-rule:nonzero;stroke:#000000;stroke-width:0.99000001;stroke-linecap:square;stroke-linejoin:miter;stroke-miterlimit:4;stroke-dasharray:none;stroke-dashoffset:0;stroke-opacity:1"/>
        <path d="M 465.97924,184.65677 A 75.893555,75.893555 0 0 1 425.80933,173.44443" id="path3157" sodipodi:cx="465.5127" sodipodi:cy="108.76465" sodipodi:end="2.1213338" sodipodi:open="true" sodipodi:rx="75.893555" sodipodi:ry="75.893555" sodipodi:start="1.5646489" sodipodi:type="arc" style="fill:none;stroke:#000000;stroke-width:0.99000001;stroke-linecap:square;stroke-linejoin:miter;stroke-miterlimit:4;stroke-dasharray:none;stroke-dashoffset:0;stroke-opacity:1" transform="translate(-50.644532,38.362)"/>
      </g>
    </g>
    <path d="M 360,241.2226 H 612" id="path3108" inkscape:connector-curvature="0" style="fill:#000000;fill-opacity:1;fill-rule:nonzero;stroke:#000000;stroke-width:0.5;stroke-linecap:square;stroke-linejoin:miter;stroke-miterlimit:4;stroke-dasharray:0.5, 2;stroke-dashoffset:0;stroke-opacity:1"/>
    <path d="M 360,243.5014 H 612" id="path3896" inkscape:connector-curvature="0" style="fill:#000000;fill-opacity:1;fill-rule:nonzero;stroke:#000000;stroke-width:0.5;stroke-linecap:square;stroke-linejoin:miter;stroke-miterlimit:4;stroke-dasharray:0.5, 2;stroke-dashoffset:0;stroke-opacity:1"/>
    <path d="M 360.25674,238.6174 H 461.6772" id="path3898" inkscape:connector-curvature="0" sodipodi:nodetypes="cc" style="fill:none;stroke:#000000;stroke-width:0.5;stroke-linecap:square;stroke-linejoin:miter;stroke-miterlimit:4;stroke-dasharray:0.5, 2;stroke-dashoffset:0;stroke-opacity:1"/>
    <path d="M 360.02887,246.12037 H 461.44932" id="path3902" inkscape:connector-curvature="0" sodipodi:nodetypes="cc" style="fill:none;stroke:#000000;stroke-width:0.5;stroke-linecap:square;stroke-linejoin:miter;stroke-miterlimit:4;stroke-dasharray:0.5, 2;stroke-dashoffset:0;stroke-opacity:1"/>
    <path d="m 461.6772,238.6174 h 2.96239 v 2.6052" id="path3906" inkscape:connector-curvature="0" style="fill:none;stroke:#000000;stroke-width:0.5;stroke-linecap:square;stroke-linejoin:miter;stroke-miterlimit:4;stroke-dasharray:0.5, 2;stroke-dashoffset:0;stroke-opacity:1"/>
    <path d="m 461.44932,246.12037 h 3.30421 v -2.61897" id="path3908" inkscape:connector-curvature="0" style="fill:none;stroke:#000000;stroke-width:0.5;stroke-linecap:square;stroke-linejoin:miter;stroke-miterlimit:4;stroke-dasharray:0.5, 2;stroke-dashoffset:0;stroke-opacity:1"/>
    <path d="m 398.85707,206.48551 v 71.09738" id="path3910" inkscape:connector-curvature="0" style="fill:#000000;fill-opacity:1;fill-rule:nonzero;stroke:#808080;stroke-width:0.5;stroke-linecap:square;stroke-linejoin:miter;stroke-miterlimit:4;stroke-dasharray:none;stroke-dashoffset:0;stroke-opacity:1"/>
    <path d="m 424.11442,206.48551 v 71.09738" id="path3912" inkscape:connector-curvature="0" style="fill:#000000;fill-opacity:1;fill-rule:nonzero;stroke:#808080;stroke-width:0.5;stroke-linecap:square;stroke-linejoin:miter;stroke-miterlimit:4;stroke-dasharray:none;stroke-dashoffset:0;stroke-opacity:1"/>
    <path d="m 449.3718,206.48551 v 71.09738" id="path3914" inkscape:connector-curvature="0" style="fill:#000000;fill-opacity:1;fill-rule:nonzero;stroke:#808080;stroke-width:0.5;stroke-linecap:square;stroke-linejoin:miter;stroke-miterlimit:4;stroke-dasharray:none;stroke-dashoffset:0;stroke-opacity:1"/>
    <path d="m 373.59968,206.48551 v 71.09738" id="path3916" inkscape:connector-curvature="0" style="fill:#000000;fill-opacity:1;fill-rule:nonzero;stroke:#808080;stroke-width:0.5;stroke-linecap:square;stroke-linejoin:miter;stroke-miterlimit:4;stroke-dasharray:none;stroke-dashoffset:0;stroke-opacity:1"/>
    <path d="m 612.94924,219.95966 v 20.93749 l 6.3125,1.61133 -10.69141,2.51172 4.70117,1.61133 V 264.612" id="path3956" inkscape:connector-curvature="0" sodipodi:nodetypes="cccccc" style="fill:none;stroke:#666666;stroke-width:0.5;stroke-linecap:square;stroke-linejoin:miter;stroke-miterlimit:4;stroke-dasharray:none;stroke-dashoffset:0;stroke-opacity:1"/>
    <path d="M 505.82032,210.60986 H 638.73701" id="path4053" inkscape:connector-curvature="0" sodipodi:nodetypes="cc" style="fill:none;stroke:#4d4d4d;stroke-width:0.75;stroke-linecap:square;stroke-linejoin:miter;stroke-miterlimit:4;stroke-dasharray:none;stroke-dashoffset:0;stroke-opacity:1" transform="translate(0,62.362)"/>
    <path d="m 614.6211,199.2833 h 24.57167" id="path4055" inkscape:connector-curvature="0" sodipodi:nodetypes="cc" style="fill:none;stroke:#4d4d4d;stroke-width:0.75;stroke-linecap:square;stroke-linejoin:miter;stroke-miterlimit:4;stroke-dasharray:none;stroke-dashoffset:0;stroke-opacity:1" transform="translate(0,62.362)"/>
    <path d="M 629.84984,234.60986 V 210.66337 199.2833" id="path4057" inkscape:connector-curvature="0" sodipodi:nodetypes="ccc" style="fill:none;stroke:#4d4d4d;stroke-width:0.75;stroke-linecap:square;stroke-linejoin:miter;stroke-miterlimit:4;stroke-dasharray:none;stroke-dashoffset:0;stroke-opacity:1;marker-start:none;marker-mid:url(#DimensionTick);marker-end:url(#DimensionTick)" transform="translate(0,62.362)"/>
    <text id="text4431" style="font-style:normal;font-variant:normal;font-weight:normal;font-stretch:normal;line-height:0%;font-family:Verdana;-inkscape-font-specification:Verdana;text-align:start;letter-spacing:0px;word-spacing:0px;writing-mode:lr-tb;text-anchor:start;fill:#000000;fill-opacity:1;stroke:none" transform="rotate(-90)" x="-292.47833" xml:space="preserve" y="627.54181"><tspan id="tspan4433" sodipodi:role="line" style="font-size:10px;line-height:1.25" x="-292.47833" y="627.54181">40</tspan></text>
    <path d="m 247.25892,329.85055 h 4.32964 l 20.36401,28.77353" id="path7125" inkscape:connector-curvature="0" sodipodi:nodetypes="ccc" style="fill:none;stroke:#000000;stroke-width:0.5;stroke-linecap:square;stroke-linejoin:miter;stroke-miterlimit:4;stroke-dasharray:none;stroke-dashoffset:0;stroke-opacity:1;marker-end:url(#Arrow1Mend)"/>
    <path d="m 553.00781,141.15234 h -21.91406 l -12.56836,14.82422" id="path7961" inkscape:connector-curvature="0" style="fill:none;stroke:#000000;stroke-width:0.5;stroke-linecap:square;stroke-linejoin:miter;stroke-miterlimit:4;stroke-dasharray:none;stroke-dashoffset:0;stroke-opacity:1;marker-end:url(#Arrow1Mend)" transform="translate(0,62.362)"/>
    <path d="M 288.03552,754.97345 539.15509,754.2041" id="path7091" inkscape:connector-curvature="0" style="fill:none;stroke:#000000;stroke-width:1px;stroke-linecap:butt;stroke-linejoin:miter;stroke-opacity:1" transform="translate(72.069939,-439.84504)"/>
    <path d="M 287.80764,759.19922 H 540.0666" id="path7093" inkscape:connector-curvature="0" sodipodi:nodetypes="cc" style="fill:none;stroke:#000000;stroke-width:1px;stroke-linecap:butt;stroke-linejoin:miter;stroke-opacity:1" transform="translate(72.069939,-439.84504)"/>
    <path d="M 288.10546,826.55273 H 540.11717" id="path7095" inkscape:connector-curvature="0" style="fill:none;stroke:#000000;stroke-width:1px;stroke-linecap:butt;stroke-linejoin:miter;stroke-opacity:1" transform="translate(72.069939,-439.84504)"/>
    <path d="M 287.78319,831.54785 H 540.11717" id="path7097" inkscape:connector-curvature="0" style="fill:none;stroke:#000000;stroke-width:1px;stroke-linecap:butt;stroke-linejoin:miter;stroke-opacity:1" transform="translate(72.069939,-439.84504)"/>
    <path d="m 288.03552,754.97345 -0.25233,76.5744" id="path7099" inkscape:connector-curvature="0" style="fill:none;stroke:#000000;stroke-width:1px;stroke-linecap:butt;stroke-linejoin:miter;stroke-opacity:1" transform="translate(72.069939,-439.84504)"/>
    <path d="m 246.38917,391.47529 61.1998,0.1584 0.008,-3.07999 a 1.629999,1.629999 0 0 0 -1.62578,-1.63422 l -22.74493,-0.0589 a 4.89,4.89 0 0 1 -4.87733,-4.90264 l 0.14987,-57.89981 a 4.89,4.89 0 0 1 4.90264,-4.87732 l 22.74493,0.0589 a 1.629999,1.629999 0 0 0 1.63422,-1.62578 l 0.008,-3.08 -61.1998,-0.1584 -0.008,3.07999 a 1.629999,1.629999 0 0 0 1.62578,1.63422 l 22.74493,0.0589 a 4.89,4.89 0 0 1 4.87733,4.90264 l -0.14987,57.89981 a 4.89,4.89 0 0 1 -4.90264,4.87732 l -22.74493,-0.0589 a 1.629999,1.629999 0 0 0 -1.63422,1.62578 z" id="path7101" inkscape:connector-curvature="0" style="fill:none;stroke:#000000;stroke-width:0.99000001;stroke-linecap:square;stroke-linejoin:miter;stroke-miterlimit:4;stroke-dasharray:none;stroke-dashoffset:0;stroke-opacity:1"/>
    <path d="m 278.36437,381.20356 2.4,0.006 0.14753,-56.99981 -2.39999,-0.006 z" id="path7103" inkscape:connector-curvature="0" style="fill:none;stroke:#000000;stroke-width:0.99000001;stroke-linecap:square;stroke-linejoin:miter;stroke-miterlimit:4;stroke-dasharray:none;stroke-dashoffset:0;stroke-opacity:1"/>
    <path d="m 273.26142,381.19035 2.39999,0.006 0.14754,-56.99981 -2.39999,-0.006 z" id="path7105" inkscape:connector-curvature="0" style="fill:none;stroke:#000000;stroke-width:0.99000001;stroke-linecap:square;stroke-linejoin:miter;stroke-miterlimit:4;stroke-dasharray:none;stroke-dashoffset:0;stroke-opacity:1"/>
    <path d="m 272.84436,338.04867 0.0163,-6.30298 8.36456,0.0217 -0.0163,6.30297 z" id="path7107" inkscape:connector-curvature="0" style="fill:#4d4d4d;stroke:none"/>
    <path d="m 272.9806,373.44914 0.0163,-6.30297 8.1367,0.0211 -0.0163,6.30298 z" id="path7109" inkscape:connector-curvature="0" style="fill:#4d4d4d;stroke:none"/>
    <path d="m 612.94924,219.95966 v 20.93749 l 6.3125,1.61133 -10.69141,2.51172 4.70117,1.61133 V 264.612" id="path7111" inkscape:connector-curvature="0" sodipodi:nodetypes="cccccc" style="fill:none;stroke:#666666;stroke-width:0.5;stroke-linecap:square;stroke-linejoin:miter;stroke-miterlimit:4;stroke-dasharray:none;stroke-dashoffset:0;stroke-opacity:1"/>
    <path d="m 612.94924,219.95966 v 20.93749 l 6.3125,1.61133 -10.69141,2.51172 4.70117,1.61133 V 264.612" id="path7113" inkscape:connector-curvature="0" sodipodi:nodetypes="cccccc" style="fill:none;stroke:#666666;stroke-width:0.5;stroke-linecap:square;stroke-linejoin:miter;stroke-miterlimit:4;stroke-dasharray:none;stroke-dashoffset:0;stroke-opacity:1"/>
    <path d="m 610.94924,309.95966 v 34.15431 l 6.3125,1.61133 -10.69141,2.51172 4.70117,1.61133 0.45986,49.60225" id="path7115" inkscape:connector-curvature="0" sodipodi:nodetypes="cccccc" style="fill:none;stroke:#666666;stroke-width:0.5;stroke-linecap:square;stroke-linejoin:miter;stroke-miterlimit:4;stroke-dasharray:none;stroke-dashoffset:0;stroke-opacity:1"/>
    <path d="m 167.90039,147.03092 104.18379,-0.13416 v 57.4248 l -104.25734,0.39891" id="path7126" inkscape:connector-curvature="0" sodipodi:nodetypes="cccc" style="fill:none;stroke:#000000;stroke-width:1px;stroke-linecap:butt;stroke-linejoin:miter;stroke-opacity:1" transform="translate(192.06506,176.82814)"/>
    <path d="m 398.85707,310.48551 v 85.09738" id="path7128" inkscape:connector-curvature="0" sodipodi:nodetypes="cc" style="fill:#000000;fill-opacity:1;fill-rule:nonzero;stroke:#808080;stroke-width:0.5;stroke-linecap:square;stroke-linejoin:miter;stroke-miterlimit:4;stroke-dasharray:none;stroke-dashoffset:0;stroke-opacity:1"/>
    <path d="m 424.11442,310.48551 v 85.09738" id="path7130" inkscape:connector-curvature="0" sodipodi:nodetypes="cc" style="fill:#000000;fill-opacity:1;fill-rule:nonzero;stroke:#808080;stroke-width:0.5;stroke-linecap:square;stroke-linejoin:miter;stroke-miterlimit:4;stroke-dasharray:none;stroke-dashoffset:0;stroke-opacity:1"/>
    <path d="m 449.3718,310.48551 v 85.09738" id="path7132" inkscape:connector-curvature="0" sodipodi:nodetypes="cc" style="fill:#000000;fill-opacity:1;fill-rule:nonzero;stroke:#808080;stroke-width:0.5;stroke-linecap:square;stroke-linejoin:miter;stroke-miterlimit:4;stroke-dasharray:none;stroke-dashoffset:0;stroke-opacity:1"/>
    <path d="m 373.59968,310.48551 v 85.09738" id="path7134" inkscape:connector-curvature="0" sodipodi:nodetypes="cc" style="fill:#000000;fill-opacity:1;fill-rule:nonzero;stroke:#808080;stroke-width:0.5;stroke-linecap:square;stroke-linejoin:miter;stroke-miterlimit:4;stroke-dasharray:none;stroke-dashoffset:0;stroke-opacity:1"/>
    <path d="M 161.52343,158.31021 H 286.8164" id="path7136" inkscape:connector-curvature="0" sodipodi:nodetypes="cc" style="fill:none;stroke:#808080;stroke-width:0.5;stroke-linecap:butt;stroke-linejoin:miter;stroke-miterlimit:4;stroke-dasharray:none;stroke-opacity:1" transform="translate(192.06506,176.82814)"/>
    <path d="M 353.58849,370.49381 H 478.88146" id="path7676" inkscape:connector-curvature="0" sodipodi:nodetypes="cc" style="fill:none;stroke:#808080;stroke-width:0.5;stroke-linecap:butt;stroke-linejoin:miter;stroke-miterlimit:4;stroke-dasharray:none;stroke-opacity:1"/>
    <path d="m 309.05273,137.68521 -10e-6,4.83399" id="path7678" inkscape:connector-curvature="0" sodipodi:nodetypes="cc" style="fill:none;stroke:#000000;stroke-width:1px;stroke-linecap:butt;stroke-linejoin:miter;stroke-opacity:1" transform="translate(192.06506,176.82814)"/>
    <path d="m 309.05272,210.19498 10e-6,4.18945" id="path7680" inkscape:connector-curvature="0" sodipodi:nodetypes="cc" style="fill:none;stroke:#000000;stroke-width:1px;stroke-linecap:butt;stroke-linejoin:miter;stroke-opacity:1" transform="translate(192.06506,176.82814)"/>
    <path d="m 128.26171,155.73209 a 4.8339844,4.8339844 0 0 1 -4.81082,4.83393 4.8339844,4.8339844 0 0 1 -4.85693,-4.78762 4.8339844,4.8339844 0 0 1 4.76429,-4.8798 4.8339844,4.8339844 0 0 1 4.90257,4.74085 l -4.83309,0.0926 z" id="path7682" sodipodi:cx="123.42773" sodipodi:cy="155.73209" sodipodi:end="6.2640216" sodipodi:rx="4.8339844" sodipodi:ry="4.8339844" sodipodi:start="0" sodipodi:type="arc" style="fill:#000000;fill-opacity:1;stroke:none" transform="translate(250.39514,179.084)"/>
    <path d="m 128.26171,155.73209 a 4.8339844,4.8339844 0 0 1 -4.81082,4.83393 4.8339844,4.8339844 0 0 1 -4.85693,-4.78762 4.8339844,4.8339844 0 0 1 4.76429,-4.8798 4.8339844,4.8339844 0 0 1 4.90257,4.74085 l -4.83309,0.0926 z" id="path7684" sodipodi:cx="123.42773" sodipodi:cy="155.73209" sodipodi:end="6.2640216" sodipodi:rx="4.8339844" sodipodi:ry="4.8339844" sodipodi:start="0" sodipodi:type="arc" style="fill:#000000;fill-opacity:1;stroke:none" transform="translate(275.53187,179.084)"/>
    <path d="m 128.26171,155.73209 a 4.8339844,4.8339844 0 0 1 -4.81082,4.83393 4.8339844,4.8339844 0 0 1 -4.85693,-4.78762 4.8339844,4.8339844 0 0 1 4.76429,-4.8798 4.8339844,4.8339844 0 0 1 4.90257,4.74085 l -4.83309,0.0926 z" id="path7686" sodipodi:cx="123.42773" sodipodi:cy="155.73209" sodipodi:end="6.2640216" sodipodi:rx="4.8339844" sodipodi:ry="4.8339844" sodipodi:start="0" sodipodi:type="arc" style="fill:#000000;fill-opacity:1;stroke:none" transform="translate(300.66857,179.084)"/>
    <path d="m 128.26171,155.73209 a 4.8339844,4.8339844 0 0 1 -4.81082,4.83393 4.8339844,4.8339844 0 0 1 -4.85693,-4.78762 4.8339844,4.8339844 0 0 1 4.76429,-4.8798 4.8339844,4.8339844 0 0 1 4.90257,4.74085 l -4.83309,0.0926 z" id="path7688" sodipodi:cx="123.42773" sodipodi:cy="155.73209" sodipodi:end="6.2640216" sodipodi:rx="4.8339844" sodipodi:ry="4.8339844" sodipodi:start="0" sodipodi:type="arc" style="fill:#000000;fill-opacity:1;stroke:none" transform="translate(326.12755,179.084)"/>
    <path d="m 128.26171,155.73209 a 4.8339844,4.8339844 0 0 1 -4.81082,4.83393 4.8339844,4.8339844 0 0 1 -4.85693,-4.78762 4.8339844,4.8339844 0 0 1 4.76429,-4.8798 4.8339844,4.8339844 0 0 1 4.90257,4.74085 l -4.83309,0.0926 z" id="path7690" sodipodi:cx="123.42773" sodipodi:cy="155.73209" sodipodi:end="6.2640216" sodipodi:rx="4.8339844" sodipodi:ry="4.8339844" sodipodi:start="0" sodipodi:type="arc" style="fill:#000000;fill-opacity:1;stroke:none" transform="translate(250.39514,214.76173)"/>
    <path d="m 128.26171,155.73209 a 4.8339844,4.8339844 0 0 1 -4.81082,4.83393 4.8339844,4.8339844 0 0 1 -4.85693,-4.78762 4.8339844,4.8339844 0 0 1 4.76429,-4.8798 4.8339844,4.8339844 0 0 1 4.90257,4.74085 l -4.83309,0.0926 z" id="path7692" sodipodi:cx="123.42773" sodipodi:cy="155.73209" sodipodi:end="6.2640216" sodipodi:rx="4.8339844" sodipodi:ry="4.8339844" sodipodi:start="0" sodipodi:type="arc" style="fill:#000000;fill-opacity:1;stroke:none" transform="translate(275.53187,214.76173)"/>
    <path d="m 128.26171,155.73209 a 4.8339844,4.8339844 0 0 1 -4.81082,4.83393 4.8339844,4.8339844 0 0 1 -4.85693,-4.78762 4.8339844,4.8339844 0 0 1 4.76429,-4.8798 4.8339844,4.8339844 0 0 1 4.90257,4.74085 l -4.83309,0.0926 z" id="path7694" sodipodi:cx="123.42773" sodipodi:cy="155.73209" sodipodi:end="6.2640216" sodipodi:rx="4.8339844" sodipodi:ry="4.8339844" sodipodi:start="0" sodipodi:type="arc" style="fill:#000000;fill-opacity:1;stroke:none" transform="translate(300.66857,214.76173)"/>
    <path d="m 128.26171,155.73209 a 4.8339844,4.8339844 0 0 1 -4.81082,4.83393 4.8339844,4.8339844 0 0 1 -4.85693,-4.78762 4.8339844,4.8339844 0 0 1 4.76429,-4.8798 4.8339844,4.8339844 0 0 1 4.90257,4.74085 l -4.83309,0.0926 z" id="path7696" sodipodi:cx="123.42773" sodipodi:cy="155.73209" sodipodi:end="6.2640216" sodipodi:rx="4.8339844" sodipodi:ry="4.8339844" sodipodi:start="0" sodipodi:type="arc" style="fill:#000000;fill-opacity:1;stroke:none" transform="translate(326.12755,214.76173)"/>
    <path d="M 158.14608,204.32156 H 141.739" id="path7698" inkscape:connector-curvature="0" style="fill:none;stroke:#4d4d4d;stroke-width:0.75;stroke-linecap:butt;stroke-linejoin:miter;stroke-dasharray:none;stroke-dashoffset:0;stroke-opacity:1" transform="translate(192.06506,176.82814)"/>
    <path d="M 158.82971,146.89676 H 141.96687" id="path7700" inkscape:connector-curvature="0" style="fill:none;stroke:#4d4d4d;stroke-width:0.75;stroke-linecap:butt;stroke-linejoin:miter;stroke-dasharray:none;stroke-dashoffset:0;stroke-opacity:1" transform="translate(192.06506,176.82814)"/>
    <path d="m 149.715,146.897 0.455,57.425" id="path7702" inkscape:connector-curvature="0" style="fill:none;stroke:#4d4d4d;stroke-width:0.75;stroke-linecap:butt;stroke-linejoin:miter;stroke-dasharray:none;stroke-dashoffset:0;stroke-opacity:1;marker-start:url(#DimensionTick);marker-mid:url(#DimensionTick);marker-end:url(#DimensionTick)" transform="translate(192.06506,176.82814)"/>
    <text id="text7704" style="font-style:normal;font-variant:normal;font-weight:normal;font-stretch:normal;line-height:0%;font-family:Verdana;-inkscape-font-specification:'DejaVu Sans';letter-spacing:0px;word-spacing:0px;fill:#000000;fill-opacity:1;stroke:none" transform="rotate(-90.454704)" x="-363.26538" xml:space="preserve" y="336.92099"><tspan id="tspan7706" sodipodi:role="line" style="font-size:10.00000477px;line-height:1.25" x="-363.26538" y="336.92099">190</tspan></text>
    <path d="m 257.93493,128.53384 v 99" id="path7914" inkscape:connector-curvature="0" style="fill:none;stroke:#ff0000;stroke-width:1;stroke-linecap:butt;stroke-linejoin:miter;stroke-miterlimit:4;stroke-dasharray:1, 1;stroke-dashoffset:0;stroke-opacity:1" transform="translate(192.06506,176.82814)"/>
    <text id="text7916" style="font-style:normal;font-variant:normal;font-weight:normal;font-stretch:normal;line-height:0%;font-family:'DejaVu Sans';-inkscape-font-specification:'DejaVu Sans';letter-spacing:0px;word-spacing:0px;fill:#ff0000;fill-opacity:1;stroke:none" x="450.47668" xml:space="preserve" y="308.22931"><tspan id="tspan7918" sodipodi:role="line" style="font-size:10px;line-height:1.25" x="450.47668" y="308.22931">1</tspan></text>
    <text id="text7920" style="font-style:normal;font-variant:normal;font-weight:normal;font-stretch:normal;line-height:0%;font-family:'DejaVu Sans';-inkscape-font-specification:'DejaVu Sans';letter-spacing:0px;word-spacing:0px;fill:#ff0000;fill-opacity:1;stroke:none" x="450.9324" xml:space="preserve" y="405.30457"><tspan id="tspan7922" sodipodi:role="line" style="font-size:10px;line-height:1.25" x="450.9324" y="405.30457">1</tspan></text>
    <path d="m 673.44582,211.63791 -0.1584,61.1998 3.07999,0.008 a 1.629999,1.629999 0 0 0 1.63422,-1.62578 l 0.0589,-22.74493 a 4.89,4.89 0 0 1 4.90264,-4.87733 l 57.89981,0.14987 a 4.89,4.89 0 0 1 4.87732,4.90264 l -0.0589,22.74493 a 1.629999,1.629999 0 0 0 1.62578,1.63422 l 3.08,0.008 0.1584,-61.1998 -3.07999,-0.008 a 1.629999,1.629999 0 0 0 -1.63422,1.62578 l -0.0589,22.74493 a 4.89,4.89 0 0 1 -4.90264,4.87733 l -57.89981,-0.14987 a 4.89,4.89 0 0 1 -4.87732,-4.90264 l 0.0589,-22.74493 a 1.629999,1.629999 0 0 0 -1.62578,-1.63422 z" id="path3111" inkscape:connector-curvature="0" style="fill:none;stroke:#000000;stroke-width:0.99000001;stroke-linecap:square;stroke-linejoin:miter;stroke-miterlimit:4;stroke-dasharray:none;stroke-dashoffset:0;stroke-opacity:1"/>
    <text id="text5355" style="font-style:normal;font-variant:normal;font-weight:normal;font-stretch:normal;line-height:0%;font-family:'DejaVu Sans';-inkscape-font-specification:'DejaVu Sans';letter-spacing:0px;word-spacing:0px;fill:#000000;fill-opacity:1;stroke:none" transform="translate(170.06506,190.94199)" x="528.37195" xml:space="preserve" y="104.68907"><tspan id="tspan5357" sodipodi:role="line" style="font-size:10px;line-height:1.25" x="528.37195" y="104.68907">area</tspan><tspan id="tspan5359" sodipodi:role="line" style="font-size:10px;line-height:1.25" x="528.37195" y="117.18907">removed</tspan></text>
    <path d="m 507.03013,75.909938 22.63528,-0.16168 -12.77276,26.677292 10.34755,-0.16168" id="path5363" inkscape:connector-curvature="0" sodipodi:nodetypes="cccc" style="fill:none;stroke:#000000;stroke-width:0.5;stroke-linecap:butt;stroke-linejoin:miter;stroke-miterlimit:4;stroke-dasharray:none;stroke-opacity:1;marker-start:url(#Arrow1Mstart)" transform="translate(170.06506,190.94199)"/>
  </g>
</svg>