<svg height="151.52148" id="svg2" inkscape:version="0.48.4 r9939" sodipodi:docname="brace1.svg" version="1.1" width="597.41638" xmlns="http://www.w3.org/2000/svg" xmlns:cc="http://creativecommons.org/ns#" xmlns:dc="http://purl.org/dc/elements/1.1/" xmlns:inkscape="http://www.inkscape.org/namespaces/inkscape" xmlns:rdf="http://www.w3.org/1999/02/22-rdf-syntax-ns#" xmlns:sodipodi="http://sodipodi.sourceforge.net/DTD/sodipodi-0.dtd" xmlns:svg="http://www.w3.org/2000/svg" xmlns:xlink="http://www.w3.org/1999/xlink">
  <script id="script3033" xlink:href=""/>
  <defs id="defs4">
    <marker id="Arrow1Mend" inkscape:stockid="Arrow1Mend" orient="auto" refX="0" refY="0" style="overflow:visible">
      <path d="M 0,0 5,-5 -12.5,0 5,5 0,0 z" id="path7139" inkscape:connector-curvature="0" style="fill-rule:evenodd;stroke:#000000;stroke-width:1pt;marker-start:none" transform="matrix(-0.4,0,0,-0.4,-4,0)"/>
    </marker>
    <marker id="Arrow2Lend" inkscape:stockid="Arrow2Lend" orient="auto" refX="0" refY="0" style="overflow:visible">
      <path d="M 8.7185878,4.0337352 -2.2072895,0.01601326 8.7185884,-4.0017078 c -1.7454984,2.3720609 -1.7354408,5.6174519 -6e-7,8.035443 z" id="path7151" inkscape:connector-curvature="0" style="font-size:12px;fill-rule:evenodd;stroke-width:0.625;stroke-linejoin:round" transform="matrix(-1.1,0,0,-1.1,-1.1,0)"/>
    </marker>
    <!-- markers by NMH <nholtz@cee.carleton.ca> -->
    <marker id="DimensionTick" inkscape:stockid="DimensionTick" orient="auto" refX="0" refY="0" style="overflow:visible">
      <path d="M 0,0 8,8" id="path6" inkscape:connector-curvature="0" style="stroke:#4d4d4d;stroke-width:1px;marker-start:none" transform="translate(-4,-4)"/>
    </marker>
    <marker id="TrussNodeS" inkscape:stockid="TrussNodeS" markerUnits="userSpaceOnUse" orient="auto" refX="0" refY="0" style="overflow:visible">
      <circle cx="0" cy="0" id="circle9" r="3" sodipodi:cx="0" sodipodi:cy="0" sodipodi:rx="3" sodipodi:ry="3" style="fill:#ffffff;stroke:#000000;stroke-width:1"/>
    </marker>
    <marker id="TrussNodeM" inkscape:stockid="TrussNodeM" markerUnits="userSpaceOnUse" orient="auto" refX="0" refY="0" style="overflow:visible">
      <circle cx="0" cy="0" id="circle12" r="4" sodipodi:cx="0" sodipodi:cy="0" sodipodi:rx="4" sodipodi:ry="4" style="fill:#ffffff;stroke:#000000;stroke-width:1"/>
    </marker>
  </defs>
  <sodipodi:namedview bordercolor="#666666" borderopacity="1.0" fit-margin-bottom="0.1" fit-margin-left="0.1" fit-margin-right="0.1" fit-margin-top="0.1" id="base" inkscape:bbox-nodes="false" inkscape:current-layer="layer1" inkscape:cx="216.20314" inkscape:cy="89.050006" inkscape:document-units="px" inkscape:guide-bbox="true" inkscape:object-nodes="true" inkscape:object-paths="true" inkscape:pageopacity="0.0" inkscape:pageshadow="2" inkscape:snap-bbox="false" inkscape:snap-bbox-edge-midpoints="false" inkscape:snap-bbox-midpoints="false" inkscape:snap-center="false" inkscape:snap-global="false" inkscape:snap-grids="false" inkscape:snap-intersection-paths="false" inkscape:snap-midpoints="false" inkscape:snap-nodes="true" inkscape:snap-object-midpoints="false" inkscape:snap-page="false" inkscape:snap-smooth-nodes="false" inkscape:snap-to-guides="false" inkscape:window-height="979" inkscape:window-maximized="0" inkscape:window-width="1363" inkscape:window-x="283" inkscape:window-y="35" inkscape:zoom="1.5515152" pagecolor="#ffffff" showgrid="true" showguides="true" units="in">
    <inkscape:grid empspacing="5" enabled="true" id="grid2985" originx="-0.8007771in" originy="-8.0800781in" snapvisiblegridlinesonly="true" spacingx="0.1in" spacingy="0.1in" type="xygrid" units="in" visible="true"/>
    <sodipodi:guide id="guide3042" orientation="0,765" position="-72.069939,-727.20703"/>
    <sodipodi:guide id="guide3044" orientation="-990,0" position="692.93006,-727.20703"/>
    <sodipodi:guide id="guide3046" orientation="0,-765" position="692.93006,262.79297"/>
    <sodipodi:guide id="guide3048" orientation="990,0" position="-72.069939,262.79297"/>
    <sodipodi:guide id="guide3050" orientation="0,765" position="647.93006,-682.20703"/>
    <sodipodi:guide id="guide3052" orientation="-990,0" position="647.93006,172.79297"/>
    <sodipodi:guide id="guide3054" orientation="0,-765" position="-9.0699387,172.79297"/>
    <sodipodi:guide id="guide3056" orientation="990,0" position="17.930061,199.79297"/>
  </sodipodi:namedview>
  <metadata id="metadata7">
    <rdf:RDF>
      <cc:Work rdf:about="">
        <dc:format>image/svg+xml</dc:format>
        <dc:type rdf:resource="http://purl.org/dc/dcmitype/StillImage"/>
        <dc:title/>
        <cc:license rdf:resource="http://creativecommons.org/licenses/by-nc/3.0/"/>
      </cc:Work>
      <cc:License rdf:about="http://creativecommons.org/licenses/by-nc/3.0/">
        <cc:permits rdf:resource="http://creativecommons.org/ns#Reproduction"/>
        <cc:permits rdf:resource="http://creativecommons.org/ns#Distribution"/>
        <cc:requires rdf:resource="http://creativecommons.org/ns#Notice"/>
        <cc:requires rdf:resource="http://creativecommons.org/ns#Attribution"/>
        <cc:prohibits rdf:resource="http://creativecommons.org/ns#CommercialUse"/>
        <cc:permits rdf:resource="http://creativecommons.org/ns#DerivativeWorks"/>
      </cc:License>
    </rdf:RDF>
  </metadata>
  <g id="layer1" inkscape:groupmode="layer" inkscape:label="Layer 1" transform="translate(-72.069939,-173.63348)">
    <text id="text3091" sodipodi:linespacing="125%" style="font-size:10px;font-style:normal;font-variant:normal;font-weight:normal;font-stretch:normal;text-align:start;line-height:125%;letter-spacing:0px;word-spacing:0px;writing-mode:lr-tb;text-anchor:start;fill:#000000;fill-opacity:1;stroke:none;font-family:Verdana;-inkscape-font-specification:Verdana" x="555.375" xml:space="preserve" y="207.36386"><tspan id="tspan3093" sodipodi:role="line" x="555.375" y="207.36386">W250x67</tspan></text>
    <text id="text3095" sodipodi:linespacing="125%" style="font-size:10px;font-style:normal;font-variant:normal;font-weight:normal;font-stretch:normal;text-align:start;line-height:125%;letter-spacing:0px;word-spacing:0px;writing-mode:lr-tb;text-anchor:start;fill:#000000;fill-opacity:1;stroke:none;font-family:Verdana;-inkscape-font-specification:Verdana" x="342.35742" xml:space="preserve" y="194.23309"><tspan id="tspan3097" sodipodi:role="line" x="342.35742" y="194.23309">L102x76x13</tspan></text>
    <text id="text3099" sodipodi:linespacing="125%" style="font-size:10px;font-style:normal;font-variant:normal;font-weight:normal;font-stretch:normal;text-align:start;line-height:125%;letter-spacing:0px;word-spacing:0px;writing-mode:lr-tb;text-anchor:start;fill:#000000;fill-opacity:1;stroke:none;font-family:Verdana;-inkscape-font-specification:Verdana" x="80.088493" xml:space="preserve" y="193.26466"><tspan id="tspan3101" sodipodi:role="line" x="80.088493" y="193.26466">PL8x190x310</tspan></text>
    <g id="g3940" transform="translate(22,0)">
      <g id="g3082" transform="matrix(0,0.3,-0.3,0,182.74744,144.27186)">
        <path d="m 225,225 204,0 0,-10.2667 a 5.43333,5.43333 0 0 0 -5.43333,-5.43333 l -75.8167,0 a 16.3,16.3 0 0 1 -16.3,-16.3 l 0,-193 a 16.3,16.3 0 0 1 16.3,-16.3 l 75.8167,0 A 5.43333,5.43333 0 0 0 429,-21.73336 l 0,-10.2667 -204,0 0,10.2667 a 5.43333,5.43333 0 0 0 5.43333,5.43333 l 75.8167,0 a 16.3,16.3 0 0 1 16.3,16.3 l 0,193 a 16.3,16.3 0 0 1 -16.3,16.3 l -75.8167,0 A 5.43333,5.43333 0 0 0 225,214.7333 z" id="path3001" inkscape:connector-curvature="0" style="fill:none;stroke:#000000;stroke-width:3.29999995;stroke-linecap:square;stroke-linejoin:miter;stroke-miterlimit:4;stroke-opacity:1;stroke-dasharray:none;stroke-dashoffset:0" transform="translate(0,62.362)"/>
        <path d="m 331.49505,252.84715 8,0 0,-190 -8,0 z" id="path3033" inkscape:connector-curvature="0" style="fill:none;stroke:#000000;stroke-width:3.29999995;stroke-linecap:square;stroke-linejoin:miter;stroke-miterlimit:4;stroke-opacity:1;stroke-dasharray:none;stroke-dashoffset:0"/>
        <path d="m 314.48515,252.84715 8,0 0,-190 -8,0 z" id="path3039" inkscape:connector-curvature="0" style="fill:none;stroke:#000000;stroke-width:3.29999995;stroke-linecap:square;stroke-linejoin:miter;stroke-miterlimit:4;stroke-opacity:1;stroke-dasharray:none;stroke-dashoffset:0"/>
        <path d="m 314.50058,142.5449 0,-76.2 -9.26667,0 a 3.43333,3.43333 0 0 0 -3.43333,3.43333 l 0,49.7667 a 10.3,10.3 0 0 1 -10.3,10.3 l -68.7,0 a 3.43333,3.43333 0 0 0 -3.43333,3.43333 l 0,9.26667 z" id="path3062" inkscape:connector-curvature="0" style="fill:none;stroke:#000000;stroke-width:3.29999995;stroke-linecap:square;stroke-linejoin:miter;stroke-miterlimit:4;stroke-opacity:1;stroke-dasharray:none;stroke-dashoffset:0"/>
        <path d="m 314.50058,173.29478 0,76.2 -9.26667,0 a 3.43333,3.43333 0 0 1 -3.43333,-3.43333 l 0,-49.7667 a 10.3,10.3 0 0 0 -10.3,-10.3 l -68.7,0 a 3.43333,3.43333 0 0 1 -3.43333,-3.43333 l 0,-9.26667 z" id="path3064" inkscape:connector-curvature="0" style="fill:none;stroke:#000000;stroke-width:3.29999995;stroke-linecap:square;stroke-linejoin:miter;stroke-miterlimit:4;stroke-opacity:1;stroke-dasharray:none;stroke-dashoffset:0"/>
        <path d="m 339.54425,142.5449 0,-76.2 9.26667,0 a 3.43333,3.43333 0 0 1 3.43333,3.43333 l 0,49.7667 a 10.3,10.3 0 0 0 10.3,10.3 l 68.7,0 a 3.43333,3.43333 0 0 1 3.43333,3.43333 l 0,9.26667 z" id="path3068" inkscape:connector-curvature="0" style="fill:none;stroke:#000000;stroke-width:3.29999995;stroke-linecap:square;stroke-linejoin:miter;stroke-miterlimit:4;stroke-opacity:1;stroke-dasharray:none;stroke-dashoffset:0"/>
        <path d="m 339.54425,173.29478 0,76.2 9.26667,0 a 3.43333,3.43333 0 0 0 3.43333,-3.43333 l 0,-49.7667 a 10.3,10.3 0 0 1 10.3,-10.3 l 68.7,0 a 3.43333,3.43333 0 0 0 3.43333,-3.43333 l 0,-9.26667 z" id="path3070" inkscape:connector-curvature="0" style="fill:none;stroke:#000000;stroke-width:3.29999995;stroke-linecap:square;stroke-linejoin:miter;stroke-miterlimit:4;stroke-opacity:1;stroke-dasharray:none;stroke-dashoffset:0"/>
      </g>
      <path d="m 150.03375,234.8984 6.303,0 0,14.973 -6.303,0 z" id="path3105" inkscape:connector-curvature="0" style="fill:#4d4d4d;stroke:none"/>
      <path d="m 114.63375,234.8984 6.303,0 0,14.973 -6.303,0 z" id="path3107" inkscape:connector-curvature="0" style="fill:#4d4d4d;stroke:none"/>
      <path d="m 127.04393,262.1035 3.81,0 0,6.6 -3.81,0 z" id="path3109" inkscape:connector-curvature="0" style="fill:#4d4d4d;stroke:none"/>
      <path d="m 140.03884,262.1035 3.81,0 0,6.6 -3.81,0 z" id="path3111" inkscape:connector-curvature="0" style="fill:#4d4d4d;stroke:none"/>
      <path d="m 127.04393,216.04022 3.81,0 0,6.6 -3.81,0 z" id="path3113" inkscape:connector-curvature="0" style="fill:#4d4d4d;stroke:none"/>
      <path d="m 140.03884,216.04022 3.81,0 0,6.6 -3.81,0 z" id="path3115" inkscape:connector-curvature="0" style="fill:#4d4d4d;stroke:none"/>
    </g>
    <g id="g3958">
      <path d="m 395.38921,234.8984 6.303,0 0,14.973 -6.303,0 z" id="path3934" inkscape:connector-curvature="0" style="fill:#808080;stroke:none"/>
      <path d="m 420.74467,234.8984 6.303,0 0,14.973 -6.303,0 z" id="path3936" inkscape:connector-curvature="0" style="fill:#808080;stroke:none"/>
      <path d="m 446.10013,234.8984 6.303,0 0,14.973 -6.303,0 z" id="path3938" inkscape:connector-curvature="0" style="fill:#808080;stroke:none"/>
      <path d="m 370.03375,234.8984 6.303,0 0,14.973 -6.303,0 z" id="path3932" inkscape:connector-curvature="0" style="fill:#808080;stroke:none"/>
      <g id="g3159" transform="translate(126.64454,0)">
        <path d="m 233.63886,211.77186 141.21466,-0.20088" id="path3133" inkscape:connector-curvature="0" style="fill:#4d4d4d;fill-opacity:1;fill-rule:nonzero;stroke:#000000"/>
        <path d="m 233.63886,272.97186 141.53692,0" id="path3135" inkscape:connector-curvature="0" style="fill:#4d4d4d;fill-opacity:1;fill-rule:nonzero;stroke:#000000;stroke-width:0.99000001;stroke-linecap:square;stroke-linejoin:miter;stroke-miterlimit:4;stroke-opacity:1;stroke-dasharray:none;stroke-dashoffset:0"/>
        <path d="m 233.63886,149.40986 0,61.2" id="path3137" inkscape:connector-curvature="0" style="fill:#4d4d4d;fill-opacity:1;fill-rule:nonzero;stroke:#000000;stroke-width:0.99000001;stroke-linecap:square;stroke-linejoin:miter;stroke-miterlimit:4;stroke-opacity:1;stroke-dasharray:none;stroke-dashoffset:0" transform="translate(0,62.362)"/>
        <g id="g3149">
          <path d="m 415,223.02072 70.97656,0" id="path3141" inkscape:connector-curvature="0" sodipodi:nodetypes="cc" style="fill:#4d4d4d;fill-opacity:1;fill-rule:nonzero;stroke:#000000;stroke-width:0.99000001;stroke-linecap:square;stroke-linejoin:miter;stroke-miterlimit:4;stroke-opacity:1;stroke-dasharray:none;stroke-dashoffset:0"/>
          <path d="m 465.97924,184.65677 c -14.17429,0.0871 -28.08973,-3.79698 -40.16991,-11.21234" id="path3145" sodipodi:cx="465.5127" sodipodi:cy="108.76465" sodipodi:end="2.1213338" sodipodi:open="true" sodipodi:rx="75.893555" sodipodi:ry="75.893555" sodipodi:start="1.5646489" sodipodi:type="arc" style="fill:none;stroke:#000000;stroke-width:0.99000001;stroke-linecap:square;stroke-linejoin:miter;stroke-miterlimit:4;stroke-opacity:1;stroke-dasharray:none;stroke-dashoffset:0" transform="translate(-50.644532,38.362)"/>
        </g>
        <g id="g3153" transform="matrix(1,0,0,-1,0,484.66602)">
          <path d="m 415,223.02072 70.97656,0" id="path3155" inkscape:connector-curvature="0" sodipodi:nodetypes="cc" style="fill:#4d4d4d;fill-opacity:1;fill-rule:nonzero;stroke:#000000;stroke-width:0.99000001;stroke-linecap:square;stroke-linejoin:miter;stroke-miterlimit:4;stroke-opacity:1;stroke-dasharray:none;stroke-dashoffset:0"/>
          <path d="m 465.97924,184.65677 c -14.17429,0.0871 -28.08973,-3.79698 -40.16991,-11.21234" id="path3157" sodipodi:cx="465.5127" sodipodi:cy="108.76465" sodipodi:end="2.1213338" sodipodi:open="true" sodipodi:rx="75.893555" sodipodi:ry="75.893555" sodipodi:start="1.5646489" sodipodi:type="arc" style="fill:none;stroke:#000000;stroke-width:0.99000001;stroke-linecap:square;stroke-linejoin:miter;stroke-miterlimit:4;stroke-opacity:1;stroke-dasharray:none;stroke-dashoffset:0" transform="translate(-50.644532,38.362)"/>
        </g>
      </g>
      <path d="m 259.98396,209.92089 c 3.55532,0.96115 201.52799,0.0129 201.52799,0.0129 l 0.13576,1.75924" id="path3058" inkscape:connector-curvature="0" sodipodi:nodetypes="ccc" style="fill:none;stroke:#000000;stroke-width:0.99000001;stroke-linecap:square;stroke-linejoin:miter;stroke-miterlimit:4;stroke-opacity:1;stroke-dasharray:none;stroke-dashoffset:0"/>
      <path d="m 259.98396,274.51399 201.13572,0 0.009,-1.54425" id="path3060" inkscape:connector-curvature="0" sodipodi:nodetypes="ccc" style="fill:none;stroke:#000000;stroke-width:0.99000001;stroke-linecap:square;stroke-linejoin:miter;stroke-miterlimit:4;stroke-opacity:1;stroke-dasharray:none;stroke-dashoffset:0"/>
      <path d="m 259.8933,238.6174 100.36344,0" id="path3063" inkscape:connector-curvature="0" sodipodi:nodetypes="cc" style="fill:none;stroke:#000000;stroke-width:0.99000001;stroke-linecap:square;stroke-linejoin:miter;stroke-miterlimit:4;stroke-opacity:1;stroke-dasharray:none;stroke-dashoffset:0"/>
      <path d="m 259.8933,246.12037 100.13557,0" id="path3065" inkscape:connector-curvature="0" sodipodi:nodetypes="cc" style="fill:none;stroke:#000000;stroke-width:0.99000001;stroke-linecap:square;stroke-linejoin:miter;stroke-miterlimit:4;stroke-opacity:1;stroke-dasharray:none;stroke-dashoffset:0"/>
      <path d="m 259.8933,183.75837 0.0907,28.39362" id="path3067" inkscape:connector-curvature="0" style="fill:none;stroke:#000000;stroke-width:0.99000001;stroke-linecap:square;stroke-linejoin:miter;stroke-miterlimit:4;stroke-opacity:1;stroke-dasharray:none;stroke-dashoffset:0" transform="translate(0,62.362)"/>
      <path d="m 259.98396,147.55889 -0.0907,28.69651" id="path3069" inkscape:connector-curvature="0" style="fill:none;stroke:#000000;stroke-width:0.99000001;stroke-linecap:square;stroke-linejoin:miter;stroke-miterlimit:4;stroke-opacity:1;stroke-dasharray:none;stroke-dashoffset:0" transform="translate(0,62.362)"/>
      <path d="m 259.8933,234.6174 100.36344,0" id="path3071" inkscape:connector-curvature="0" sodipodi:nodetypes="cc" style="fill:none;stroke:#000000;stroke-width:0.99000001;stroke-linecap:square;stroke-linejoin:miter;stroke-miterlimit:4;stroke-opacity:1;stroke-dasharray:none;stroke-dashoffset:0"/>
      <path d="m 259.8933,250.12037 100.13557,0" id="path3073" inkscape:connector-curvature="0" sodipodi:nodetypes="cc" style="fill:none;stroke:#000000;stroke-width:0.99000001;stroke-linecap:square;stroke-linejoin:miter;stroke-miterlimit:4;stroke-opacity:1;stroke-dasharray:none;stroke-dashoffset:0"/>
      <path d="m 254.06865,156.88458 103.92487,0" id="path3079" inkscape:connector-curvature="0" sodipodi:nodetypes="cc" style="fill:#000000;fill-opacity:1;fill-rule:nonzero;stroke:#808080;stroke-width:0.5" transform="translate(0,62.362)"/>
      <path d="m 254.06865,265.24658 103.92487,0" id="path3081" inkscape:connector-curvature="0" sodipodi:nodetypes="cc" style="fill:#000000;fill-opacity:1;fill-rule:nonzero;stroke:#808080;stroke-width:0.5"/>
      <path d="m 294.85707,206.48551 0,71.09738" id="path3085" inkscape:connector-curvature="0" style="fill:#000000;fill-opacity:1;fill-rule:nonzero;stroke:#808080;stroke-width:0.5;stroke-linecap:square;stroke-linejoin:miter;stroke-miterlimit:4;stroke-opacity:1;stroke-dasharray:none;stroke-dashoffset:0"/>
      <path d="m 320.11442,206.48551 0,71.09738" id="path3087" inkscape:connector-curvature="0" style="fill:#000000;fill-opacity:1;fill-rule:nonzero;stroke:#808080;stroke-width:0.5;stroke-linecap:square;stroke-linejoin:miter;stroke-miterlimit:4;stroke-opacity:1;stroke-dasharray:none;stroke-dashoffset:0"/>
      <path d="m 345.3718,206.48551 0,71.09738" id="path3089" inkscape:connector-curvature="0" style="fill:#000000;fill-opacity:1;fill-rule:nonzero;stroke:#808080;stroke-width:0.5;stroke-linecap:square;stroke-linejoin:miter;stroke-miterlimit:4;stroke-opacity:1;stroke-dasharray:none;stroke-dashoffset:0"/>
      <path d="m 211.69699,179.90007 c 0,2.76876 -2.24452,5.01328 -5.01327,5.01328 -2.76876,0 -5.01328,-2.24452 -5.01328,-5.01328 0,-2.76876 2.24452,-5.01328 5.01328,-5.01328 2.76875,0 5.01327,2.24452 5.01327,5.01328 z" id="path3095" sodipodi:cx="206.68372" sodipodi:cy="179.90007" sodipodi:rx="5.0132766" sodipodi:ry="5.0132766" sodipodi:type="arc" style="fill:#000000;stroke:none" transform="matrix(0.69914355,0,0,0.69914355,150.47914,93.38374)"/>
      <path d="m 211.69699,179.90007 c 0,2.76876 -2.24452,5.01328 -5.01327,5.01328 -2.76876,0 -5.01328,-2.24452 -5.01328,-5.01328 0,-2.76876 2.24452,-5.01328 5.01328,-5.01328 2.76875,0 5.01327,2.24452 5.01327,5.01328 z" id="path3097" sodipodi:cx="206.68372" sodipodi:cy="179.90007" sodipodi:rx="5.0132766" sodipodi:ry="5.0132766" sodipodi:type="arc" style="fill:#000000;stroke:none" transform="matrix(0.69914355,0,0,0.69914355,150.47914,139.38374)"/>
      <path d="m 211.69699,179.90007 c 0,2.76876 -2.24452,5.01328 -5.01327,5.01328 -2.76876,0 -5.01328,-2.24452 -5.01328,-5.01328 0,-2.76876 2.24452,-5.01328 5.01328,-5.01328 2.76875,0 5.01327,2.24452 5.01327,5.01328 z" id="path3099" sodipodi:cx="206.68372" sodipodi:cy="179.90007" sodipodi:rx="5.0132766" sodipodi:ry="5.0132766" sodipodi:type="arc" style="fill:#000000;stroke:none" transform="matrix(0.69914355,0,0,0.69914355,175.56762,93.38374)"/>
      <path d="m 211.69699,179.90007 c 0,2.76876 -2.24452,5.01328 -5.01327,5.01328 -2.76876,0 -5.01328,-2.24452 -5.01328,-5.01328 0,-2.76876 2.24452,-5.01328 5.01328,-5.01328 2.76875,0 5.01327,2.24452 5.01327,5.01328 z" id="path3101" sodipodi:cx="206.68372" sodipodi:cy="179.90007" sodipodi:rx="5.0132766" sodipodi:ry="5.0132766" sodipodi:type="arc" style="fill:#000000;stroke:none" transform="matrix(0.69914355,0,0,0.69914355,175.56762,139.38374)"/>
      <path d="m 211.69699,179.90007 c 0,2.76876 -2.24452,5.01328 -5.01327,5.01328 -2.76876,0 -5.01328,-2.24452 -5.01328,-5.01328 0,-2.76876 2.24452,-5.01328 5.01328,-5.01328 2.76875,0 5.01327,2.24452 5.01327,5.01328 z" id="path3103" sodipodi:cx="206.68372" sodipodi:cy="179.90007" sodipodi:rx="5.0132766" sodipodi:ry="5.0132766" sodipodi:type="arc" style="fill:#000000;stroke:none" transform="matrix(0.69914355,0,0,0.69914355,200.70702,93.38374)"/>
      <path d="m 211.69699,179.90007 c 0,2.76876 -2.24452,5.01328 -5.01327,5.01328 -2.76876,0 -5.01328,-2.24452 -5.01328,-5.01328 0,-2.76876 2.24452,-5.01328 5.01328,-5.01328 2.76875,0 5.01327,2.24452 5.01327,5.01328 z" id="path3106" sodipodi:cx="206.68372" sodipodi:cy="179.90007" sodipodi:rx="5.0132766" sodipodi:ry="5.0132766" sodipodi:type="arc" style="fill:#000000;stroke:none" transform="matrix(0.69914355,0,0,0.69914355,200.70702,139.38374)"/>
      <path d="m 269.59968,206.48551 0,71.09738" id="path3083" inkscape:connector-curvature="0" style="fill:#000000;fill-opacity:1;fill-rule:nonzero;stroke:#808080;stroke-width:0.5;stroke-linecap:square;stroke-linejoin:miter;stroke-miterlimit:4;stroke-opacity:1;stroke-dasharray:none;stroke-dashoffset:0"/>
      <path d="m 211.69699,179.90007 c 0,2.76876 -2.24452,5.01328 -5.01327,5.01328 -2.76876,0 -5.01328,-2.24452 -5.01328,-5.01328 0,-2.76876 2.24452,-5.01328 5.01328,-5.01328 2.76875,0 5.01327,2.24452 5.01327,5.01328 z" id="path3077" sodipodi:cx="206.68372" sodipodi:cy="179.90007" sodipodi:rx="5.0132766" sodipodi:ry="5.0132766" sodipodi:type="arc" style="fill:#000000;stroke:none" transform="matrix(0.69914355,0,0,0.69914355,125.16278,93.38374)"/>
      <path d="m 211.69699,179.90007 c 0,2.76876 -2.24452,5.01328 -5.01327,5.01328 -2.76876,0 -5.01328,-2.24452 -5.01328,-5.01328 0,-2.76876 2.24452,-5.01328 5.01328,-5.01328 2.76875,0 5.01327,2.24452 5.01327,5.01328 z" id="path3093" sodipodi:cx="206.68372" sodipodi:cy="179.90007" sodipodi:rx="5.0132766" sodipodi:ry="5.0132766" sodipodi:type="arc" style="fill:#000000;stroke:none" transform="matrix(0.69914355,0,0,0.69914355,125.16278,139.38374)"/>
      <path d="m 360,241.2226 252,0" id="path3108" inkscape:connector-curvature="0" style="fill:#000000;fill-opacity:1;fill-rule:nonzero;stroke:#000000;stroke-width:0.5;stroke-linecap:square;stroke-linejoin:miter;stroke-miterlimit:4;stroke-opacity:1;stroke-dasharray:0.5, 2;stroke-dashoffset:0"/>
      <path d="m 360,243.5014 252,0" id="path3896" inkscape:connector-curvature="0" style="fill:#000000;fill-opacity:1;fill-rule:nonzero;stroke:#000000;stroke-width:0.5;stroke-linecap:square;stroke-linejoin:miter;stroke-miterlimit:4;stroke-opacity:1;stroke-dasharray:0.5, 2;stroke-dashoffset:0"/>
      <path d="m 360.25674,176.2554 101.42046,0 0,-28.98977" id="path3898" inkscape:connector-curvature="0" sodipodi:nodetypes="ccc" style="fill:none;stroke:#000000;stroke-width:0.5;stroke-linecap:square;stroke-linejoin:miter;stroke-miterlimit:4;stroke-opacity:1;stroke-dasharray:0.5, 2;stroke-dashoffset:0" transform="translate(0,62.362)"/>
      <path d="m 360.25674,172.2554 101.42046,0" id="path3900" inkscape:connector-curvature="0" style="fill:none;stroke:#000000;stroke-width:0.5;stroke-linecap:square;stroke-linejoin:miter;stroke-miterlimit:4;stroke-opacity:1;stroke-dasharray:0.5, 2;stroke-dashoffset:0" transform="translate(0,62.362)"/>
      <path d="m 360.02887,183.75837 101.42045,0 -0.32041,28.39362" id="path3902" inkscape:connector-curvature="0" style="fill:none;stroke:#000000;stroke-width:0.5;stroke-linecap:square;stroke-linejoin:miter;stroke-miterlimit:4;stroke-opacity:1;stroke-dasharray:0.5, 2;stroke-dashoffset:0" transform="translate(0,62.362)"/>
      <path d="m 360.02887,187.75837 101.37531,0" id="path3904" inkscape:connector-curvature="0" style="fill:none;stroke:#000000;stroke-width:0.5;stroke-linecap:square;stroke-linejoin:miter;stroke-miterlimit:4;stroke-opacity:1;stroke-dasharray:0.5, 2;stroke-dashoffset:0" transform="translate(0,62.362)"/>
      <path d="m 461.6772,176.2554 2.96239,0 0,2.6052" id="path3906" inkscape:connector-curvature="0" style="fill:none;stroke:#000000;stroke-width:0.5;stroke-linecap:square;stroke-linejoin:miter;stroke-miterlimit:4;stroke-opacity:1;stroke-dasharray:0.5, 2;stroke-dashoffset:0" transform="translate(0,62.362)"/>
      <path d="m 461.44932,183.75837 3.30421,0 0,-2.61897" id="path3908" inkscape:connector-curvature="0" style="fill:none;stroke:#000000;stroke-width:0.5;stroke-linecap:square;stroke-linejoin:miter;stroke-miterlimit:4;stroke-opacity:1;stroke-dasharray:0.5, 2;stroke-dashoffset:0" transform="translate(0,62.362)"/>
      <path d="m 398.85707,206.48551 0,71.09738" id="path3910" inkscape:connector-curvature="0" style="fill:#000000;fill-opacity:1;fill-rule:nonzero;stroke:#808080;stroke-width:0.5;stroke-linecap:square;stroke-linejoin:miter;stroke-miterlimit:4;stroke-opacity:1;stroke-dasharray:none;stroke-dashoffset:0"/>
      <path d="m 424.11442,206.48551 0,71.09738" id="path3912" inkscape:connector-curvature="0" style="fill:#000000;fill-opacity:1;fill-rule:nonzero;stroke:#808080;stroke-width:0.5;stroke-linecap:square;stroke-linejoin:miter;stroke-miterlimit:4;stroke-opacity:1;stroke-dasharray:none;stroke-dashoffset:0"/>
      <path d="m 449.3718,206.48551 0,71.09738" id="path3914" inkscape:connector-curvature="0" style="fill:#000000;fill-opacity:1;fill-rule:nonzero;stroke:#808080;stroke-width:0.5;stroke-linecap:square;stroke-linejoin:miter;stroke-miterlimit:4;stroke-opacity:1;stroke-dasharray:none;stroke-dashoffset:0"/>
      <path d="m 373.59968,206.48551 0,71.09738" id="path3916" inkscape:connector-curvature="0" style="fill:#000000;fill-opacity:1;fill-rule:nonzero;stroke:#808080;stroke-width:0.5;stroke-linecap:square;stroke-linejoin:miter;stroke-miterlimit:4;stroke-opacity:1;stroke-dasharray:none;stroke-dashoffset:0"/>
      <path d="m 612.94924,219.95966 0,20.93749 6.3125,1.61133 -10.69141,2.51172 4.70117,1.61133 0,17.98047" id="path3956" inkscape:connector-curvature="0" sodipodi:nodetypes="cccccc" style="fill:none;stroke:#666666;stroke-width:0.5;stroke-linecap:square;stroke-linejoin:miter;stroke-miterlimit:4;stroke-opacity:1;stroke-dasharray:none;stroke-dashoffset:0"/>
    </g>
    <g id="g4038">
      <path d="m 648,144 0,72" id="path4009" inkscape:connector-curvature="0" style="fill:none;stroke:#000000;stroke-width:0.75;stroke-linecap:square;stroke-linejoin:miter;stroke-miterlimit:4;stroke-opacity:1;stroke-dasharray:4, 2, 1, 2;stroke-dashoffset:0" transform="translate(0,62.362)"/>
      <g id="g4029" transform="translate(2,12)">
        <g id="g4019">
          <text id="text4011" sodipodi:linespacing="125%" style="font-size:10px;font-style:normal;font-variant:normal;font-weight:normal;font-stretch:normal;text-align:start;line-height:125%;letter-spacing:0px;word-spacing:0px;writing-mode:lr-tb;text-anchor:start;fill:#000000;fill-opacity:1;stroke:none;font-family:Verdana;-inkscape-font-specification:Verdana" transform="translate(0,62.362)" x="641.30859" xml:space="preserve" y="115.69336"><tspan id="tspan4013" sodipodi:role="line" x="641.30859" y="115.69336">C</tspan></text>
          <text id="text4015" sodipodi:linespacing="125%" style="font-size:10px;font-style:normal;font-variant:normal;font-weight:normal;font-stretch:normal;text-align:start;line-height:125%;letter-spacing:0px;word-spacing:0px;writing-mode:lr-tb;text-anchor:start;fill:#000000;fill-opacity:1;stroke:none;font-family:Verdana;-inkscape-font-specification:Verdana" x="643.54492" xml:space="preserve" y="179.67645"><tspan id="tspan4017" sodipodi:role="line" x="643.54492" y="179.67645">L</tspan></text>
        </g>
        <text id="text4025" sodipodi:linespacing="125%" style="font-size:10px;font-style:normal;font-variant:normal;font-weight:normal;font-stretch:normal;text-align:start;line-height:125%;letter-spacing:0px;word-spacing:0px;writing-mode:lr-tb;text-anchor:start;fill:#000000;fill-opacity:1;stroke:none;font-family:Verdana;-inkscape-font-specification:Verdana" x="635.50781" xml:space="preserve" y="187.72333"><tspan id="tspan4027" sodipodi:role="line" x="635.50781" y="187.72333">sym.</tspan></text>
      </g>
    </g>
    <text id="text4049" sodipodi:linespacing="125%" style="font-size:12px;font-style:normal;font-variant:normal;font-weight:normal;font-stretch:normal;text-align:start;line-height:125%;letter-spacing:0px;word-spacing:0px;writing-mode:lr-tb;text-anchor:start;fill:#000000;fill-opacity:1;stroke:none;font-family:Verdana;-inkscape-font-specification:Verdana" transform="translate(0,62.362)" x="404.12109" xml:space="preserve" y="253.62305"><tspan id="tspan4051" sodipodi:role="line" x="404.12109" y="253.62305">Elevation</tspan></text>
    <path d="m 505.82032,210.60986 132.91669,0" id="path4053" inkscape:connector-curvature="0" sodipodi:nodetypes="cc" style="fill:none;stroke:#4d4d4d;stroke-width:0.75;stroke-linecap:square;stroke-linejoin:miter;stroke-miterlimit:4;stroke-opacity:1;stroke-dasharray:none;stroke-dashoffset:0" transform="translate(0,62.362)"/>
    <path d="m 614.6211,199.2833 24.57167,0" id="path4055" inkscape:connector-curvature="0" sodipodi:nodetypes="cc" style="fill:none;stroke:#4d4d4d;stroke-width:0.75;stroke-linecap:square;stroke-linejoin:miter;stroke-miterlimit:4;stroke-opacity:1;stroke-dasharray:none;stroke-dashoffset:0" transform="translate(0,62.362)"/>
    <path d="m 629.84984,234.60986 0,-23.94649 0,-11.38007" id="path4057" inkscape:connector-curvature="0" sodipodi:nodetypes="ccc" style="fill:none;stroke:#4d4d4d;stroke-width:0.75;stroke-linecap:square;stroke-linejoin:miter;stroke-miterlimit:4;stroke-opacity:1;stroke-dasharray:none;stroke-dashoffset:0;marker-start:none;marker-mid:url(#DimensionTick);marker-end:url(#DimensionTick)" transform="translate(0,62.362)"/>
    <text id="text4431" sodipodi:linespacing="125%" style="font-size:10px;font-style:normal;font-variant:normal;font-weight:normal;font-stretch:normal;text-align:start;line-height:125%;letter-spacing:0px;word-spacing:0px;writing-mode:lr-tb;text-anchor:start;fill:#000000;fill-opacity:1;stroke:none;font-family:Verdana;-inkscape-font-specification:Verdana" transform="matrix(0,-1,1,0,0,0)" x="-292.47833" xml:space="preserve" y="627.54181"><tspan id="tspan4433" sodipodi:role="line" x="-292.47833" y="627.54181">40</tspan></text>
    <path d="m 257.2494,238.51399 -26.18297,0" id="path5179" inkscape:connector-curvature="0" style="fill:none;stroke:#4d4d4d;stroke-width:0.75;stroke-linecap:square;stroke-linejoin:miter;stroke-miterlimit:4;stroke-opacity:1;stroke-dasharray:none;stroke-dashoffset:0"/>
    <path d="m 257.15874,210.12037 -26.09231,0" id="path5181" inkscape:connector-curvature="0" style="fill:none;stroke:#4d4d4d;stroke-width:0.75;stroke-linecap:square;stroke-linejoin:miter;stroke-miterlimit:4;stroke-opacity:1;stroke-dasharray:none;stroke-dashoffset:0"/>
    <path d="m 239.9536,210.12037 0.22788,28.39362" id="path5183" inkscape:connector-curvature="0" style="fill:none;stroke:#4d4d4d;stroke-width:0.75;stroke-linecap:square;stroke-linejoin:miter;stroke-miterlimit:4;stroke-opacity:1;stroke-dasharray:none;stroke-dashoffset:0;marker-start:url(#DimensionTick);marker-end:url(#DimensionTick)"/>
    <text id="text5557" sodipodi:linespacing="125%" style="font-size:10px;font-style:normal;font-variant:normal;font-weight:normal;font-stretch:normal;text-align:start;line-height:125%;letter-spacing:0px;word-spacing:0px;writing-mode:lr-tb;text-anchor:start;fill:#000000;fill-opacity:1;stroke:none;font-family:Verdana;-inkscape-font-specification:Verdana" transform="matrix(0,-1,1,0,0,0)" x="-234.4631" xml:space="preserve" y="238.20587"><tspan id="tspan5559" sodipodi:role="line" x="-234.4631" y="238.20587">102</tspan></text>
    <path d="m 252,296.362 8.00675,0 9.34293,0 25.06638,0 25.52214,0 25.06638,0 15.26771,0 13.21682,0 25.06638,0 25.52214,0 25.29425,0 11.84957,0 6.77855,0" id="path5561" inkscape:connector-curvature="0" sodipodi:nodetypes="ccccccccccccc" style="fill:none;stroke:#4d4d4d;stroke-width:0.75;stroke-linecap:square;stroke-linejoin:miter;stroke-miterlimit:4;stroke-opacity:1;stroke-dasharray:none;stroke-dashoffset:0;marker-start:none;marker-mid:url(#DimensionTick);marker-end:none"/>
    <path d="m 259.984,278.51399 0,21.84801" id="path5563" inkscape:connector-curvature="0" style="fill:none;stroke:#4d4d4d;stroke-width:0.75;stroke-linecap:square;stroke-linejoin:miter;stroke-miterlimit:4;stroke-opacity:1;stroke-dasharray:none;stroke-dashoffset:0"/>
    <path d="m 269.59968,281.58289 0,18.77911" id="path5565" inkscape:connector-curvature="0" style="fill:none;stroke:#4d4d4d;stroke-width:0.75;stroke-linecap:square;stroke-linejoin:miter;stroke-miterlimit:4;stroke-opacity:1;stroke-dasharray:none;stroke-dashoffset:0"/>
    <path d="m 294.85707,281.58289 0,18.77911" id="path5567" inkscape:connector-curvature="0" style="fill:none;stroke:#4d4d4d;stroke-width:0.75;stroke-linecap:square;stroke-linejoin:miter;stroke-miterlimit:4;stroke-opacity:1;stroke-dasharray:none;stroke-dashoffset:0"/>
    <path d="m 320.11442,281.58289 0,18.77911" id="path5569" inkscape:connector-curvature="0" style="fill:none;stroke:#4d4d4d;stroke-width:0.75;stroke-linecap:square;stroke-linejoin:miter;stroke-miterlimit:4;stroke-opacity:1;stroke-dasharray:none;stroke-dashoffset:0"/>
    <path d="m 345.3718,281.58289 0,18.77911" id="path5571" inkscape:connector-curvature="0" style="fill:none;stroke:#4d4d4d;stroke-width:0.75;stroke-linecap:square;stroke-linejoin:miter;stroke-miterlimit:4;stroke-opacity:1;stroke-dasharray:none;stroke-dashoffset:0"/>
    <path d="m 373.59968,281.58289 0,18.77911" id="path5573" inkscape:connector-curvature="0" style="fill:none;stroke:#4d4d4d;stroke-width:0.75;stroke-linecap:square;stroke-linejoin:miter;stroke-miterlimit:4;stroke-opacity:1;stroke-dasharray:none;stroke-dashoffset:0"/>
    <path d="m 398.85707,281.58289 0,18.77911" id="path5575" inkscape:connector-curvature="0" style="fill:none;stroke:#4d4d4d;stroke-width:0.75;stroke-linecap:square;stroke-linejoin:miter;stroke-miterlimit:4;stroke-opacity:1;stroke-dasharray:none;stroke-dashoffset:0"/>
    <path d="m 424.11442,281.58289 0,18.77911" id="path5577" inkscape:connector-curvature="0" style="fill:none;stroke:#4d4d4d;stroke-width:0.75;stroke-linecap:square;stroke-linejoin:miter;stroke-miterlimit:4;stroke-opacity:1;stroke-dasharray:none;stroke-dashoffset:0"/>
    <path d="m 449.3718,281.58289 0,18.77911" id="path5579" inkscape:connector-curvature="0" style="fill:none;stroke:#4d4d4d;stroke-width:0.75;stroke-linecap:square;stroke-linejoin:miter;stroke-miterlimit:4;stroke-opacity:1;stroke-dasharray:none;stroke-dashoffset:0"/>
    <path d="m 461.11968,278.51399 0,21.84801" id="path5581" inkscape:connector-curvature="0" sodipodi:nodetypes="cc" style="fill:none;stroke:#4d4d4d;stroke-width:0.75;stroke-linecap:square;stroke-linejoin:miter;stroke-miterlimit:4;stroke-opacity:1;stroke-dasharray:none;stroke-dashoffset:0"/>
    <text id="text6699" sodipodi:linespacing="125%" style="font-size:10px;font-style:normal;font-variant:normal;font-weight:normal;font-stretch:normal;text-align:start;line-height:125%;letter-spacing:0px;word-spacing:0px;writing-mode:lr-tb;text-anchor:start;fill:#000000;fill-opacity:1;stroke:none;font-family:Verdana;-inkscape-font-specification:Verdana" x="242.46028" xml:space="preserve" y="294.04086"><tspan id="tspan6701" sodipodi:role="line" x="242.46028" y="294.04086">40</tspan></text>
    <text id="text6703" sodipodi:linespacing="125%" style="font-size:10px;font-style:normal;font-variant:normal;font-weight:normal;font-stretch:normal;text-align:start;line-height:125%;letter-spacing:0px;word-spacing:0px;writing-mode:lr-tb;text-anchor:start;fill:#000000;fill-opacity:1;stroke:none;font-family:Verdana;-inkscape-font-specification:Verdana" x="464" xml:space="preserve" y="294.362"><tspan id="tspan6705" sodipodi:role="line" x="464" y="294.362">40</tspan></text>
    <text id="text6707" sodipodi:linespacing="125%" style="font-size:10px;font-style:normal;font-variant:normal;font-weight:normal;font-stretch:normal;text-align:start;line-height:125%;letter-spacing:0px;word-spacing:0px;writing-mode:lr-tb;text-anchor:start;fill:#000000;fill-opacity:1;stroke:none;font-family:Verdana;-inkscape-font-specification:Verdana" x="275.95807" xml:space="preserve" y="294.362"><tspan id="tspan6709" sodipodi:role="line" x="275.95807" y="294.362">75</tspan></text>
    <path d="m 360.2834,276.97186 0,23.39014" id="path6711" inkscape:connector-curvature="0" style="fill:none;stroke:#4d4d4d;stroke-width:0.75;stroke-linecap:square;stroke-linejoin:miter;stroke-miterlimit:4;stroke-opacity:1;stroke-dasharray:none;stroke-dashoffset:0"/>
    <text id="text6713" sodipodi:linespacing="125%" style="font-size:10px;font-style:normal;font-variant:normal;font-weight:normal;font-stretch:normal;text-align:start;line-height:125%;letter-spacing:0px;word-spacing:0px;writing-mode:lr-tb;text-anchor:start;fill:#000000;fill-opacity:1;stroke:none;font-family:Verdana;-inkscape-font-specification:Verdana" x="360.28339" xml:space="preserve" y="294.362"><tspan id="tspan6715" sodipodi:role="line" x="360.28339" y="294.362">40</tspan></text>
    <text id="text6717" sodipodi:linespacing="125%" style="font-size:10px;font-style:normal;font-variant:normal;font-weight:normal;font-stretch:normal;text-align:start;line-height:125%;letter-spacing:0px;word-spacing:0px;writing-mode:lr-tb;text-anchor:start;fill:#000000;fill-opacity:1;stroke:none;font-family:Verdana;-inkscape-font-specification:Verdana" x="345.3718" xml:space="preserve" y="294.362"><tspan id="tspan6719" sodipodi:role="line" x="345.3718" y="294.362">40</tspan></text>
    <text id="text6721" sodipodi:linespacing="125%" style="font-size:10px;font-style:normal;font-variant:normal;font-weight:normal;font-stretch:normal;text-align:start;line-height:125%;letter-spacing:0px;word-spacing:0px;writing-mode:lr-tb;text-anchor:start;fill:#000000;fill-opacity:1;stroke:none;font-family:Verdana;-inkscape-font-specification:Verdana" x="299.95807" xml:space="preserve" y="294.362"><tspan id="tspan6723" sodipodi:role="line" x="299.95807" y="294.362">75</tspan></text>
    <text id="text6725" sodipodi:linespacing="125%" style="font-size:10px;font-style:normal;font-variant:normal;font-weight:normal;font-stretch:normal;text-align:start;line-height:125%;letter-spacing:0px;word-spacing:0px;writing-mode:lr-tb;text-anchor:start;fill:#000000;fill-opacity:1;stroke:none;font-family:Verdana;-inkscape-font-specification:Verdana" x="325.95807" xml:space="preserve" y="294.362"><tspan id="tspan6727" sodipodi:role="line" x="325.95807" y="294.362">75</tspan></text>
    <text id="text6729" sodipodi:linespacing="125%" style="font-size:10px;font-style:normal;font-variant:normal;font-weight:normal;font-stretch:normal;text-align:start;line-height:125%;letter-spacing:0px;word-spacing:0px;writing-mode:lr-tb;text-anchor:start;fill:#000000;fill-opacity:1;stroke:none;font-family:Verdana;-inkscape-font-specification:Verdana" x="379.95807" xml:space="preserve" y="294.362"><tspan id="tspan6731" sodipodi:role="line" x="379.95807" y="294.362">75</tspan></text>
    <text id="text6733" sodipodi:linespacing="125%" style="font-size:10px;font-style:normal;font-variant:normal;font-weight:normal;font-stretch:normal;text-align:start;line-height:125%;letter-spacing:0px;word-spacing:0px;writing-mode:lr-tb;text-anchor:start;fill:#000000;fill-opacity:1;stroke:none;font-family:Verdana;-inkscape-font-specification:Verdana" x="405.95807" xml:space="preserve" y="294.362"><tspan id="tspan6735" sodipodi:role="line" x="405.95807" y="294.362">75</tspan></text>
    <text id="text6737" sodipodi:linespacing="125%" style="font-size:10px;font-style:normal;font-variant:normal;font-weight:normal;font-stretch:normal;text-align:start;line-height:125%;letter-spacing:0px;word-spacing:0px;writing-mode:lr-tb;text-anchor:start;fill:#000000;fill-opacity:1;stroke:none;font-family:Verdana;-inkscape-font-specification:Verdana" x="431.95807" xml:space="preserve" y="294.362"><tspan id="tspan6739" sodipodi:role="line" x="431.95807" y="294.362">75</tspan></text>
    <path d="m 152.75902,276.67513 0,21.36573" id="path6741" inkscape:connector-curvature="0" style="fill:none;stroke:#4d4d4d;stroke-width:0.75;stroke-linecap:square;stroke-linejoin:miter;stroke-miterlimit:4;stroke-opacity:1;stroke-dasharray:none;stroke-dashoffset:0"/>
    <path d="m 161.98396,276.67513 0,21.36573" id="path6743" inkscape:connector-curvature="0" style="fill:none;stroke:#4d4d4d;stroke-width:0.75;stroke-linecap:square;stroke-linejoin:miter;stroke-miterlimit:4;stroke-opacity:1;stroke-dasharray:none;stroke-dashoffset:0"/>
    <path d="m 152.75902,289.38157 9.22494,0 12.6931,0" id="path6745" inkscape:connector-curvature="0" style="fill:none;stroke:#4d4d4d;stroke-width:0.75;stroke-linecap:square;stroke-linejoin:miter;stroke-miterlimit:4;stroke-opacity:1;stroke-dasharray:none;stroke-dashoffset:0;marker-start:url(#DimensionTick);marker-mid:url(#DimensionTick)"/>
    <text id="text7119" sodipodi:linespacing="125%" style="font-size:10px;font-style:normal;font-variant:normal;font-weight:normal;font-stretch:normal;text-align:start;line-height:125%;letter-spacing:0px;word-spacing:0px;writing-mode:lr-tb;text-anchor:start;fill:#000000;fill-opacity:1;stroke:none;font-family:Verdana;-inkscape-font-specification:Verdana" x="164.75227" xml:space="preserve" y="286.82404"><tspan id="tspan7121" sodipodi:role="line" x="164.75227" y="286.82404">30</tspan></text>
    <path d="m 149.25892,127.48855 4.32964,0 5.01328,47.44914" id="path7125" inkscape:connector-curvature="0" sodipodi:nodetypes="ccc" style="fill:none;stroke:#000000;stroke-width:0.5;stroke-linecap:square;stroke-linejoin:miter;stroke-miterlimit:4;stroke-opacity:1;stroke-dasharray:none;stroke-dashoffset:0;marker-end:url(#Arrow1Mend)" transform="translate(0,62.362)"/>
    <path d="m 339.3457,128.26172 -27.07031,0 -9.99023,18.04687" id="path7769" inkscape:connector-curvature="0" style="fill:none;stroke:#000000;stroke-width:0.5;stroke-linecap:square;stroke-linejoin:miter;stroke-miterlimit:4;stroke-opacity:1;stroke-dasharray:none;stroke-dashoffset:0;marker-end:url(#Arrow1Mend)" transform="translate(0,62.362)"/>
    <path d="m 553.00781,141.15234 -21.91406,0 -12.56836,14.82422" id="path7961" inkscape:connector-curvature="0" style="fill:none;stroke:#000000;stroke-width:0.5;stroke-linecap:square;stroke-linejoin:miter;stroke-miterlimit:4;stroke-opacity:1;stroke-dasharray:none;stroke-dashoffset:0;marker-end:url(#Arrow1Mend)" transform="translate(0,62.362)"/>
  </g>
</svg>