<svg height="317.09293" id="svg2" inkscape:version="0.48.4 r9939" sodipodi:docname="angle.svg" version="1.1" viewBox="0 0 500.13333 338.23246" width="468.875" xmlns="http://www.w3.org/2000/svg" xmlns:cc="http://creativecommons.org/ns#" xmlns:dc="http://purl.org/dc/elements/1.1/" xmlns:inkscape="http://www.inkscape.org/namespaces/inkscape" xmlns:rdf="http://www.w3.org/1999/02/22-rdf-syntax-ns#" xmlns:sodipodi="http://sodipodi.sourceforge.net/DTD/sodipodi-0.dtd" xmlns:svg="http://www.w3.org/2000/svg" xmlns:xlink="http://www.w3.org/1999/xlink">
  <sodipodi:namedview bordercolor="#666666" borderopacity="1.0" fit-margin-bottom="0.2" fit-margin-left="0.2" fit-margin-right="0.2" fit-margin-top="0.2" id="base" inkscape:current-layer="layer1" inkscape:cx="273.09641" inkscape:cy="151.05196" inkscape:document-units="in" inkscape:guide-bbox="true" inkscape:pageopacity="0.0" inkscape:pageshadow="2" inkscape:snap-global="false" inkscape:window-height="979" inkscape:window-maximized="0" inkscape:window-width="1179" inkscape:window-x="368" inkscape:window-y="35" inkscape:zoom="2.02" pagecolor="#ffffff" showgrid="true" showguides="true" units="in">
    <inkscape:grid empspacing="5" enabled="true" id="grid2985" originx="-1.3958335in" originy="-6.8823009in" snapvisiblegridlinesonly="true" spacingx="0.1in" spacingy="0.1in" type="xygrid" units="in" visible="true"/>
    <sodipodi:guide id="guide3042" orientation="0,765" position="-125.62501,-619.40708"/>
    <sodipodi:guide id="guide3044" orientation="-990,0" position="690.37499,561.39292"/>
    <sodipodi:guide id="guide3046" orientation="0,-765" position="-116.02501,436.59292"/>
    <sodipodi:guide id="guide3048" orientation="990,0" position="-125.62501,370.59292"/>
    <sodipodi:guide id="guide3050" orientation="0,765" position="594.37499,-574.40708"/>
    <sodipodi:guide id="guide3052" orientation="-990,0" position="642.37499,542.19292"/>
    <sodipodi:guide id="guide3054" orientation="0,-765" position="-39.225012,388.59292"/>
    <sodipodi:guide id="guide3056" orientation="990,0" position="-77.625012,494.19292"/>
    <sodipodi:guide id="guide4251" orientation="0,1" position="8.0383574,288.51371"/>
    <sodipodi:guide id="guide4253" orientation="0,1" position="103.58291,242.47411"/>
    <sodipodi:guide id="guide4255" orientation="0,1" position="78.335388,235.04837"/>
    <sodipodi:guide id="guide4257" orientation="0,1" position="9.3749874,271.59292"/>
    <sodipodi:guide id="guide4274" orientation="1,0" position="97.642318,217.59787"/>
  </sodipodi:namedview>
  <script id="script3033" xlink:href=""/>
  <defs id="defs4">
    <!-- markers by NMH <nholtz@cee.carleton.ca> -->
    <marker id="DimensionTick" inkscape:stockid="DimensionTick" orient="auto" refX="0" refY="0" style="overflow:visible">
      <path d="M 0,0 8,8" id="path6" inkscape:connector-curvature="0" style="stroke:#4d4d4d;stroke-width:1px;marker-start:none" transform="translate(-4,-4)"/>
    </marker>
    <marker id="TrussNodeS" inkscape:stockid="TrussNodeS" markerUnits="userSpaceOnUse" orient="auto" refX="0" refY="0" style="overflow:visible">
      <circle cx="0" cy="0" id="circle9" r="3" sodipodi:cx="0" sodipodi:cy="0" sodipodi:rx="3" sodipodi:ry="3" style="fill:#ffffff;stroke:#000000;stroke-width:1"/>
    </marker>
    <marker id="TrussNodeM" inkscape:stockid="TrussNodeM" markerUnits="userSpaceOnUse" orient="auto" refX="0" refY="0" style="overflow:visible">
      <circle cx="0" cy="0" id="circle12" r="4" sodipodi:cx="0" sodipodi:cy="0" sodipodi:rx="4" sodipodi:ry="4" style="fill:#ffffff;stroke:#000000;stroke-width:1"/>
    </marker>
    <!-- patternss by NMH <nholtz@cee.carleton.ca> -->
    <pattern height="18" id="black-stripes-on-red" patternUnits="userSpaceOnUse" width="18" x="0" y="0">
      <path d="M 0,0 18,0 18,18 0,18 z" id="path3006" inkscape:connector-curvature="0" style="fill:#ff0000;stroke:none"/>
      <path d="M 0,9 9,0 11,0 0,11 z" id="path3008" inkscape:connector-curvature="0" style="fill:#000000;stroke:none"/>
      <path d="m 9,18 9,-9 0,2 -7,7 z" id="path5234" inkscape:connector-curvature="0" style="fill:#000000;stroke:none"/>
    </pattern>
  </defs>
  <metadata id="metadata7">
    <rdf:RDF>
      <cc:Work rdf:about="">
        <dc:format>image/svg+xml</dc:format>
        <dc:type rdf:resource="http://purl.org/dc/dcmitype/StillImage"/>
        <dc:title/>
        <cc:license rdf:resource="http://creativecommons.org/licenses/by-nc/3.0/"/>
      </cc:Work>
      <cc:License rdf:about="http://creativecommons.org/licenses/by-nc/3.0/">
        <cc:permits rdf:resource="http://creativecommons.org/ns#Reproduction"/>
        <cc:permits rdf:resource="http://creativecommons.org/ns#Distribution"/>
        <cc:requires rdf:resource="http://creativecommons.org/ns#Notice"/>
        <cc:requires rdf:resource="http://creativecommons.org/ns#Attribution"/>
        <cc:prohibits rdf:resource="http://creativecommons.org/ns#CommercialUse"/>
        <cc:permits rdf:resource="http://creativecommons.org/ns#DerivativeWorks"/>
      </cc:License>
    </rdf:RDF>
  </metadata>
  <g id="layer1" inkscape:groupmode="layer" inkscape:label="Layer 1" transform="translate(-134.00001,8.9333311)">
    <path d="m 576,297 -324,0" id="path5886" inkscape:connector-curvature="0" style="fill:none;stroke:#4d4d4d;stroke-width:1px;stroke-linecap:butt;stroke-linejoin:miter;stroke-opacity:1" transform="matrix(1.0666667,0,0,1.0666667,0,-66)"/>
    <path d="m 576,243 -324,0" id="path5884" inkscape:connector-curvature="0" style="fill:none;stroke:#4d4d4d;stroke-width:1px;stroke-linecap:butt;stroke-linejoin:miter;stroke-opacity:1" transform="matrix(1.0666667,0,0,1.0666667,0,-66)"/>
    <path d="m 207,117 0,23.95545" id="path4230" inkscape:connector-curvature="0" sodipodi:nodetypes="cc" style="fill:none;stroke:#666666;stroke-width:1px;stroke-linecap:butt;stroke-linejoin:miter;stroke-opacity:1" transform="matrix(1.0666667,0,0,1.0666667,0,-66)"/>
    <path d="m 186.43962,40.318155 25.28845,0" id="path4228" inkscape:connector-curvature="0" sodipodi:nodetypes="cc" style="fill:none;stroke:#666666;stroke-width:1.06666672px;stroke-linecap:butt;stroke-linejoin:miter;stroke-opacity:1"/>
    <g id="g4197" inkscape:label="Dsg: L102x76x13" transform="translate(192.48388,78.567914)">
      <path d="m 0,0 45.72,0 0,-5.56 a 2.06,2.06 0 0 0 -2.06,-2.06 l -29.86,0 A 6.18,6.18 0 0 1 7.62,-13.8 l 0,-41.22 a 2.06,2.06 0 0 0 -2.06,-2.06 l -5.56,0 z" id="path4199" inkscape:connector-curvature="0" style="fill:none;stroke:#000000;stroke-width:1;stroke-linecap:square;stroke-linejoin:miter;stroke-miterlimit:4;stroke-opacity:1;stroke-dasharray:none;stroke-dashoffset:0"/>
    </g>
    <rect height="10.643564" id="rect4259" style="fill:#000000;fill-opacity:1;stroke:#666666;stroke-width:1;stroke-linecap:butt;stroke-linejoin:round;stroke-miterlimit:4;stroke-opacity:0.03921569;stroke-dasharray:2, 2;stroke-dashoffset:0" transform="matrix(1.0666667,0,0,1.0666667,0,-66)" width="7.0544553" x="180.44554" y="94.33168"/>
    <rect height="7.0544553" id="rect4261" style="fill:#000000;fill-opacity:1;stroke:#666666;stroke-width:1;stroke-linecap:butt;stroke-linejoin:round;stroke-miterlimit:4;stroke-opacity:0.03921569;stroke-dasharray:2, 2;stroke-dashoffset:0" transform="matrix(1.0666667,0,0,1.0666667,0,-66)" width="11.386139" x="201.36139" y="128.36633"/>
    <path d="m 279,72 0,72" id="path4263" inkscape:connector-curvature="0" style="fill:#4d4d4d;stroke:#4d4d4d;stroke-width:1px;stroke-linecap:butt;stroke-linejoin:miter;stroke-opacity:1" transform="matrix(1.0666667,0,0,1.0666667,0,-66)"/>
    <path d="m 315,72 0,72" id="path4265" inkscape:connector-curvature="0" style="fill:none;stroke:#4d4d4d;stroke-width:1px;stroke-linecap:butt;stroke-linejoin:miter;stroke-opacity:1" transform="matrix(1.0666667,0,0,1.0666667,0,-66)"/>
    <path d="m 351,72 0,72" id="path4267" inkscape:connector-curvature="0" style="fill:none;stroke:#4d4d4d;stroke-width:1px;stroke-linecap:butt;stroke-linejoin:miter;stroke-opacity:1" transform="matrix(1.0666667,0,0,1.0666667,0,-66)"/>
    <path d="m 387,72 0,72" id="path4269" inkscape:connector-curvature="0" style="fill:none;stroke:#4d4d4d;stroke-width:1px;stroke-linecap:butt;stroke-linejoin:miter;stroke-opacity:1" transform="matrix(1.0666667,0,0,1.0666667,0,-66)"/>
    <path d="m 441,72 0,72" id="path4271" inkscape:connector-curvature="0" style="fill:none;stroke:#4d4d4d;stroke-width:1px;stroke-linecap:butt;stroke-linejoin:miter;stroke-opacity:1" transform="matrix(1.0666667,0,0,1.0666667,0,-66)"/>
    <path d="m 477,72 0,72" id="path4273" inkscape:connector-curvature="0" style="fill:none;stroke:#4d4d4d;stroke-width:1px;stroke-linecap:butt;stroke-linejoin:miter;stroke-opacity:1" transform="matrix(1.0666667,0,0,1.0666667,0,-66)"/>
    <path d="m 513,72 0,72" id="path4275" inkscape:connector-curvature="0" style="fill:none;stroke:#4d4d4d;stroke-width:1px;stroke-linecap:butt;stroke-linejoin:miter;stroke-opacity:1" transform="matrix(1.0666667,0,0,1.0666667,0,-66)"/>
    <path d="m 549,72 0,72" id="path4277" inkscape:connector-curvature="0" style="fill:none;stroke:#4d4d4d;stroke-width:1px;stroke-linecap:butt;stroke-linejoin:miter;stroke-opacity:1" transform="matrix(1.0666667,0,0,1.0666667,0,-66)"/>
    <path d="m 261,82.07921 0,53.46534 306,0 0,-53.46534 -306,0" id="path4281" inkscape:connector-curvature="0" style="fill:none;stroke:#000000;stroke-width:1px;stroke-linecap:butt;stroke-linejoin:miter;stroke-opacity:1" transform="matrix(1.0666667,0,0,1.0666667,0,-66)"/>
    <path d="m 261,128.11881 306,0" id="path4283" inkscape:connector-curvature="0" style="fill:none;stroke:#000000;stroke-width:1px;stroke-linecap:butt;stroke-linejoin:miter;stroke-opacity:1" transform="matrix(1.0666667,0,0,1.0666667,0,-66)"/>
    <path d="m 212.48209,99.640541 c 0,2.996599 -2.42922,5.425819 -5.42582,5.425819 -2.99659,0 -5.42581,-2.42922 -5.42581,-5.425819 0,-2.996597 2.42922,-5.425819 5.42581,-5.425819 2.95608,0 5.36818,2.366318 5.42483,5.321847 l -5.42483,0.103972 z" id="path4287" sodipodi:cx="207.05627" sodipodi:cy="99.640541" sodipodi:end="6.2640216" sodipodi:rx="5.4258194" sodipodi:ry="5.4258194" sodipodi:start="0" sodipodi:type="arc" style="fill:#000000;fill-opacity:1;stroke:#4d4d4d;stroke-width:1;stroke-linecap:butt;stroke-linejoin:round;stroke-miterlimit:4;stroke-opacity:0.03921569;stroke-dasharray:2, 2;stroke-dashoffset:0" transform="matrix(1.0666667,0,0,1.0666667,76.731587,-66.560085)"/>
    <path d="m 212.48209,99.640541 c 0,2.996599 -2.42922,5.425819 -5.42582,5.425819 -2.99659,0 -5.42581,-2.42922 -5.42581,-5.425819 0,-2.996597 2.42922,-5.425819 5.42581,-5.425819 2.95608,0 5.36818,2.366318 5.42483,5.321847 l -5.42483,0.103972 z" id="path4289" sodipodi:cx="207.05627" sodipodi:cy="99.640541" sodipodi:end="6.2640216" sodipodi:rx="5.4258194" sodipodi:ry="5.4258194" sodipodi:start="0" sodipodi:type="arc" style="fill:#000000;fill-opacity:1;stroke:#4d4d4d;stroke-width:1;stroke-linecap:butt;stroke-linejoin:round;stroke-miterlimit:4;stroke-opacity:0.03921569;stroke-dasharray:2, 2;stroke-dashoffset:0" transform="matrix(1.0666667,0,0,1.0666667,115.00403,-66.560085)"/>
    <path d="m 212.48209,99.640541 c 0,2.996599 -2.42922,5.425819 -5.42582,5.425819 -2.99659,0 -5.42581,-2.42922 -5.42581,-5.425819 0,-2.996597 2.42922,-5.425819 5.42581,-5.425819 2.95608,0 5.36818,2.366318 5.42483,5.321847 l -5.42483,0.103972 z" id="path4291" sodipodi:cx="207.05627" sodipodi:cy="99.640541" sodipodi:end="6.2640216" sodipodi:rx="5.4258194" sodipodi:ry="5.4258194" sodipodi:start="0" sodipodi:type="arc" style="fill:#000000;fill-opacity:1;stroke:#4d4d4d;stroke-width:1;stroke-linecap:butt;stroke-linejoin:round;stroke-miterlimit:4;stroke-opacity:0.03921569;stroke-dasharray:2, 2;stroke-dashoffset:0" transform="matrix(1.0666667,0,0,1.0666667,153.27649,-66.560085)"/>
    <path d="m 212.48209,99.640541 c 0,2.996599 -2.42922,5.425819 -5.42582,5.425819 -2.99659,0 -5.42581,-2.42922 -5.42581,-5.425819 0,-2.996597 2.42922,-5.425819 5.42581,-5.425819 2.95608,0 5.36818,2.366318 5.42483,5.321847 l -5.42483,0.103972 z" id="path4293" sodipodi:cx="207.05627" sodipodi:cy="99.640541" sodipodi:end="6.2640216" sodipodi:rx="5.4258194" sodipodi:ry="5.4258194" sodipodi:start="0" sodipodi:type="arc" style="fill:#000000;fill-opacity:1;stroke:#4d4d4d;stroke-width:1;stroke-linecap:butt;stroke-linejoin:round;stroke-miterlimit:4;stroke-opacity:0.03921569;stroke-dasharray:2, 2;stroke-dashoffset:0" transform="matrix(1.0666667,0,0,1.0666667,192.10899,-66.560085)"/>
    <rect height="7.5247526" id="rect4295" style="fill:#000000;fill-opacity:1;stroke:#666666;stroke-width:1.06666672;stroke-linecap:butt;stroke-linejoin:round;stroke-miterlimit:4;stroke-opacity:0.03921569;stroke-dasharray:2.1333334, 2.1333334;stroke-dashoffset:0" width="12.145215" x="464.24518" y="70.924095"/>
    <rect height="7.5247526" id="rect4297" style="fill:#000000;fill-opacity:1;stroke:#666666;stroke-width:1.06666672;stroke-linecap:butt;stroke-linejoin:round;stroke-miterlimit:4;stroke-opacity:0.03921569;stroke-dasharray:2.1333334, 2.1333334;stroke-dashoffset:0" width="12.145215" x="502.69684" y="71.078766"/>
    <rect height="7.5247526" id="rect4299" style="fill:#000000;fill-opacity:1;stroke:#666666;stroke-width:1.06666672;stroke-linecap:butt;stroke-linejoin:round;stroke-miterlimit:4;stroke-opacity:0.03921569;stroke-dasharray:2.1333334, 2.1333334;stroke-dashoffset:0" width="12.145215" x="541.15607" y="70.892067"/>
    <rect height="7.5247526" id="rect4301" style="fill:#000000;fill-opacity:1;stroke:#666666;stroke-width:1.06666672;stroke-linecap:butt;stroke-linejoin:round;stroke-miterlimit:4;stroke-opacity:0.03921569;stroke-dasharray:2.1333334, 2.1333334;stroke-dashoffset:0" width="12.145215" x="579.61523" y="71.078758"/>
    <path d="m 261,144 0,27" id="path3055" inkscape:connector-curvature="0" style="fill:none;stroke:#4d4d4d;stroke-width:0.75;stroke-linecap:butt;stroke-linejoin:miter;stroke-miterlimit:4;stroke-opacity:1;stroke-dasharray:none;stroke-dashoffset:0" transform="matrix(1.0666667,0,0,1.0666667,0,-66)"/>
    <path d="m 279,153 0,18" id="path3057" inkscape:connector-curvature="0" style="fill:none;stroke:#4d4d4d;stroke-width:0.75;stroke-linecap:butt;stroke-linejoin:miter;stroke-miterlimit:4;stroke-opacity:1;stroke-dasharray:none;stroke-dashoffset:0" transform="matrix(1.0666667,0,0,1.0666667,0,-66)"/>
    <path d="m 387,153 0,18" id="path3059" inkscape:connector-curvature="0" style="fill:none;stroke:#4d4d4d;stroke-width:0.75;stroke-linecap:butt;stroke-linejoin:miter;stroke-miterlimit:4;stroke-opacity:1;stroke-dasharray:none;stroke-dashoffset:0" transform="matrix(1.0666667,0,0,1.0666667,0,-66)"/>
    <path d="m 441,153 0,18" id="path3061" inkscape:connector-curvature="0" style="fill:none;stroke:#4d4d4d;stroke-width:0.75;stroke-linecap:butt;stroke-linejoin:miter;stroke-miterlimit:4;stroke-opacity:1;stroke-dasharray:none;stroke-dashoffset:0" transform="matrix(1.0666667,0,0,1.0666667,0,-66)"/>
    <path d="m 549,153 0,18" id="path3063" inkscape:connector-curvature="0" style="fill:none;stroke:#4d4d4d;stroke-width:0.75;stroke-linecap:butt;stroke-linejoin:miter;stroke-miterlimit:4;stroke-opacity:1;stroke-dasharray:none;stroke-dashoffset:0" transform="matrix(1.0666667,0,0,1.0666667,0,-66)"/>
    <path d="m 567,144 0,27" id="path3065" inkscape:connector-curvature="0" style="fill:none;stroke:#4d4d4d;stroke-width:0.75;stroke-linecap:butt;stroke-linejoin:miter;stroke-miterlimit:4;stroke-opacity:1;stroke-dasharray:none;stroke-dashoffset:0" transform="matrix(1.0666667,0,0,1.0666667,0,-66)"/>
    <path d="m 261,162 18,0 108,0 54,0 108,0 18,0" id="path3067" inkscape:connector-curvature="0" style="fill:none;stroke:#4d4d4d;stroke-width:0.75;stroke-linecap:butt;stroke-linejoin:miter;stroke-miterlimit:4;stroke-opacity:1;stroke-dasharray:none;stroke-dashoffset:0;marker-start:url(#DimensionTick);marker-mid:url(#DimensionTick);marker-end:url(#DimensionTick)" transform="matrix(1.0666667,0,0,1.0666667,0,-66)"/>
    <text id="text3069" sodipodi:linespacing="125%" style="font-size:10px;font-style:normal;font-variant:normal;font-weight:normal;font-stretch:normal;line-height:125%;letter-spacing:0px;word-spacing:0px;fill:#000000;fill-opacity:1;stroke:#4d4d4d;stroke-width:0;stroke-miterlimit:4;stroke-dasharray:none;font-family:Verdana;-inkscape-font-specification:DejaVu Sans" transform="translate(4.100019,-2.999995)" x="278.39999" xml:space="preserve" y="106.8"><tspan id="tspan3071" sodipodi:role="line" x="278.39999" y="106.8">40</tspan></text>
    <text id="text3073" sodipodi:linespacing="125%" style="font-size:10px;font-style:normal;font-variant:normal;font-weight:normal;font-stretch:normal;line-height:125%;letter-spacing:0px;word-spacing:0px;fill:#000000;fill-opacity:1;stroke:#4d4d4d;stroke-width:0;stroke-miterlimit:4;stroke-dasharray:none;font-family:Verdana;-inkscape-font-specification:DejaVu Sans" transform="translate(-0.699979,-3.999995)" x="326.39999" xml:space="preserve" y="106.8"><tspan id="tspan3075" sodipodi:role="line" x="326.39999" y="106.8">3@75=225</tspan></text>
    <text id="text3077" sodipodi:linespacing="125%" style="font-size:10px;font-style:normal;font-variant:normal;font-weight:normal;font-stretch:normal;line-height:125%;letter-spacing:0px;word-spacing:0px;fill:#000000;fill-opacity:1;stroke:#4d4d4d;stroke-width:0;stroke-miterlimit:4;stroke-dasharray:none;font-family:Verdana;-inkscape-font-specification:DejaVu Sans" transform="translate(4.100014,-2.999995)" x="432" xml:space="preserve" y="106.8"><tspan id="tspan3079" sodipodi:role="line" x="432" y="106.8">80</tspan></text>
    <text id="text3081" sodipodi:linespacing="125%" style="font-size:10px;font-style:normal;font-variant:normal;font-weight:normal;font-stretch:normal;line-height:125%;letter-spacing:0px;word-spacing:0px;fill:#000000;fill-opacity:1;stroke:#4d4d4d;stroke-width:0;stroke-miterlimit:4;stroke-dasharray:none;font-family:Verdana;-inkscape-font-specification:DejaVu Sans" transform="translate(-0.699994,-3.999995)" x="499.20001" xml:space="preserve" y="106.8"><tspan id="tspan3083" sodipodi:role="line" x="499.20001" y="106.8">3@75=225</tspan></text>
    <text id="text3085" sodipodi:linespacing="125%" style="font-size:10px;font-style:normal;font-variant:normal;font-weight:normal;font-stretch:normal;line-height:125%;letter-spacing:0px;word-spacing:0px;fill:#000000;fill-opacity:1;stroke:#4d4d4d;stroke-width:0;stroke-miterlimit:4;stroke-dasharray:none;font-family:Verdana;-inkscape-font-specification:DejaVu Sans" transform="translate(4.100039,-2.999995)" x="585.59998" xml:space="preserve" y="106.8"><tspan id="tspan3087" sodipodi:role="line" x="585.59998" y="106.8">40</tspan></text>
    <path d="m 180,144 0,36" id="path4272" inkscape:connector-curvature="0" style="fill:none;stroke:#4d4d4d;stroke-width:0.75;stroke-linecap:butt;stroke-linejoin:miter;stroke-opacity:1;stroke-dasharray:none;stroke-dashoffset:0" transform="matrix(1.0666667,0,0,1.0666667,0,-66)"/>
    <path d="m 223.26733,144 0,36" id="path4276" inkscape:connector-curvature="0" style="fill:none;stroke:#4d4d4d;stroke-width:0.75;stroke-linecap:butt;stroke-linejoin:miter;stroke-opacity:1;stroke-dasharray:none;stroke-dashoffset:0" transform="matrix(1.0666667,0,0,1.0666667,0,-66)"/>
    <path d="m 180,171 43.267,0" id="path4278" inkscape:connector-curvature="0" style="fill:none;stroke:#4d4d4d;stroke-width:0.75;stroke-linecap:butt;stroke-linejoin:miter;stroke-opacity:1;stroke-dasharray:none;stroke-dashoffset:0;marker-start:url(#DimensionTick);marker-mid:url(#DimensionTick);marker-end:url(#DimensionTick)" transform="matrix(1.0666667,0,0,1.0666667,0,-66)"/>
    <path d="m 207,164 0,-20" id="path4280" inkscape:connector-curvature="0" sodipodi:nodetypes="cc" style="fill:none;stroke:#4d4d4d;stroke-width:0.75;stroke-linecap:butt;stroke-linejoin:miter;stroke-opacity:1;stroke-dasharray:none;stroke-dashoffset:0" transform="matrix(1.0666667,0,0,1.0666667,0,-66)"/>
    <path d="m 180,162 27,0" id="path4282" inkscape:connector-curvature="0" style="fill:none;stroke:#4d4d4d;stroke-width:0.75;stroke-linecap:butt;stroke-linejoin:miter;stroke-opacity:1;stroke-dasharray:none;stroke-dashoffset:0;marker-start:url(#DimensionTick);marker-mid:url(#DimensionTick);marker-end:url(#DimensionTick)" transform="matrix(1.0666667,0,0,1.0666667,0,-66)"/>
    <text id="text4284" sodipodi:linespacing="125%" style="font-size:10.66666985px;font-style:normal;font-variant:normal;font-weight:normal;font-stretch:normal;line-height:125%;letter-spacing:0px;word-spacing:0px;fill:#000000;fill-opacity:1;stroke:none;font-family:Verdana;-inkscape-font-specification:DejaVu Sans" x="200.1478" xml:space="preserve" y="103.23572"><tspan id="tspan4286" sodipodi:role="line" x="200.1478" y="103.23572">g2</tspan></text>
    <text id="text4288" sodipodi:linespacing="125%" style="font-size:10.66666985px;font-style:normal;font-variant:normal;font-weight:normal;font-stretch:normal;line-height:125%;letter-spacing:0px;word-spacing:0px;fill:#000000;fill-opacity:1;stroke:none;font-family:Verdana;-inkscape-font-specification:DejaVu Sans" x="211.2" xml:space="preserve" y="126"><tspan id="tspan4290" sodipodi:role="line" x="211.2" y="126">b</tspan></text>
    <path d="m 171,99.40594 -16,0" id="path4766" inkscape:connector-curvature="0" sodipodi:nodetypes="cc" style="fill:none;stroke:#4d4d4d;stroke-width:0.75;stroke-linecap:butt;stroke-linejoin:miter;stroke-opacity:1;stroke-dasharray:none;stroke-dashoffset:0" transform="matrix(1.0666667,0,0,1.0666667,0,-66)"/>
    <path d="m 171,82.07921 -27,-3e-6" id="path4768" inkscape:connector-curvature="0" sodipodi:nodetypes="cc" style="fill:none;stroke:#4d4d4d;stroke-width:0.75;stroke-linecap:butt;stroke-linejoin:miter;stroke-opacity:1;stroke-dasharray:none;stroke-dashoffset:0" transform="matrix(1.0666667,0,0,1.0666667,0,-66)"/>
    <path d="m 171,135.54455 -27,0" id="path4770" inkscape:connector-curvature="0" sodipodi:nodetypes="cc" style="fill:none;stroke:#4d4d4d;stroke-width:0.75;stroke-linecap:butt;stroke-linejoin:miter;stroke-opacity:1;stroke-dasharray:none;stroke-dashoffset:0" transform="matrix(1.0666667,0,0,1.0666667,0,-66)"/>
    <path d="m 153,135.545 0,-53.4658" id="path4772" inkscape:connector-curvature="0" style="fill:none;stroke:#4d4d4d;stroke-width:0.75;stroke-linecap:butt;stroke-linejoin:miter;stroke-opacity:1;stroke-dasharray:none;stroke-dashoffset:0;marker-start:url(#DimensionTick);marker-mid:url(#DimensionTick);marker-end:url(#DimensionTick)" transform="matrix(1.0666667,0,0,1.0666667,0,-66)"/>
    <path d="m 162,135.545 0,-36.1391" id="path4774" inkscape:connector-curvature="0" style="fill:none;stroke:#4d4d4d;stroke-width:0.75;stroke-linecap:butt;stroke-linejoin:miter;stroke-opacity:1;stroke-dasharray:none;stroke-dashoffset:0;marker-start:url(#DimensionTick);marker-mid:url(#DimensionTick);marker-end:url(#DimensionTick)" transform="matrix(1.0666667,0,0,1.0666667,0,-66)"/>
    <text id="text4776" sodipodi:linespacing="125%" style="font-size:10.66666985px;font-style:normal;font-variant:normal;font-weight:normal;font-stretch:normal;line-height:125%;letter-spacing:0px;word-spacing:0px;fill:#000000;fill-opacity:1;stroke:none;font-family:Verdana;-inkscape-font-specification:DejaVu Sans" x="155.23959" xml:space="preserve" y="52.41497"><tspan id="tspan4778" sodipodi:role="line" x="155.23959" y="52.41497">d</tspan></text>
    <text id="text4780" sodipodi:linespacing="125%" style="font-size:10.66666698px;font-style:normal;font-variant:normal;font-weight:normal;font-stretch:normal;line-height:125%;letter-spacing:0px;word-spacing:0px;fill:#000000;fill-opacity:1;stroke:none;font-family:DejaVu Sans;-inkscape-font-specification:DejaVu Sans" x="173.73322" xml:space="preserve" y="62.499939"><tspan id="tspan4782" sodipodi:role="line" x="173.73322" y="62.499939">g1</tspan></text>
    <path d="M 297.60001,163.34377 297.6,279.6" id="path5840" inkscape:connector-curvature="0" sodipodi:nodetypes="cc" style="fill:#4d4d4d;stroke:#4d4d4d;stroke-width:1.06666672px;stroke-linecap:butt;stroke-linejoin:miter;stroke-opacity:1"/>
    <path d="M 336.00001,163.34377 336,279.6" id="path5842" inkscape:connector-curvature="0" sodipodi:nodetypes="cc" style="fill:none;stroke:#4d4d4d;stroke-width:1.06666672px;stroke-linecap:butt;stroke-linejoin:miter;stroke-opacity:1"/>
    <path d="M 374.40001,163.34377 374.4,279.6" id="path5844" inkscape:connector-curvature="0" sodipodi:nodetypes="cc" style="fill:none;stroke:#4d4d4d;stroke-width:1.06666672px;stroke-linecap:butt;stroke-linejoin:miter;stroke-opacity:1"/>
    <path d="M 412.80001,163.34377 412.8,279.6" id="path5846" inkscape:connector-curvature="0" sodipodi:nodetypes="cc" style="fill:none;stroke:#4d4d4d;stroke-width:1.06666672px;stroke-linecap:butt;stroke-linejoin:miter;stroke-opacity:1"/>
    <path d="M 470.40001,163.34377 470.39999,279.6" id="path5848" inkscape:connector-curvature="0" sodipodi:nodetypes="cc" style="fill:none;stroke:#4d4d4d;stroke-width:1.06666672px;stroke-linecap:butt;stroke-linejoin:miter;stroke-opacity:1"/>
    <path d="M 508.80002,163.34377 508.8,279.6" id="path5850" inkscape:connector-curvature="0" sodipodi:nodetypes="cc" style="fill:none;stroke:#4d4d4d;stroke-width:1.06666672px;stroke-linecap:butt;stroke-linejoin:miter;stroke-opacity:1"/>
    <path d="M 547.20002,163.34377 547.2,279.6" id="path5852" inkscape:connector-curvature="0" sodipodi:nodetypes="cc" style="fill:none;stroke:#4d4d4d;stroke-width:1.06666672px;stroke-linecap:butt;stroke-linejoin:miter;stroke-opacity:1"/>
    <path d="M 585.60002,163.34377 585.6,279.6" id="path5854" inkscape:connector-curvature="0" sodipodi:nodetypes="cc" style="fill:none;stroke:#4d4d4d;stroke-width:1.06666672px;stroke-linecap:butt;stroke-linejoin:miter;stroke-opacity:1"/>
    <path d="M 278.40001,174.09491 278.4,270 l 326.4,0 2e-5,-95.90509 -326.40001,0" id="path5856" inkscape:connector-curvature="0" sodipodi:nodetypes="ccccc" style="fill:none;stroke:#000000;stroke-width:1.06666672px;stroke-linecap:butt;stroke-linejoin:miter;stroke-opacity:1"/>
    <path d="m 212.48209,99.640541 c 0,2.996599 -2.42922,5.425819 -5.42582,5.425819 -2.99659,0 -5.42581,-2.42922 -5.42581,-5.425819 0,-2.996597 2.42922,-5.425819 5.42581,-5.425819 2.95608,0 5.36818,2.366318 5.42483,5.321847 l -5.42483,0.103972 z" id="path5860" sodipodi:cx="207.05627" sodipodi:cy="99.640541" sodipodi:end="6.2640216" sodipodi:rx="5.4258194" sodipodi:ry="5.4258194" sodipodi:start="0" sodipodi:type="arc" style="fill:#000000;fill-opacity:1;stroke:#4d4d4d;stroke-width:1;stroke-linecap:butt;stroke-linejoin:round;stroke-miterlimit:4;stroke-opacity:0.03921569;stroke-dasharray:2, 2;stroke-dashoffset:0" transform="matrix(1.0666667,0,0,1.0666667,76.731587,86.35718)"/>
    <path d="m 212.48209,99.640541 c 0,2.996599 -2.42922,5.425819 -5.42582,5.425819 -2.99659,0 -5.42581,-2.42922 -5.42581,-5.425819 0,-2.996597 2.42922,-5.425819 5.42581,-5.425819 2.95608,0 5.36818,2.366318 5.42483,5.321847 l -5.42483,0.103972 z" id="path5862" sodipodi:cx="207.05627" sodipodi:cy="99.640541" sodipodi:end="6.2640216" sodipodi:rx="5.4258194" sodipodi:ry="5.4258194" sodipodi:start="0" sodipodi:type="arc" style="fill:#000000;fill-opacity:1;stroke:#4d4d4d;stroke-width:1;stroke-linecap:butt;stroke-linejoin:round;stroke-miterlimit:4;stroke-opacity:0.03921569;stroke-dasharray:2, 2;stroke-dashoffset:0" transform="matrix(1.0666667,0,0,1.0666667,115.00403,86.35718)"/>
    <path d="m 212.48209,99.640541 c 0,2.996599 -2.42922,5.425819 -5.42582,5.425819 -2.99659,0 -5.42581,-2.42922 -5.42581,-5.425819 0,-2.996597 2.42922,-5.425819 5.42581,-5.425819 2.95608,0 5.36818,2.366318 5.42483,5.321847 l -5.42483,0.103972 z" id="path5864" sodipodi:cx="207.05627" sodipodi:cy="99.640541" sodipodi:end="6.2640216" sodipodi:rx="5.4258194" sodipodi:ry="5.4258194" sodipodi:start="0" sodipodi:type="arc" style="fill:#000000;fill-opacity:1;stroke:#4d4d4d;stroke-width:1;stroke-linecap:butt;stroke-linejoin:round;stroke-miterlimit:4;stroke-opacity:0.03921569;stroke-dasharray:2, 2;stroke-dashoffset:0" transform="matrix(1.0666667,0,0,1.0666667,153.27649,86.35718)"/>
    <path d="m 212.48209,99.640541 c 0,2.996599 -2.42922,5.425819 -5.42582,5.425819 -2.99659,0 -5.42581,-2.42922 -5.42581,-5.425819 0,-2.996597 2.42922,-5.425819 5.42581,-5.425819 2.95608,0 5.36818,2.366318 5.42483,5.321847 l -5.42483,0.103972 z" id="path5866" sodipodi:cx="207.05627" sodipodi:cy="99.640541" sodipodi:end="6.2640216" sodipodi:rx="5.4258194" sodipodi:ry="5.4258194" sodipodi:start="0" sodipodi:type="arc" style="fill:#000000;fill-opacity:1;stroke:#4d4d4d;stroke-width:1;stroke-linecap:butt;stroke-linejoin:round;stroke-miterlimit:4;stroke-opacity:0.03921569;stroke-dasharray:2, 2;stroke-dashoffset:0" transform="matrix(1.0666667,0,0,1.0666667,192.10899,86.35718)"/>
    <path d="m 212.48209,99.640541 c 0,2.996599 -2.42922,5.425819 -5.42582,5.425819 -2.99659,0 -5.42581,-2.42922 -5.42581,-5.425819 0,-2.996597 2.42922,-5.425819 5.42581,-5.425819 2.95608,0 5.36818,2.366318 5.42483,5.321847 l -5.42483,0.103972 z" id="path5876" sodipodi:cx="207.05627" sodipodi:cy="99.640541" sodipodi:end="6.2640216" sodipodi:rx="5.4258194" sodipodi:ry="5.4258194" sodipodi:start="0" sodipodi:type="arc" style="fill:#000000;fill-opacity:1;stroke:#4d4d4d;stroke-width:1;stroke-linecap:butt;stroke-linejoin:round;stroke-miterlimit:4;stroke-opacity:0.03921569;stroke-dasharray:2, 2;stroke-dashoffset:0" transform="matrix(1.0666667,0,0,1.0666667,249.98442,144.23259)"/>
    <path d="m 212.48209,99.640541 c 0,2.996599 -2.42922,5.425819 -5.42582,5.425819 -2.99659,0 -5.42581,-2.42922 -5.42581,-5.425819 0,-2.996597 2.42922,-5.425819 5.42581,-5.425819 2.95608,0 5.36818,2.366318 5.42483,5.321847 l -5.42483,0.103972 z" id="path5878" sodipodi:cx="207.05627" sodipodi:cy="99.640541" sodipodi:end="6.2640216" sodipodi:rx="5.4258194" sodipodi:ry="5.4258194" sodipodi:start="0" sodipodi:type="arc" style="fill:#000000;fill-opacity:1;stroke:#4d4d4d;stroke-width:1;stroke-linecap:butt;stroke-linejoin:round;stroke-miterlimit:4;stroke-opacity:0.03921569;stroke-dasharray:2, 2;stroke-dashoffset:0" transform="matrix(1.0666667,0,0,1.0666667,288.25686,144.23259)"/>
    <path d="m 212.48209,99.640541 c 0,2.996599 -2.42922,5.425819 -5.42582,5.425819 -2.99659,0 -5.42581,-2.42922 -5.42581,-5.425819 0,-2.996597 2.42922,-5.425819 5.42581,-5.425819 2.95608,0 5.36818,2.366318 5.42483,5.321847 l -5.42483,0.103972 z" id="path5880" sodipodi:cx="207.05627" sodipodi:cy="99.640541" sodipodi:end="6.2640216" sodipodi:rx="5.4258194" sodipodi:ry="5.4258194" sodipodi:start="0" sodipodi:type="arc" style="fill:#000000;fill-opacity:1;stroke:#4d4d4d;stroke-width:1;stroke-linecap:butt;stroke-linejoin:round;stroke-miterlimit:4;stroke-opacity:0.03921569;stroke-dasharray:2, 2;stroke-dashoffset:0" transform="matrix(1.0666667,0,0,1.0666667,326.52932,144.23259)"/>
    <path d="m 212.48209,99.640541 c 0,2.996599 -2.42922,5.425819 -5.42582,5.425819 -2.99659,0 -5.42581,-2.42922 -5.42581,-5.425819 0,-2.996597 2.42922,-5.425819 5.42581,-5.425819 2.95608,0 5.36818,2.366318 5.42483,5.321847 l -5.42483,0.103972 z" id="path5882" sodipodi:cx="207.05627" sodipodi:cy="99.640541" sodipodi:end="6.2640216" sodipodi:rx="5.4258194" sodipodi:ry="5.4258194" sodipodi:start="0" sodipodi:type="arc" style="fill:#000000;fill-opacity:1;stroke:#4d4d4d;stroke-width:1;stroke-linecap:butt;stroke-linejoin:round;stroke-miterlimit:4;stroke-opacity:0.03921569;stroke-dasharray:2, 2;stroke-dashoffset:0" transform="matrix(1.0666667,0,0,1.0666667,365.36182,144.23259)"/>
    <path d="m 252,315 -63,0" id="path5888" inkscape:connector-curvature="0" style="fill:none;stroke:#4d4d4d;stroke-width:0.75;stroke-linecap:butt;stroke-linejoin:miter;stroke-opacity:1;stroke-dasharray:none;stroke-dashoffset:0" transform="matrix(1.0666667,0,0,1.0666667,0,-66)"/>
    <path d="m 243,297 -36,0" id="path5890" inkscape:connector-curvature="0" style="fill:none;stroke:#4d4d4d;stroke-width:0.75;stroke-linecap:butt;stroke-linejoin:miter;stroke-opacity:1;stroke-dasharray:none;stroke-dashoffset:0" transform="matrix(1.0666667,0,0,1.0666667,0,-66)"/>
    <path d="m 243,243 -36,0" id="path5892" inkscape:connector-curvature="0" style="fill:none;stroke:#4d4d4d;stroke-width:0.75;stroke-linecap:butt;stroke-linejoin:miter;stroke-opacity:1;stroke-dasharray:none;stroke-dashoffset:0" transform="matrix(1.0666667,0,0,1.0666667,0,-66)"/>
    <path d="m 252,225 -63,0" id="path5894" inkscape:connector-curvature="0" style="fill:none;stroke:#4d4d4d;stroke-width:0.75;stroke-linecap:butt;stroke-linejoin:miter;stroke-opacity:1;stroke-dasharray:none;stroke-dashoffset:0" transform="matrix(1.0666667,0,0,1.0666667,0,-66)"/>
    <path d="m 198,315 0,-90" id="path5896" inkscape:connector-curvature="0" style="fill:none;stroke:#4d4d4d;stroke-width:0.75;stroke-linecap:butt;stroke-linejoin:miter;stroke-opacity:1;stroke-dasharray:none;stroke-dashoffset:0;marker-start:url(#DimensionTick);marker-mid:url(#DimensionTick);marker-end:url(#DimensionTick)" transform="matrix(1.0666667,0,0,1.0666667,0,-66)"/>
    <path d="m 225,297 0,-54" id="path5898" inkscape:connector-curvature="0" style="fill:none;stroke:#4d4d4d;stroke-width:0.75;stroke-linecap:butt;stroke-linejoin:miter;stroke-opacity:1;stroke-dasharray:none;stroke-dashoffset:0;marker-start:url(#DimensionTick);marker-mid:url(#DimensionTick);marker-end:url(#DimensionTick)" transform="matrix(1.0666667,0,0,1.0666667,0,-66)"/>
    <text id="text5900" sodipodi:linespacing="125%" style="font-size:10px;font-style:normal;font-variant:normal;font-weight:normal;font-stretch:normal;line-height:125%;letter-spacing:0px;word-spacing:0px;fill:#000000;fill-opacity:1;stroke:none;font-family:Verdana;-inkscape-font-specification:DejaVu Sans" transform="matrix(0,-1,1,0,-13.799993,418.9)" x="182.39999" xml:space="preserve" y="222"><tspan id="tspan5902" sodipodi:role="line" x="182.39999" y="222">d+b-t</tspan></text>
    <text id="text5904" sodipodi:linespacing="125%" style="font-size:10px;font-style:normal;font-variant:normal;font-weight:normal;font-stretch:normal;line-height:125%;letter-spacing:0px;word-spacing:0px;fill:#000000;fill-opacity:1;stroke:none;font-family:Verdana;-inkscape-font-specification:DejaVu Sans" transform="matrix(0,-1.066667,1.066667,0,-52.697303,469.4008)" x="211.78198" xml:space="preserve" y="269.59122"><tspan id="tspan5906" sodipodi:role="line" x="211.78198" y="269.59122">g1+g2-t</tspan></text>
    <text id="text6376" sodipodi:linespacing="125%" style="font-size:10.66666698px;font-style:normal;font-variant:normal;font-weight:normal;font-stretch:normal;line-height:125%;letter-spacing:0px;word-spacing:0px;fill:#000000;fill-opacity:1;stroke:none;font-family:DejaVu Sans;-inkscape-font-specification:DejaVu Sans" x="407.68921" xml:space="preserve" y="309.94809"><tspan id="tspan6378" sodipodi:role="line" x="407.68921" y="309.94809">&quot;flattened&quot;</tspan></text>
    <path d="m 385.25743,210 0.25742,33 54,54 0.01,31" id="path6380" inkscape:connector-curvature="0" sodipodi:nodetypes="cccc" style="fill:none;stroke:#008000;stroke-width:0.99999994;stroke-linecap:butt;stroke-linejoin:miter;stroke-miterlimit:4;stroke-opacity:1;stroke-dasharray:0.99999997, 0.99999997;stroke-dashoffset:0" transform="matrix(1.0666667,0,0,1.0666667,0,-66)"/>
    <path d="m 442.23762,211 0.0198,85.99999 L 442.23762,328" id="path6382" inkscape:connector-curvature="0" sodipodi:nodetypes="ccc" style="fill:none;stroke:#ff0000;stroke-width:0.99999994;stroke-linecap:butt;stroke-linejoin:miter;stroke-miterlimit:4;stroke-opacity:1;stroke-dasharray:0.99999997, 0.99999997;stroke-dashoffset:0" transform="matrix(1.0666667,0,0,1.0666667,0,-66)"/>
    <text id="text6384" sodipodi:linespacing="125%" style="font-size:10.66666698px;font-style:normal;font-variant:normal;font-weight:normal;font-stretch:normal;text-align:start;line-height:125%;letter-spacing:0px;word-spacing:0px;writing-mode:lr-tb;text-anchor:start;fill:#ff0000;fill-opacity:1;stroke:none;font-family:Verdana;-inkscape-font-specification:Verdana" x="473.13531" xml:space="preserve" y="161.13664"><tspan id="tspan6386" sodipodi:role="line" x="473.13531" y="161.13664">1</tspan></text>
    <text id="text6388" sodipodi:linespacing="125%" style="font-size:10.66666698px;font-style:normal;font-variant:normal;font-weight:normal;font-stretch:normal;text-align:start;line-height:125%;letter-spacing:0px;word-spacing:0px;writing-mode:lr-tb;text-anchor:start;fill:#ff0000;fill-opacity:1;stroke:none;font-family:Verdana;-inkscape-font-specification:Verdana" x="473.13531" xml:space="preserve" y="285.76767"><tspan id="tspan6390" sodipodi:role="line" x="473.13531" y="285.76767">1</tspan></text>
    <text id="text6392" sodipodi:linespacing="125%" style="font-size:10.66666698px;font-style:normal;font-variant:normal;font-weight:normal;font-stretch:normal;line-height:125%;letter-spacing:0px;word-spacing:0px;fill:#008000;fill-opacity:1;stroke:none;font-family:DejaVu Sans;-inkscape-font-specification:DejaVu Sans" x="403.16833" xml:space="preserve" y="159.63698"><tspan id="tspan6394" sodipodi:role="line" x="403.16833" y="159.63698">2</tspan></text>
    <text id="text6396" sodipodi:linespacing="125%" style="font-size:10.66666698px;font-style:normal;font-variant:normal;font-weight:normal;font-stretch:normal;line-height:125%;letter-spacing:0px;word-spacing:0px;fill:#008000;fill-opacity:1;stroke:none;font-family:DejaVu Sans;-inkscape-font-specification:DejaVu Sans" x="460.7261" xml:space="preserve" y="286.36966"><tspan id="tspan6398" sodipodi:role="line" x="460.7261" y="286.36966">2</tspan></text>
  </g>
</svg>