solid OpenSCAD_Model
  facet normal 0.629307 0.777157 -0
    outer loop
      vertex 12.3789 13.7482 0
      vertex 10.874 14.9668 3
      vertex 12.3789 13.7482 3
    endloop
  endfacet
  facet normal 0.629307 0.777157 0
    outer loop
      vertex 10.874 14.9668 3
      vertex 12.3789 13.7482 0
      vertex 10.874 14.9668 0
    endloop
  endfacet
  facet normal 0.998631 -0.0523127 0
    outer loop
      vertex 18.3987 -1.93378 3
      vertex 18.5 0 0
      vertex 18.5 0 3
    endloop
  endfacet
  facet normal 0.998631 -0.0523127 0
    outer loop
      vertex 18.5 0 0
      vertex 18.3987 -1.93378 3
      vertex 18.3987 -1.93378 0
    endloop
  endfacet
  facet normal -0.358342 0.93359 0
    outer loop
      vertex -5.71681 17.5945 0
      vertex -7.52463 16.9006 3
      vertex -5.71681 17.5945 3
    endloop
  endfacet
  facet normal -0.358342 0.93359 0
    outer loop
      vertex -7.52463 16.9006 3
      vertex -5.71681 17.5945 0
      vertex -7.52463 16.9006 0
    endloop
  endfacet
  facet normal -0.891011 0.453982 0
    outer loop
      vertex -16.9006 7.52463 0
      vertex -16.0215 9.25 3
      vertex -16.0215 9.25 0
    endloop
  endfacet
  facet normal -0.891011 0.453982 0
    outer loop
      vertex -16.0215 9.25 3
      vertex -16.9006 7.52463 0
      vertex -16.9006 7.52463 3
    endloop
  endfacet
  facet normal -0.453982 -0.891011 0
    outer loop
      vertex -9.25 -16.0215 0
      vertex -7.52463 -16.9006 3
      vertex -9.25 -16.0215 3
    endloop
  endfacet
  facet normal -0.453982 -0.891011 -0
    outer loop
      vertex -7.52463 -16.9006 3
      vertex -9.25 -16.0215 0
      vertex -7.52463 -16.9006 0
    endloop
  endfacet
  facet normal 0.93359 0.358342 0
    outer loop
      vertex 17.5945 5.71681 3
      vertex 16.9006 7.52463 0
      vertex 16.9006 7.52463 3
    endloop
  endfacet
  facet normal 0.93359 0.358342 0
    outer loop
      vertex 16.9006 7.52463 0
      vertex 17.5945 5.71681 3
      vertex 17.5945 5.71681 0
    endloop
  endfacet
  facet normal 0.891011 0.453982 0
    outer loop
      vertex 16.9006 7.52463 3
      vertex 16.0215 9.25 0
      vertex 16.0215 9.25 3
    endloop
  endfacet
  facet normal 0.891011 0.453982 0
    outer loop
      vertex 16.0215 9.25 0
      vertex 16.9006 7.52463 3
      vertex 16.9006 7.52463 0
    endloop
  endfacet
  facet normal 0.453982 0.891011 -0
    outer loop
      vertex 9.25 16.0215 0
      vertex 7.52463 16.9006 3
      vertex 9.25 16.0215 3
    endloop
  endfacet
  facet normal 0.453982 0.891011 0
    outer loop
      vertex 7.52463 16.9006 3
      vertex 9.25 16.0215 0
      vertex 7.52463 16.9006 0
    endloop
  endfacet
  facet normal -0.987682 0.156473 0
    outer loop
      vertex -18.3987 1.93378 0
      vertex -18.0957 3.84637 3
      vertex -18.0957 3.84637 0
    endloop
  endfacet
  facet normal -0.987682 0.156473 0
    outer loop
      vertex -18.0957 3.84637 3
      vertex -18.3987 1.93378 0
      vertex -18.3987 1.93378 3
    endloop
  endfacet
  facet normal -0.707107 0.707107 0
    outer loop
      vertex -13.7482 12.3789 0
      vertex -12.3789 13.7482 3
      vertex -12.3789 13.7482 0
    endloop
  endfacet
  facet normal -0.707107 0.707107 0
    outer loop
      vertex -12.3789 13.7482 3
      vertex -13.7482 12.3789 0
      vertex -13.7482 12.3789 3
    endloop
  endfacet
  facet normal -0.156473 0.987682 0
    outer loop
      vertex -1.93378 18.3987 0
      vertex -3.84637 18.0957 3
      vertex -1.93378 18.3987 3
    endloop
  endfacet
  facet normal -0.156473 0.987682 0
    outer loop
      vertex -3.84637 18.0957 3
      vertex -1.93378 18.3987 0
      vertex -3.84637 18.0957 0
    endloop
  endfacet
  facet normal -0.629307 0.777157 0
    outer loop
      vertex -10.874 14.9668 0
      vertex -12.3789 13.7482 3
      vertex -10.874 14.9668 3
    endloop
  endfacet
  facet normal -0.629307 0.777157 0
    outer loop
      vertex -12.3789 13.7482 3
      vertex -10.874 14.9668 0
      vertex -12.3789 13.7482 0
    endloop
  endfacet
  facet normal 0.777157 -0.629307 0
    outer loop
      vertex 13.7482 -12.3789 3
      vertex 14.9668 -10.874 0
      vertex 14.9668 -10.874 3
    endloop
  endfacet
  facet normal 0.777157 -0.629307 0
    outer loop
      vertex 14.9668 -10.874 0
      vertex 13.7482 -12.3789 3
      vertex 13.7482 -12.3789 0
    endloop
  endfacet
  facet normal 0.93359 -0.358342 0
    outer loop
      vertex 16.9006 -7.52463 3
      vertex 17.5945 -5.71681 0
      vertex 17.5945 -5.71681 3
    endloop
  endfacet
  facet normal 0.93359 -0.358342 0
    outer loop
      vertex 17.5945 -5.71681 0
      vertex 16.9006 -7.52463 3
      vertex 16.9006 -7.52463 0
    endloop
  endfacet
  facet normal -0.156473 -0.987682 0
    outer loop
      vertex -3.84637 -18.0957 0
      vertex -1.93378 -18.3987 3
      vertex -3.84637 -18.0957 3
    endloop
  endfacet
  facet normal -0.156473 -0.987682 -0
    outer loop
      vertex -1.93378 -18.3987 3
      vertex -3.84637 -18.0957 0
      vertex -1.93378 -18.3987 0
    endloop
  endfacet
  facet normal -0.707107 -0.707107 0
    outer loop
      vertex -12.3789 -13.7482 0
      vertex -13.7482 -12.3789 3
      vertex -13.7482 -12.3789 0
    endloop
  endfacet
  facet normal -0.707107 -0.707107 0
    outer loop
      vertex -13.7482 -12.3789 3
      vertex -12.3789 -13.7482 0
      vertex -12.3789 -13.7482 3
    endloop
  endfacet
  facet normal 0 0 -1
    outer loop
      vertex 10.5 0 0
      vertex 18.5 0 0
      vertex 18.3987 -1.93378 0
    endloop
  endfacet
  facet normal 0 0 -1
    outer loop
      vertex 10.4425 -1.09755 0
      vertex 18.3987 -1.93378 0
      vertex 18.0957 -3.84637 0
    endloop
  endfacet
  facet normal 0 0 -1
    outer loop
      vertex 18.5 0 0
      vertex 10.5 0 0
      vertex 18.3987 1.93378 0
    endloop
  endfacet
  facet normal 0 0 -1
    outer loop
      vertex 10.2705 -2.18307 0
      vertex 18.0957 -3.84637 0
      vertex 17.5945 -5.71681 0
    endloop
  endfacet
  facet normal 0 0 -1
    outer loop
      vertex 10.4425 1.09755 0
      vertex 18.3987 1.93378 0
      vertex 10.5 0 0
    endloop
  endfacet
  facet normal 0 0 -1
    outer loop
      vertex 9.98609 -3.24468 0
      vertex 17.5945 -5.71681 0
      vertex 16.9006 -7.52463 0
    endloop
  endfacet
  facet normal -0 0 -1
    outer loop
      vertex 18.3987 1.93378 0
      vertex 10.4425 1.09755 0
      vertex 18.0957 3.84637 0
    endloop
  endfacet
  facet normal 0 0 -1
    outer loop
      vertex 9.59223 -4.27073 0
      vertex 16.9006 -7.52463 0
      vertex 16.0215 -9.25 0
    endloop
  endfacet
  facet normal 0 0 -1
    outer loop
      vertex 10.2705 2.18307 0
      vertex 18.0957 3.84637 0
      vertex 10.4425 1.09755 0
    endloop
  endfacet
  facet normal 0 0 -1
    outer loop
      vertex 9.09327 -5.25 0
      vertex 16.0215 -9.25 0
      vertex 14.9668 -10.874 0
    endloop
  endfacet
  facet normal -0 0 -1
    outer loop
      vertex 18.0957 3.84637 0
      vertex 10.2705 2.18307 0
      vertex 17.5945 5.71681 0
    endloop
  endfacet
  facet normal 0 0 -1
    outer loop
      vertex 8.49468 -6.17174 0
      vertex 14.9668 -10.874 0
      vertex 13.7482 -12.3789 0
    endloop
  endfacet
  facet normal 0 0 -1
    outer loop
      vertex 9.98609 3.24468 0
      vertex 17.5945 5.71681 0
      vertex 10.2705 2.18307 0
    endloop
  endfacet
  facet normal 0 0 -1
    outer loop
      vertex 7.80302 -7.02587 0
      vertex 13.7482 -12.3789 0
      vertex 12.3789 -13.7482 0
    endloop
  endfacet
  facet normal -0 0 -1
    outer loop
      vertex 17.5945 5.71681 0
      vertex 9.98609 3.24468 0
      vertex 16.9006 7.52463 0
    endloop
  endfacet
  facet normal 0 0 -1
    outer loop
      vertex 7.02587 -7.80302 0
      vertex 12.3789 -13.7482 0
      vertex 10.874 -14.9668 0
    endloop
  endfacet
  facet normal 0 0 -1
    outer loop
      vertex 9.59223 4.27073 0
      vertex 16.9006 7.52463 0
      vertex 9.98609 3.24468 0
    endloop
  endfacet
  facet normal -0 0 -1
    outer loop
      vertex 16.9006 7.52463 0
      vertex 9.59223 4.27073 0
      vertex 16.0215 9.25 0
    endloop
  endfacet
  facet normal 0 0 -1
    outer loop
      vertex 18.3987 -1.93378 0
      vertex 10.4425 -1.09755 0
      vertex 10.5 0 0
    endloop
  endfacet
  facet normal 0 0 -1
    outer loop
      vertex 18.0957 -3.84637 0
      vertex 10.2705 -2.18307 0
      vertex 10.4425 -1.09755 0
    endloop
  endfacet
  facet normal 0 0 -1
    outer loop
      vertex 17.5945 -5.71681 0
      vertex 9.98609 -3.24468 0
      vertex 10.2705 -2.18307 0
    endloop
  endfacet
  facet normal 0 0 -1
    outer loop
      vertex 16.9006 -7.52463 0
      vertex 9.59223 -4.27073 0
      vertex 9.98609 -3.24468 0
    endloop
  endfacet
  facet normal 0 0 -1
    outer loop
      vertex 6.17174 -8.49468 0
      vertex 10.874 -14.9668 0
      vertex 9.25 -16.0215 0
    endloop
  endfacet
  facet normal 0 0 -1
    outer loop
      vertex 16.0215 -9.25 0
      vertex 9.09327 -5.25 0
      vertex 9.59223 -4.27073 0
    endloop
  endfacet
  facet normal 0 0 -1
    outer loop
      vertex 14.9668 -10.874 0
      vertex 8.49468 -6.17174 0
      vertex 9.09327 -5.25 0
    endloop
  endfacet
  facet normal 0 0 -1
    outer loop
      vertex 13.7482 -12.3789 0
      vertex 7.80302 -7.02587 0
      vertex 8.49468 -6.17174 0
    endloop
  endfacet
  facet normal 0 0 -1
    outer loop
      vertex 5.25 -9.09327 0
      vertex 9.25 -16.0215 0
      vertex 7.52463 -16.9006 0
    endloop
  endfacet
  facet normal 0 0 -1
    outer loop
      vertex 12.3789 -13.7482 0
      vertex 7.02587 -7.80302 0
      vertex 7.80302 -7.02587 0
    endloop
  endfacet
  facet normal 0 0 -1
    outer loop
      vertex 10.874 -14.9668 0
      vertex 6.17174 -8.49468 0
      vertex 7.02587 -7.80302 0
    endloop
  endfacet
  facet normal 0 0 -1
    outer loop
      vertex 4.27073 -9.59223 0
      vertex 7.52463 -16.9006 0
      vertex 5.71681 -17.5945 0
    endloop
  endfacet
  facet normal 0 0 -1
    outer loop
      vertex 9.25 -16.0215 0
      vertex 5.25 -9.09327 0
      vertex 6.17174 -8.49468 0
    endloop
  endfacet
  facet normal 0 0 -1
    outer loop
      vertex 7.52463 -16.9006 0
      vertex 4.27073 -9.59223 0
      vertex 5.25 -9.09327 0
    endloop
  endfacet
  facet normal 0 0 -1
    outer loop
      vertex 3.24468 -9.98609 0
      vertex 5.71681 -17.5945 0
      vertex 3.84637 -18.0957 0
    endloop
  endfacet
  facet normal 0 0 -1
    outer loop
      vertex 5.71681 -17.5945 0
      vertex 3.24468 -9.98609 0
      vertex 4.27073 -9.59223 0
    endloop
  endfacet
  facet normal 0 0 -1
    outer loop
      vertex 3.84637 -18.0957 0
      vertex 2.18307 -10.2705 0
      vertex 3.24468 -9.98609 0
    endloop
  endfacet
  facet normal 0 0 -1
    outer loop
      vertex 1.93378 -18.3987 0
      vertex 2.18307 -10.2705 0
      vertex 3.84637 -18.0957 0
    endloop
  endfacet
  facet normal 0 0 -1
    outer loop
      vertex 1.93378 -18.3987 0
      vertex 1.09755 -10.4425 0
      vertex 2.18307 -10.2705 0
    endloop
  endfacet
  facet normal 0 0 -1
    outer loop
      vertex 0 -18.5 0
      vertex 1.09755 -10.4425 0
      vertex 1.93378 -18.3987 0
    endloop
  endfacet
  facet normal 0 0 -1
    outer loop
      vertex 0 -18.5 0
      vertex 0 -10.5 0
      vertex 1.09755 -10.4425 0
    endloop
  endfacet
  facet normal 0 0 -1
    outer loop
      vertex 0 -18.5 0
      vertex -1.09755 -10.4425 0
      vertex 0 -10.5 0
    endloop
  endfacet
  facet normal 0 0 -1
    outer loop
      vertex -1.93378 -18.3987 0
      vertex -1.09755 -10.4425 0
      vertex 0 -18.5 0
    endloop
  endfacet
  facet normal 0 0 -1
    outer loop
      vertex -1.93378 -18.3987 0
      vertex -2.18307 -10.2705 0
      vertex -1.09755 -10.4425 0
    endloop
  endfacet
  facet normal 0 0 -1
    outer loop
      vertex -3.84637 -18.0957 0
      vertex -2.18307 -10.2705 0
      vertex -1.93378 -18.3987 0
    endloop
  endfacet
  facet normal -0 0 -1
    outer loop
      vertex -2.18307 -10.2705 0
      vertex -3.84637 -18.0957 0
      vertex -3.24468 -9.98609 0
    endloop
  endfacet
  facet normal 0 0 -1
    outer loop
      vertex -5.71681 -17.5945 0
      vertex -3.24468 -9.98609 0
      vertex -3.84637 -18.0957 0
    endloop
  endfacet
  facet normal -0 0 -1
    outer loop
      vertex -3.24468 -9.98609 0
      vertex -5.71681 -17.5945 0
      vertex -4.27073 -9.59223 0
    endloop
  endfacet
  facet normal 0 0 -1
    outer loop
      vertex -7.52463 -16.9006 0
      vertex -4.27073 -9.59223 0
      vertex -5.71681 -17.5945 0
    endloop
  endfacet
  facet normal -0 0 -1
    outer loop
      vertex -4.27073 -9.59223 0
      vertex -7.52463 -16.9006 0
      vertex -5.25 -9.09327 0
    endloop
  endfacet
  facet normal 0 0 -1
    outer loop
      vertex -9.25 -16.0215 0
      vertex -5.25 -9.09327 0
      vertex -7.52463 -16.9006 0
    endloop
  endfacet
  facet normal -0 0 -1
    outer loop
      vertex -5.25 -9.09327 0
      vertex -9.25 -16.0215 0
      vertex -6.17174 -8.49468 0
    endloop
  endfacet
  facet normal 0 0 -1
    outer loop
      vertex -10.874 -14.9668 0
      vertex -6.17174 -8.49468 0
      vertex -9.25 -16.0215 0
    endloop
  endfacet
  facet normal -0 0 -1
    outer loop
      vertex -6.17174 -8.49468 0
      vertex -10.874 -14.9668 0
      vertex -7.02587 -7.80302 0
    endloop
  endfacet
  facet normal 0 0 -1
    outer loop
      vertex -12.3789 -13.7482 0
      vertex -7.02587 -7.80302 0
      vertex -10.874 -14.9668 0
    endloop
  endfacet
  facet normal -0 0 -1
    outer loop
      vertex -7.02587 -7.80302 0
      vertex -12.3789 -13.7482 0
      vertex -7.80302 -7.02587 0
    endloop
  endfacet
  facet normal 0 0 -1
    outer loop
      vertex -13.7482 -12.3789 0
      vertex -7.80302 -7.02587 0
      vertex -12.3789 -13.7482 0
    endloop
  endfacet
  facet normal -0 0 -1
    outer loop
      vertex -7.80302 -7.02587 0
      vertex -13.7482 -12.3789 0
      vertex -8.49468 -6.17174 0
    endloop
  endfacet
  facet normal 0 0 -1
    outer loop
      vertex -14.9668 -10.874 0
      vertex -8.49468 -6.17174 0
      vertex -13.7482 -12.3789 0
    endloop
  endfacet
  facet normal -0 0 -1
    outer loop
      vertex -8.49468 -6.17174 0
      vertex -14.9668 -10.874 0
      vertex -9.09327 -5.25 0
    endloop
  endfacet
  facet normal -0 0 -1
    outer loop
      vertex -9.09327 -5.25 0
      vertex -16.0215 -9.25 0
      vertex -9.59223 -4.27073 0
    endloop
  endfacet
  facet normal 0 0 -1
    outer loop
      vertex -16.0215 -9.25 0
      vertex -9.09327 -5.25 0
      vertex -14.9668 -10.874 0
    endloop
  endfacet
  facet normal 0 0 -1
    outer loop
      vertex 9.09327 5.25 0
      vertex 16.0215 9.25 0
      vertex 9.59223 4.27073 0
    endloop
  endfacet
  facet normal -0 0 -1
    outer loop
      vertex 16.0215 9.25 0
      vertex 9.09327 5.25 0
      vertex 14.9668 10.874 0
    endloop
  endfacet
  facet normal 0 0 -1
    outer loop
      vertex 8.49468 6.17174 0
      vertex 14.9668 10.874 0
      vertex 9.09327 5.25 0
    endloop
  endfacet
  facet normal -0 0 -1
    outer loop
      vertex 14.9668 10.874 0
      vertex 8.49468 6.17174 0
      vertex 13.7482 12.3789 0
    endloop
  endfacet
  facet normal 0 0 -1
    outer loop
      vertex 7.80302 7.02587 0
      vertex 13.7482 12.3789 0
      vertex 8.49468 6.17174 0
    endloop
  endfacet
  facet normal -0 0 -1
    outer loop
      vertex 13.7482 12.3789 0
      vertex 7.80302 7.02587 0
      vertex 12.3789 13.7482 0
    endloop
  endfacet
  facet normal 0 0 -1
    outer loop
      vertex 7.02587 7.80302 0
      vertex 12.3789 13.7482 0
      vertex 7.80302 7.02587 0
    endloop
  endfacet
  facet normal -0 0 -1
    outer loop
      vertex 12.3789 13.7482 0
      vertex 7.02587 7.80302 0
      vertex 10.874 14.9668 0
    endloop
  endfacet
  facet normal 0 0 -1
    outer loop
      vertex 6.17174 8.49468 0
      vertex 10.874 14.9668 0
      vertex 7.02587 7.80302 0
    endloop
  endfacet
  facet normal -0 0 -1
    outer loop
      vertex 10.874 14.9668 0
      vertex 6.17174 8.49468 0
      vertex 9.25 16.0215 0
    endloop
  endfacet
  facet normal 0 0 -1
    outer loop
      vertex 5.25 9.09327 0
      vertex 9.25 16.0215 0
      vertex 6.17174 8.49468 0
    endloop
  endfacet
  facet normal -0 0 -1
    outer loop
      vertex 9.25 16.0215 0
      vertex 5.25 9.09327 0
      vertex 7.52463 16.9006 0
    endloop
  endfacet
  facet normal 0 0 -1
    outer loop
      vertex 4.27073 9.59223 0
      vertex 7.52463 16.9006 0
      vertex 5.25 9.09327 0
    endloop
  endfacet
  facet normal -0 0 -1
    outer loop
      vertex 7.52463 16.9006 0
      vertex 4.27073 9.59223 0
      vertex 5.71681 17.5945 0
    endloop
  endfacet
  facet normal 0 0 -1
    outer loop
      vertex 3.24468 9.98609 0
      vertex 5.71681 17.5945 0
      vertex 4.27073 9.59223 0
    endloop
  endfacet
  facet normal -0 0 -1
    outer loop
      vertex 5.71681 17.5945 0
      vertex 3.24468 9.98609 0
      vertex 3.84637 18.0957 0
    endloop
  endfacet
  facet normal 0 0 -1
    outer loop
      vertex 2.18307 10.2705 0
      vertex 3.84637 18.0957 0
      vertex 3.24468 9.98609 0
    endloop
  endfacet
  facet normal 0 0 -1
    outer loop
      vertex 2.18307 10.2705 0
      vertex 1.93378 18.3987 0
      vertex 3.84637 18.0957 0
    endloop
  endfacet
  facet normal 0 0 -1
    outer loop
      vertex 1.09755 10.4425 0
      vertex 1.93378 18.3987 0
      vertex 2.18307 10.2705 0
    endloop
  endfacet
  facet normal 0 0 -1
    outer loop
      vertex 0 10.5 0
      vertex 1.93378 18.3987 0
      vertex 1.09755 10.4425 0
    endloop
  endfacet
  facet normal 0 0 -1
    outer loop
      vertex 0 10.5 0
      vertex 0 18.5 0
      vertex 1.93378 18.3987 0
    endloop
  endfacet
  facet normal 0 0 -1
    outer loop
      vertex -1.09755 10.4425 0
      vertex 0 18.5 0
      vertex 0 10.5 0
    endloop
  endfacet
  facet normal 0 0 -1
    outer loop
      vertex -1.09755 10.4425 0
      vertex -1.93378 18.3987 0
      vertex 0 18.5 0
    endloop
  endfacet
  facet normal 0 0 -1
    outer loop
      vertex -2.18307 10.2705 0
      vertex -1.93378 18.3987 0
      vertex -1.09755 10.4425 0
    endloop
  endfacet
  facet normal 0 0 -1
    outer loop
      vertex -3.84637 18.0957 0
      vertex -2.18307 10.2705 0
      vertex -3.24468 9.98609 0
    endloop
  endfacet
  facet normal 0 0 -1
    outer loop
      vertex -2.18307 10.2705 0
      vertex -3.84637 18.0957 0
      vertex -1.93378 18.3987 0
    endloop
  endfacet
  facet normal 0 0 -1
    outer loop
      vertex -5.71681 17.5945 0
      vertex -3.24468 9.98609 0
      vertex -4.27073 9.59223 0
    endloop
  endfacet
  facet normal 0 0 -1
    outer loop
      vertex -7.52463 16.9006 0
      vertex -4.27073 9.59223 0
      vertex -5.25 9.09327 0
    endloop
  endfacet
  facet normal 0 0 -1
    outer loop
      vertex -3.24468 9.98609 0
      vertex -5.71681 17.5945 0
      vertex -3.84637 18.0957 0
    endloop
  endfacet
  facet normal 0 0 -1
    outer loop
      vertex -9.25 16.0215 0
      vertex -5.25 9.09327 0
      vertex -6.17174 8.49468 0
    endloop
  endfacet
  facet normal 0 0 -1
    outer loop
      vertex -10.874 14.9668 0
      vertex -6.17174 8.49468 0
      vertex -7.02587 7.80302 0
    endloop
  endfacet
  facet normal 0 0 -1
    outer loop
      vertex -4.27073 9.59223 0
      vertex -7.52463 16.9006 0
      vertex -5.71681 17.5945 0
    endloop
  endfacet
  facet normal 0 0 -1
    outer loop
      vertex -12.3789 13.7482 0
      vertex -7.02587 7.80302 0
      vertex -7.80302 7.02587 0
    endloop
  endfacet
  facet normal 0 0 -1
    outer loop
      vertex -13.7482 12.3789 0
      vertex -7.80302 7.02587 0
      vertex -8.49468 6.17174 0
    endloop
  endfacet
  facet normal 0 0 -1
    outer loop
      vertex -14.9668 10.874 0
      vertex -8.49468 6.17174 0
      vertex -9.09327 5.25 0
    endloop
  endfacet
  facet normal 0 0 -1
    outer loop
      vertex -5.25 9.09327 0
      vertex -9.25 16.0215 0
      vertex -7.52463 16.9006 0
    endloop
  endfacet
  facet normal 0 0 -1
    outer loop
      vertex -16.0215 9.25 0
      vertex -9.09327 5.25 0
      vertex -9.59223 4.27073 0
    endloop
  endfacet
  facet normal 0 0 -1
    outer loop
      vertex -16.9006 7.52463 0
      vertex -9.59223 4.27073 0
      vertex -9.98609 3.24468 0
    endloop
  endfacet
  facet normal 0 0 -1
    outer loop
      vertex -17.5945 5.71681 0
      vertex -9.98609 3.24468 0
      vertex -10.2705 2.18307 0
    endloop
  endfacet
  facet normal 0 0 -1
    outer loop
      vertex -18.0957 3.84637 0
      vertex -10.2705 2.18307 0
      vertex -10.4425 1.09755 0
    endloop
  endfacet
  facet normal 0 0 -1
    outer loop
      vertex -6.17174 8.49468 0
      vertex -10.874 14.9668 0
      vertex -9.25 16.0215 0
    endloop
  endfacet
  facet normal 0 0 -1
    outer loop
      vertex -18.3987 1.93378 0
      vertex -10.4425 1.09755 0
      vertex -10.5 0 0
    endloop
  endfacet
  facet normal 0 0 -1
    outer loop
      vertex -16.9006 -7.52463 0
      vertex -9.59223 -4.27073 0
      vertex -16.0215 -9.25 0
    endloop
  endfacet
  facet normal -0 0 -1
    outer loop
      vertex -9.59223 -4.27073 0
      vertex -16.9006 -7.52463 0
      vertex -9.98609 -3.24468 0
    endloop
  endfacet
  facet normal 0 0 -1
    outer loop
      vertex -7.02587 7.80302 0
      vertex -12.3789 13.7482 0
      vertex -10.874 14.9668 0
    endloop
  endfacet
  facet normal 0 0 -1
    outer loop
      vertex -17.5945 -5.71681 0
      vertex -9.98609 -3.24468 0
      vertex -16.9006 -7.52463 0
    endloop
  endfacet
  facet normal 0 0 -1
    outer loop
      vertex -7.80302 7.02587 0
      vertex -13.7482 12.3789 0
      vertex -12.3789 13.7482 0
    endloop
  endfacet
  facet normal -0 0 -1
    outer loop
      vertex -9.98609 -3.24468 0
      vertex -17.5945 -5.71681 0
      vertex -10.2705 -2.18307 0
    endloop
  endfacet
  facet normal 0 0 -1
    outer loop
      vertex -8.49468 6.17174 0
      vertex -14.9668 10.874 0
      vertex -13.7482 12.3789 0
    endloop
  endfacet
  facet normal 0 0 -1
    outer loop
      vertex -18.0957 -3.84637 0
      vertex -10.2705 -2.18307 0
      vertex -17.5945 -5.71681 0
    endloop
  endfacet
  facet normal 0 0 -1
    outer loop
      vertex -9.09327 5.25 0
      vertex -16.0215 9.25 0
      vertex -14.9668 10.874 0
    endloop
  endfacet
  facet normal -0 0 -1
    outer loop
      vertex -10.2705 -2.18307 0
      vertex -18.0957 -3.84637 0
      vertex -10.4425 -1.09755 0
    endloop
  endfacet
  facet normal 0 0 -1
    outer loop
      vertex -9.59223 4.27073 0
      vertex -16.9006 7.52463 0
      vertex -16.0215 9.25 0
    endloop
  endfacet
  facet normal 0 0 -1
    outer loop
      vertex -18.3987 -1.93378 0
      vertex -10.4425 -1.09755 0
      vertex -18.0957 -3.84637 0
    endloop
  endfacet
  facet normal 0 0 -1
    outer loop
      vertex -9.98609 3.24468 0
      vertex -17.5945 5.71681 0
      vertex -16.9006 7.52463 0
    endloop
  endfacet
  facet normal -0 0 -1
    outer loop
      vertex -10.4425 -1.09755 0
      vertex -18.3987 -1.93378 0
      vertex -10.5 0 0
    endloop
  endfacet
  facet normal 0 0 -1
    outer loop
      vertex -10.2705 2.18307 0
      vertex -18.0957 3.84637 0
      vertex -17.5945 5.71681 0
    endloop
  endfacet
  facet normal 0 0 -1
    outer loop
      vertex -18.5 0 0
      vertex -10.5 0 0
      vertex -18.3987 -1.93378 0
    endloop
  endfacet
  facet normal 0 0 -1
    outer loop
      vertex -10.4425 1.09755 0
      vertex -18.3987 1.93378 0
      vertex -18.0957 3.84637 0
    endloop
  endfacet
  facet normal 0 0 -1
    outer loop
      vertex -10.5 0 0
      vertex -18.5 0 0
      vertex -18.3987 1.93378 0
    endloop
  endfacet
  facet normal 0.987682 0.156473 0
    outer loop
      vertex 18.3987 1.93378 3
      vertex 18.0957 3.84637 0
      vertex 18.0957 3.84637 3
    endloop
  endfacet
  facet normal 0.987682 0.156473 0
    outer loop
      vertex 18.0957 3.84637 0
      vertex 18.3987 1.93378 3
      vertex 18.3987 1.93378 0
    endloop
  endfacet
  facet normal 0.965924 0.258827 0
    outer loop
      vertex 18.0957 3.84637 3
      vertex 17.5945 5.71681 0
      vertex 17.5945 5.71681 3
    endloop
  endfacet
  facet normal 0.965924 0.258827 0
    outer loop
      vertex 17.5945 5.71681 0
      vertex 18.0957 3.84637 3
      vertex 18.0957 3.84637 0
    endloop
  endfacet
  facet normal 0.777157 0.629307 0
    outer loop
      vertex 14.9668 10.874 3
      vertex 13.7482 12.3789 0
      vertex 13.7482 12.3789 3
    endloop
  endfacet
  facet normal 0.777157 0.629307 0
    outer loop
      vertex 13.7482 12.3789 0
      vertex 14.9668 10.874 3
      vertex 14.9668 10.874 0
    endloop
  endfacet
  facet normal 0.838656 0.544662 0
    outer loop
      vertex 16.0215 9.25 3
      vertex 14.9668 10.874 0
      vertex 14.9668 10.874 3
    endloop
  endfacet
  facet normal 0.838656 0.544662 0
    outer loop
      vertex 14.9668 10.874 0
      vertex 16.0215 9.25 3
      vertex 16.0215 9.25 0
    endloop
  endfacet
  facet normal 0.707107 0.707107 0
    outer loop
      vertex 13.7482 12.3789 3
      vertex 12.3789 13.7482 0
      vertex 12.3789 13.7482 3
    endloop
  endfacet
  facet normal 0.707107 0.707107 0
    outer loop
      vertex 12.3789 13.7482 0
      vertex 13.7482 12.3789 3
      vertex 13.7482 12.3789 0
    endloop
  endfacet
  facet normal 0.0523127 0.998631 -0
    outer loop
      vertex 1.93378 18.3987 0
      vertex 0 18.5 3
      vertex 1.93378 18.3987 3
    endloop
  endfacet
  facet normal 0.0523127 0.998631 0
    outer loop
      vertex 0 18.5 3
      vertex 1.93378 18.3987 0
      vertex 0 18.5 0
    endloop
  endfacet
  facet normal 0.544662 0.838656 -0
    outer loop
      vertex 10.874 14.9668 0
      vertex 9.25 16.0215 3
      vertex 10.874 14.9668 3
    endloop
  endfacet
  facet normal 0.544662 0.838656 0
    outer loop
      vertex 9.25 16.0215 3
      vertex 10.874 14.9668 0
      vertex 9.25 16.0215 0
    endloop
  endfacet
  facet normal 0.358342 0.93359 -0
    outer loop
      vertex 7.52463 16.9006 0
      vertex 5.71681 17.5945 3
      vertex 7.52463 16.9006 3
    endloop
  endfacet
  facet normal 0.358342 0.93359 0
    outer loop
      vertex 5.71681 17.5945 3
      vertex 7.52463 16.9006 0
      vertex 5.71681 17.5945 0
    endloop
  endfacet
  facet normal 0.258827 0.965924 -0
    outer loop
      vertex 5.71681 17.5945 0
      vertex 3.84637 18.0957 3
      vertex 5.71681 17.5945 3
    endloop
  endfacet
  facet normal 0.258827 0.965924 0
    outer loop
      vertex 3.84637 18.0957 3
      vertex 5.71681 17.5945 0
      vertex 3.84637 18.0957 0
    endloop
  endfacet
  facet normal -0.998631 0.0523127 0
    outer loop
      vertex -18.5 0 0
      vertex -18.3987 1.93378 3
      vertex -18.3987 1.93378 0
    endloop
  endfacet
  facet normal -0.998631 0.0523127 0
    outer loop
      vertex -18.3987 1.93378 3
      vertex -18.5 0 0
      vertex -18.5 0 3
    endloop
  endfacet
  facet normal -0.93359 0.358342 0
    outer loop
      vertex -17.5945 5.71681 0
      vertex -16.9006 7.52463 3
      vertex -16.9006 7.52463 0
    endloop
  endfacet
  facet normal -0.93359 0.358342 0
    outer loop
      vertex -16.9006 7.52463 3
      vertex -17.5945 5.71681 0
      vertex -17.5945 5.71681 3
    endloop
  endfacet
  facet normal -0.965924 0.258827 0
    outer loop
      vertex -18.0957 3.84637 0
      vertex -17.5945 5.71681 3
      vertex -17.5945 5.71681 0
    endloop
  endfacet
  facet normal -0.965924 0.258827 0
    outer loop
      vertex -17.5945 5.71681 3
      vertex -18.0957 3.84637 0
      vertex -18.0957 3.84637 3
    endloop
  endfacet
  facet normal -0.838656 0.544662 0
    outer loop
      vertex -16.0215 9.25 0
      vertex -14.9668 10.874 3
      vertex -14.9668 10.874 0
    endloop
  endfacet
  facet normal -0.838656 0.544662 0
    outer loop
      vertex -14.9668 10.874 3
      vertex -16.0215 9.25 0
      vertex -16.0215 9.25 3
    endloop
  endfacet
  facet normal -0.777157 0.629307 0
    outer loop
      vertex -14.9668 10.874 0
      vertex -13.7482 12.3789 3
      vertex -13.7482 12.3789 0
    endloop
  endfacet
  facet normal -0.777157 0.629307 0
    outer loop
      vertex -13.7482 12.3789 3
      vertex -14.9668 10.874 0
      vertex -14.9668 10.874 3
    endloop
  endfacet
  facet normal -0.258827 0.965924 0
    outer loop
      vertex -3.84637 18.0957 0
      vertex -5.71681 17.5945 3
      vertex -3.84637 18.0957 3
    endloop
  endfacet
  facet normal -0.258827 0.965924 0
    outer loop
      vertex -5.71681 17.5945 3
      vertex -3.84637 18.0957 0
      vertex -5.71681 17.5945 0
    endloop
  endfacet
  facet normal -0.0523127 0.998631 0
    outer loop
      vertex 0 18.5 0
      vertex -1.93378 18.3987 3
      vertex 0 18.5 3
    endloop
  endfacet
  facet normal -0.0523127 0.998631 0
    outer loop
      vertex -1.93378 18.3987 3
      vertex 0 18.5 0
      vertex -1.93378 18.3987 0
    endloop
  endfacet
  facet normal -0.544662 0.838656 0
    outer loop
      vertex -9.25 16.0215 0
      vertex -10.874 14.9668 3
      vertex -9.25 16.0215 3
    endloop
  endfacet
  facet normal -0.544662 0.838656 0
    outer loop
      vertex -10.874 14.9668 3
      vertex -9.25 16.0215 0
      vertex -10.874 14.9668 0
    endloop
  endfacet
  facet normal -0.453982 0.891011 0
    outer loop
      vertex -7.52463 16.9006 0
      vertex -9.25 16.0215 3
      vertex -7.52463 16.9006 3
    endloop
  endfacet
  facet normal -0.453982 0.891011 0
    outer loop
      vertex -9.25 16.0215 3
      vertex -7.52463 16.9006 0
      vertex -9.25 16.0215 0
    endloop
  endfacet
  facet normal 0.998631 0.0523127 0
    outer loop
      vertex 18.5 0 3
      vertex 18.3987 1.93378 0
      vertex 18.3987 1.93378 3
    endloop
  endfacet
  facet normal 0.998631 0.0523127 0
    outer loop
      vertex 18.3987 1.93378 0
      vertex 18.5 0 3
      vertex 18.5 0 0
    endloop
  endfacet
  facet normal 0.987682 -0.156473 0
    outer loop
      vertex 18.0957 -3.84637 3
      vertex 18.3987 -1.93378 0
      vertex 18.3987 -1.93378 3
    endloop
  endfacet
  facet normal 0.987682 -0.156473 0
    outer loop
      vertex 18.3987 -1.93378 0
      vertex 18.0957 -3.84637 3
      vertex 18.0957 -3.84637 0
    endloop
  endfacet
  facet normal 0.0523127 -0.998631 0
    outer loop
      vertex 0 -18.5 0
      vertex 1.93378 -18.3987 3
      vertex 0 -18.5 3
    endloop
  endfacet
  facet normal 0.0523127 -0.998631 0
    outer loop
      vertex 1.93378 -18.3987 3
      vertex 0 -18.5 0
      vertex 1.93378 -18.3987 0
    endloop
  endfacet
  facet normal 0.838656 -0.544662 0
    outer loop
      vertex 14.9668 -10.874 3
      vertex 16.0215 -9.25 0
      vertex 16.0215 -9.25 3
    endloop
  endfacet
  facet normal 0.838656 -0.544662 0
    outer loop
      vertex 16.0215 -9.25 0
      vertex 14.9668 -10.874 3
      vertex 14.9668 -10.874 0
    endloop
  endfacet
  facet normal 0.156473 -0.987682 0
    outer loop
      vertex 1.93378 -18.3987 0
      vertex 3.84637 -18.0957 3
      vertex 1.93378 -18.3987 3
    endloop
  endfacet
  facet normal 0.156473 -0.987682 0
    outer loop
      vertex 3.84637 -18.0957 3
      vertex 1.93378 -18.3987 0
      vertex 3.84637 -18.0957 0
    endloop
  endfacet
  facet normal 0.258827 -0.965924 0
    outer loop
      vertex 3.84637 -18.0957 0
      vertex 5.71681 -17.5945 3
      vertex 3.84637 -18.0957 3
    endloop
  endfacet
  facet normal 0.258827 -0.965924 0
    outer loop
      vertex 5.71681 -17.5945 3
      vertex 3.84637 -18.0957 0
      vertex 5.71681 -17.5945 0
    endloop
  endfacet
  facet normal 0.707107 -0.707107 0
    outer loop
      vertex 12.3789 -13.7482 3
      vertex 13.7482 -12.3789 0
      vertex 13.7482 -12.3789 3
    endloop
  endfacet
  facet normal 0.707107 -0.707107 0
    outer loop
      vertex 13.7482 -12.3789 0
      vertex 12.3789 -13.7482 3
      vertex 12.3789 -13.7482 0
    endloop
  endfacet
  facet normal 0.629307 -0.777157 0
    outer loop
      vertex 10.874 -14.9668 0
      vertex 12.3789 -13.7482 3
      vertex 10.874 -14.9668 3
    endloop
  endfacet
  facet normal 0.629307 -0.777157 0
    outer loop
      vertex 12.3789 -13.7482 3
      vertex 10.874 -14.9668 0
      vertex 12.3789 -13.7482 0
    endloop
  endfacet
  facet normal 0.453982 -0.891011 0
    outer loop
      vertex 7.52463 -16.9006 0
      vertex 9.25 -16.0215 3
      vertex 7.52463 -16.9006 3
    endloop
  endfacet
  facet normal 0.453982 -0.891011 0
    outer loop
      vertex 9.25 -16.0215 3
      vertex 7.52463 -16.9006 0
      vertex 9.25 -16.0215 0
    endloop
  endfacet
  facet normal -0.0523127 -0.998631 0
    outer loop
      vertex -1.93378 -18.3987 0
      vertex 0 -18.5 3
      vertex -1.93378 -18.3987 3
    endloop
  endfacet
  facet normal -0.0523127 -0.998631 -0
    outer loop
      vertex 0 -18.5 3
      vertex -1.93378 -18.3987 0
      vertex 0 -18.5 0
    endloop
  endfacet
  facet normal -0.358342 -0.93359 0
    outer loop
      vertex -7.52463 -16.9006 0
      vertex -5.71681 -17.5945 3
      vertex -7.52463 -16.9006 3
    endloop
  endfacet
  facet normal -0.358342 -0.93359 -0
    outer loop
      vertex -5.71681 -17.5945 3
      vertex -7.52463 -16.9006 0
      vertex -5.71681 -17.5945 0
    endloop
  endfacet
  facet normal -0.544662 -0.838656 0
    outer loop
      vertex -10.874 -14.9668 0
      vertex -9.25 -16.0215 3
      vertex -10.874 -14.9668 3
    endloop
  endfacet
  facet normal -0.544662 -0.838656 -0
    outer loop
      vertex -9.25 -16.0215 3
      vertex -10.874 -14.9668 0
      vertex -9.25 -16.0215 0
    endloop
  endfacet
  facet normal -0.965924 -0.258827 0
    outer loop
      vertex -17.5945 -5.71681 0
      vertex -18.0957 -3.84637 3
      vertex -18.0957 -3.84637 0
    endloop
  endfacet
  facet normal -0.965924 -0.258827 0
    outer loop
      vertex -18.0957 -3.84637 3
      vertex -17.5945 -5.71681 0
      vertex -17.5945 -5.71681 3
    endloop
  endfacet
  facet normal -0.998631 -0.0523127 0
    outer loop
      vertex -18.3987 -1.93378 0
      vertex -18.5 0 3
      vertex -18.5 0 0
    endloop
  endfacet
  facet normal -0.998631 -0.0523127 0
    outer loop
      vertex -18.5 0 3
      vertex -18.3987 -1.93378 0
      vertex -18.3987 -1.93378 3
    endloop
  endfacet
  facet normal -0.777157 -0.629307 0
    outer loop
      vertex -13.7482 -12.3789 0
      vertex -14.9668 -10.874 3
      vertex -14.9668 -10.874 0
    endloop
  endfacet
  facet normal -0.777157 -0.629307 0
    outer loop
      vertex -14.9668 -10.874 3
      vertex -13.7482 -12.3789 0
      vertex -13.7482 -12.3789 3
    endloop
  endfacet
  facet normal -0.891011 -0.453982 0
    outer loop
      vertex -16.0215 -9.25 0
      vertex -16.9006 -7.52463 3
      vertex -16.9006 -7.52463 0
    endloop
  endfacet
  facet normal -0.891011 -0.453982 0
    outer loop
      vertex -16.9006 -7.52463 3
      vertex -16.0215 -9.25 0
      vertex -16.0215 -9.25 3
    endloop
  endfacet
  facet normal 0.156473 0.987682 -0
    outer loop
      vertex 3.84637 18.0957 0
      vertex 1.93378 18.3987 3
      vertex 3.84637 18.0957 3
    endloop
  endfacet
  facet normal 0.156473 0.987682 0
    outer loop
      vertex 1.93378 18.3987 3
      vertex 3.84637 18.0957 0
      vertex 1.93378 18.3987 0
    endloop
  endfacet
  facet normal 0 0 1
    outer loop
      vertex 10.5 0 3
      vertex 18.5 0 3
      vertex 18.3987 1.93378 3
    endloop
  endfacet
  facet normal 0 0 1
    outer loop
      vertex 10.4425 1.09755 3
      vertex 18.3987 1.93378 3
      vertex 18.0957 3.84637 3
    endloop
  endfacet
  facet normal 0 0 1
    outer loop
      vertex 18.5 0 3
      vertex 10.5 0 3
      vertex 18.3987 -1.93378 3
    endloop
  endfacet
  facet normal 0 0 1
    outer loop
      vertex 10.2705 2.18307 3
      vertex 18.0957 3.84637 3
      vertex 17.5945 5.71681 3
    endloop
  endfacet
  facet normal -0 0 1
    outer loop
      vertex 10.4425 -1.09755 3
      vertex 18.3987 -1.93378 3
      vertex 10.5 0 3
    endloop
  endfacet
  facet normal 0 0 1
    outer loop
      vertex 9.98609 3.24468 3
      vertex 17.5945 5.71681 3
      vertex 16.9006 7.52463 3
    endloop
  endfacet
  facet normal 0 0 1
    outer loop
      vertex 18.3987 -1.93378 3
      vertex 10.4425 -1.09755 3
      vertex 18.0957 -3.84637 3
    endloop
  endfacet
  facet normal 0 0 1
    outer loop
      vertex 9.59223 4.27073 3
      vertex 16.9006 7.52463 3
      vertex 16.0215 9.25 3
    endloop
  endfacet
  facet normal -0 0 1
    outer loop
      vertex 10.2705 -2.18307 3
      vertex 18.0957 -3.84637 3
      vertex 10.4425 -1.09755 3
    endloop
  endfacet
  facet normal 0 0 1
    outer loop
      vertex 9.09327 5.25 3
      vertex 16.0215 9.25 3
      vertex 14.9668 10.874 3
    endloop
  endfacet
  facet normal 0 0 1
    outer loop
      vertex 18.0957 -3.84637 3
      vertex 10.2705 -2.18307 3
      vertex 17.5945 -5.71681 3
    endloop
  endfacet
  facet normal 0 0 1
    outer loop
      vertex 8.49468 6.17174 3
      vertex 14.9668 10.874 3
      vertex 13.7482 12.3789 3
    endloop
  endfacet
  facet normal -0 0 1
    outer loop
      vertex 9.98609 -3.24468 3
      vertex 17.5945 -5.71681 3
      vertex 10.2705 -2.18307 3
    endloop
  endfacet
  facet normal 0 0 1
    outer loop
      vertex 7.80302 7.02587 3
      vertex 13.7482 12.3789 3
      vertex 12.3789 13.7482 3
    endloop
  endfacet
  facet normal 0 0 1
    outer loop
      vertex 17.5945 -5.71681 3
      vertex 9.98609 -3.24468 3
      vertex 16.9006 -7.52463 3
    endloop
  endfacet
  facet normal 0 0 1
    outer loop
      vertex 7.02587 7.80302 3
      vertex 12.3789 13.7482 3
      vertex 10.874 14.9668 3
    endloop
  endfacet
  facet normal -0 0 1
    outer loop
      vertex 9.59223 -4.27073 3
      vertex 16.9006 -7.52463 3
      vertex 9.98609 -3.24468 3
    endloop
  endfacet
  facet normal 0 0 1
    outer loop
      vertex 16.9006 -7.52463 3
      vertex 9.59223 -4.27073 3
      vertex 16.0215 -9.25 3
    endloop
  endfacet
  facet normal 0 0 1
    outer loop
      vertex 18.3987 1.93378 3
      vertex 10.4425 1.09755 3
      vertex 10.5 0 3
    endloop
  endfacet
  facet normal 0 0 1
    outer loop
      vertex 18.0957 3.84637 3
      vertex 10.2705 2.18307 3
      vertex 10.4425 1.09755 3
    endloop
  endfacet
  facet normal 0 0 1
    outer loop
      vertex 17.5945 5.71681 3
      vertex 9.98609 3.24468 3
      vertex 10.2705 2.18307 3
    endloop
  endfacet
  facet normal 0 0 1
    outer loop
      vertex 16.9006 7.52463 3
      vertex 9.59223 4.27073 3
      vertex 9.98609 3.24468 3
    endloop
  endfacet
  facet normal 0 0 1
    outer loop
      vertex 6.17174 8.49468 3
      vertex 10.874 14.9668 3
      vertex 9.25 16.0215 3
    endloop
  endfacet
  facet normal 0 0 1
    outer loop
      vertex 16.0215 9.25 3
      vertex 9.09327 5.25 3
      vertex 9.59223 4.27073 3
    endloop
  endfacet
  facet normal 0 0 1
    outer loop
      vertex 14.9668 10.874 3
      vertex 8.49468 6.17174 3
      vertex 9.09327 5.25 3
    endloop
  endfacet
  facet normal 0 0 1
    outer loop
      vertex 13.7482 12.3789 3
      vertex 7.80302 7.02587 3
      vertex 8.49468 6.17174 3
    endloop
  endfacet
  facet normal 0 0 1
    outer loop
      vertex 5.25 9.09327 3
      vertex 9.25 16.0215 3
      vertex 7.52463 16.9006 3
    endloop
  endfacet
  facet normal 0 0 1
    outer loop
      vertex 12.3789 13.7482 3
      vertex 7.02587 7.80302 3
      vertex 7.80302 7.02587 3
    endloop
  endfacet
  facet normal 0 0 1
    outer loop
      vertex 10.874 14.9668 3
      vertex 6.17174 8.49468 3
      vertex 7.02587 7.80302 3
    endloop
  endfacet
  facet normal 0 0 1
    outer loop
      vertex 4.27073 9.59223 3
      vertex 7.52463 16.9006 3
      vertex 5.71681 17.5945 3
    endloop
  endfacet
  facet normal 0 0 1
    outer loop
      vertex 9.25 16.0215 3
      vertex 5.25 9.09327 3
      vertex 6.17174 8.49468 3
    endloop
  endfacet
  facet normal 0 0 1
    outer loop
      vertex 7.52463 16.9006 3
      vertex 4.27073 9.59223 3
      vertex 5.25 9.09327 3
    endloop
  endfacet
  facet normal 0 0 1
    outer loop
      vertex 3.24468 9.98609 3
      vertex 5.71681 17.5945 3
      vertex 3.84637 18.0957 3
    endloop
  endfacet
  facet normal 0 0 1
    outer loop
      vertex 5.71681 17.5945 3
      vertex 3.24468 9.98609 3
      vertex 4.27073 9.59223 3
    endloop
  endfacet
  facet normal 0 0 1
    outer loop
      vertex 3.84637 18.0957 3
      vertex 2.18307 10.2705 3
      vertex 3.24468 9.98609 3
    endloop
  endfacet
  facet normal 0 0 1
    outer loop
      vertex 1.93378 18.3987 3
      vertex 2.18307 10.2705 3
      vertex 3.84637 18.0957 3
    endloop
  endfacet
  facet normal 0 0 1
    outer loop
      vertex 1.93378 18.3987 3
      vertex 1.09755 10.4425 3
      vertex 2.18307 10.2705 3
    endloop
  endfacet
  facet normal 0 0 1
    outer loop
      vertex 0 18.5 3
      vertex 1.09755 10.4425 3
      vertex 1.93378 18.3987 3
    endloop
  endfacet
  facet normal 0 0 1
    outer loop
      vertex 0 18.5 3
      vertex 0 10.5 3
      vertex 1.09755 10.4425 3
    endloop
  endfacet
  facet normal 0 0 1
    outer loop
      vertex 0 18.5 3
      vertex -1.09755 10.4425 3
      vertex 0 10.5 3
    endloop
  endfacet
  facet normal -0 0 1
    outer loop
      vertex -1.93378 18.3987 3
      vertex -1.09755 10.4425 3
      vertex 0 18.5 3
    endloop
  endfacet
  facet normal 0 0 1
    outer loop
      vertex -1.93378 18.3987 3
      vertex -2.18307 10.2705 3
      vertex -1.09755 10.4425 3
    endloop
  endfacet
  facet normal -0 0 1
    outer loop
      vertex -3.84637 18.0957 3
      vertex -2.18307 10.2705 3
      vertex -1.93378 18.3987 3
    endloop
  endfacet
  facet normal 0 0 1
    outer loop
      vertex -2.18307 10.2705 3
      vertex -3.84637 18.0957 3
      vertex -3.24468 9.98609 3
    endloop
  endfacet
  facet normal -0 0 1
    outer loop
      vertex -5.71681 17.5945 3
      vertex -3.24468 9.98609 3
      vertex -3.84637 18.0957 3
    endloop
  endfacet
  facet normal 0 0 1
    outer loop
      vertex -3.24468 9.98609 3
      vertex -5.71681 17.5945 3
      vertex -4.27073 9.59223 3
    endloop
  endfacet
  facet normal -0 0 1
    outer loop
      vertex -7.52463 16.9006 3
      vertex -4.27073 9.59223 3
      vertex -5.71681 17.5945 3
    endloop
  endfacet
  facet normal 0 0 1
    outer loop
      vertex -4.27073 9.59223 3
      vertex -7.52463 16.9006 3
      vertex -5.25 9.09327 3
    endloop
  endfacet
  facet normal -0 0 1
    outer loop
      vertex -9.25 16.0215 3
      vertex -5.25 9.09327 3
      vertex -7.52463 16.9006 3
    endloop
  endfacet
  facet normal 0 0 1
    outer loop
      vertex -5.25 9.09327 3
      vertex -9.25 16.0215 3
      vertex -6.17174 8.49468 3
    endloop
  endfacet
  facet normal -0 0 1
    outer loop
      vertex -10.874 14.9668 3
      vertex -6.17174 8.49468 3
      vertex -9.25 16.0215 3
    endloop
  endfacet
  facet normal 0 0 1
    outer loop
      vertex -6.17174 8.49468 3
      vertex -10.874 14.9668 3
      vertex -7.02587 7.80302 3
    endloop
  endfacet
  facet normal -0 0 1
    outer loop
      vertex -12.3789 13.7482 3
      vertex -7.02587 7.80302 3
      vertex -10.874 14.9668 3
    endloop
  endfacet
  facet normal 0 0 1
    outer loop
      vertex -7.02587 7.80302 3
      vertex -12.3789 13.7482 3
      vertex -7.80302 7.02587 3
    endloop
  endfacet
  facet normal -0 0 1
    outer loop
      vertex -13.7482 12.3789 3
      vertex -7.80302 7.02587 3
      vertex -12.3789 13.7482 3
    endloop
  endfacet
  facet normal 0 0 1
    outer loop
      vertex -7.80302 7.02587 3
      vertex -13.7482 12.3789 3
      vertex -8.49468 6.17174 3
    endloop
  endfacet
  facet normal -0 0 1
    outer loop
      vertex -14.9668 10.874 3
      vertex -8.49468 6.17174 3
      vertex -13.7482 12.3789 3
    endloop
  endfacet
  facet normal 0 0 1
    outer loop
      vertex -8.49468 6.17174 3
      vertex -14.9668 10.874 3
      vertex -9.09327 5.25 3
    endloop
  endfacet
  facet normal 0 0 1
    outer loop
      vertex -9.09327 5.25 3
      vertex -16.0215 9.25 3
      vertex -9.59223 4.27073 3
    endloop
  endfacet
  facet normal -0 0 1
    outer loop
      vertex -16.0215 9.25 3
      vertex -9.09327 5.25 3
      vertex -14.9668 10.874 3
    endloop
  endfacet
  facet normal -0 0 1
    outer loop
      vertex 9.09327 -5.25 3
      vertex 16.0215 -9.25 3
      vertex 9.59223 -4.27073 3
    endloop
  endfacet
  facet normal 0 0 1
    outer loop
      vertex 16.0215 -9.25 3
      vertex 9.09327 -5.25 3
      vertex 14.9668 -10.874 3
    endloop
  endfacet
  facet normal -0 0 1
    outer loop
      vertex 8.49468 -6.17174 3
      vertex 14.9668 -10.874 3
      vertex 9.09327 -5.25 3
    endloop
  endfacet
  facet normal 0 0 1
    outer loop
      vertex 14.9668 -10.874 3
      vertex 8.49468 -6.17174 3
      vertex 13.7482 -12.3789 3
    endloop
  endfacet
  facet normal -0 0 1
    outer loop
      vertex 7.80302 -7.02587 3
      vertex 13.7482 -12.3789 3
      vertex 8.49468 -6.17174 3
    endloop
  endfacet
  facet normal 0 0 1
    outer loop
      vertex 13.7482 -12.3789 3
      vertex 7.80302 -7.02587 3
      vertex 12.3789 -13.7482 3
    endloop
  endfacet
  facet normal -0 0 1
    outer loop
      vertex 7.02587 -7.80302 3
      vertex 12.3789 -13.7482 3
      vertex 7.80302 -7.02587 3
    endloop
  endfacet
  facet normal 0 0 1
    outer loop
      vertex 12.3789 -13.7482 3
      vertex 7.02587 -7.80302 3
      vertex 10.874 -14.9668 3
    endloop
  endfacet
  facet normal -0 0 1
    outer loop
      vertex 6.17174 -8.49468 3
      vertex 10.874 -14.9668 3
      vertex 7.02587 -7.80302 3
    endloop
  endfacet
  facet normal 0 0 1
    outer loop
      vertex 10.874 -14.9668 3
      vertex 6.17174 -8.49468 3
      vertex 9.25 -16.0215 3
    endloop
  endfacet
  facet normal -0 0 1
    outer loop
      vertex 5.25 -9.09327 3
      vertex 9.25 -16.0215 3
      vertex 6.17174 -8.49468 3
    endloop
  endfacet
  facet normal 0 0 1
    outer loop
      vertex 9.25 -16.0215 3
      vertex 5.25 -9.09327 3
      vertex 7.52463 -16.9006 3
    endloop
  endfacet
  facet normal -0 0 1
    outer loop
      vertex 4.27073 -9.59223 3
      vertex 7.52463 -16.9006 3
      vertex 5.25 -9.09327 3
    endloop
  endfacet
  facet normal 0 0 1
    outer loop
      vertex 7.52463 -16.9006 3
      vertex 4.27073 -9.59223 3
      vertex 5.71681 -17.5945 3
    endloop
  endfacet
  facet normal -0 0 1
    outer loop
      vertex 3.24468 -9.98609 3
      vertex 5.71681 -17.5945 3
      vertex 4.27073 -9.59223 3
    endloop
  endfacet
  facet normal 0 0 1
    outer loop
      vertex 5.71681 -17.5945 3
      vertex 3.24468 -9.98609 3
      vertex 3.84637 -18.0957 3
    endloop
  endfacet
  facet normal -0 0 1
    outer loop
      vertex 2.18307 -10.2705 3
      vertex 3.84637 -18.0957 3
      vertex 3.24468 -9.98609 3
    endloop
  endfacet
  facet normal 0 0 1
    outer loop
      vertex 2.18307 -10.2705 3
      vertex 1.93378 -18.3987 3
      vertex 3.84637 -18.0957 3
    endloop
  endfacet
  facet normal -0 0 1
    outer loop
      vertex 1.09755 -10.4425 3
      vertex 1.93378 -18.3987 3
      vertex 2.18307 -10.2705 3
    endloop
  endfacet
  facet normal -0 0 1
    outer loop
      vertex 0 -10.5 3
      vertex 1.93378 -18.3987 3
      vertex 1.09755 -10.4425 3
    endloop
  endfacet
  facet normal 0 0 1
    outer loop
      vertex 0 -10.5 3
      vertex 0 -18.5 3
      vertex 1.93378 -18.3987 3
    endloop
  endfacet
  facet normal 0 0 1
    outer loop
      vertex -1.09755 -10.4425 3
      vertex 0 -18.5 3
      vertex 0 -10.5 3
    endloop
  endfacet
  facet normal 0 0 1
    outer loop
      vertex -1.09755 -10.4425 3
      vertex -1.93378 -18.3987 3
      vertex 0 -18.5 3
    endloop
  endfacet
  facet normal 0 0 1
    outer loop
      vertex -2.18307 -10.2705 3
      vertex -1.93378 -18.3987 3
      vertex -1.09755 -10.4425 3
    endloop
  endfacet
  facet normal 0 0 1
    outer loop
      vertex -3.84637 -18.0957 3
      vertex -2.18307 -10.2705 3
      vertex -3.24468 -9.98609 3
    endloop
  endfacet
  facet normal 0 0 1
    outer loop
      vertex -2.18307 -10.2705 3
      vertex -3.84637 -18.0957 3
      vertex -1.93378 -18.3987 3
    endloop
  endfacet
  facet normal 0 0 1
    outer loop
      vertex -5.71681 -17.5945 3
      vertex -3.24468 -9.98609 3
      vertex -4.27073 -9.59223 3
    endloop
  endfacet
  facet normal 0 0 1
    outer loop
      vertex -7.52463 -16.9006 3
      vertex -4.27073 -9.59223 3
      vertex -5.25 -9.09327 3
    endloop
  endfacet
  facet normal 0 0 1
    outer loop
      vertex -3.24468 -9.98609 3
      vertex -5.71681 -17.5945 3
      vertex -3.84637 -18.0957 3
    endloop
  endfacet
  facet normal 0 0 1
    outer loop
      vertex -9.25 -16.0215 3
      vertex -5.25 -9.09327 3
      vertex -6.17174 -8.49468 3
    endloop
  endfacet
  facet normal 0 0 1
    outer loop
      vertex -10.874 -14.9668 3
      vertex -6.17174 -8.49468 3
      vertex -7.02587 -7.80302 3
    endloop
  endfacet
  facet normal 0 0 1
    outer loop
      vertex -4.27073 -9.59223 3
      vertex -7.52463 -16.9006 3
      vertex -5.71681 -17.5945 3
    endloop
  endfacet
  facet normal 0 0 1
    outer loop
      vertex -12.3789 -13.7482 3
      vertex -7.02587 -7.80302 3
      vertex -7.80302 -7.02587 3
    endloop
  endfacet
  facet normal 0 0 1
    outer loop
      vertex -13.7482 -12.3789 3
      vertex -7.80302 -7.02587 3
      vertex -8.49468 -6.17174 3
    endloop
  endfacet
  facet normal 0 0 1
    outer loop
      vertex -14.9668 -10.874 3
      vertex -8.49468 -6.17174 3
      vertex -9.09327 -5.25 3
    endloop
  endfacet
  facet normal 0 0 1
    outer loop
      vertex -5.25 -9.09327 3
      vertex -9.25 -16.0215 3
      vertex -7.52463 -16.9006 3
    endloop
  endfacet
  facet normal 0 0 1
    outer loop
      vertex -16.0215 -9.25 3
      vertex -9.09327 -5.25 3
      vertex -9.59223 -4.27073 3
    endloop
  endfacet
  facet normal 0 0 1
    outer loop
      vertex -16.9006 -7.52463 3
      vertex -9.59223 -4.27073 3
      vertex -9.98609 -3.24468 3
    endloop
  endfacet
  facet normal 0 0 1
    outer loop
      vertex -17.5945 -5.71681 3
      vertex -9.98609 -3.24468 3
      vertex -10.2705 -2.18307 3
    endloop
  endfacet
  facet normal 0 0 1
    outer loop
      vertex -18.0957 -3.84637 3
      vertex -10.2705 -2.18307 3
      vertex -10.4425 -1.09755 3
    endloop
  endfacet
  facet normal 0 0 1
    outer loop
      vertex -6.17174 -8.49468 3
      vertex -10.874 -14.9668 3
      vertex -9.25 -16.0215 3
    endloop
  endfacet
  facet normal 0 0 1
    outer loop
      vertex -18.3987 -1.93378 3
      vertex -10.4425 -1.09755 3
      vertex -10.5 0 3
    endloop
  endfacet
  facet normal -0 0 1
    outer loop
      vertex -16.9006 7.52463 3
      vertex -9.59223 4.27073 3
      vertex -16.0215 9.25 3
    endloop
  endfacet
  facet normal 0 0 1
    outer loop
      vertex -9.59223 4.27073 3
      vertex -16.9006 7.52463 3
      vertex -9.98609 3.24468 3
    endloop
  endfacet
  facet normal 0 0 1
    outer loop
      vertex -7.02587 -7.80302 3
      vertex -12.3789 -13.7482 3
      vertex -10.874 -14.9668 3
    endloop
  endfacet
  facet normal -0 0 1
    outer loop
      vertex -17.5945 5.71681 3
      vertex -9.98609 3.24468 3
      vertex -16.9006 7.52463 3
    endloop
  endfacet
  facet normal 0 0 1
    outer loop
      vertex -7.80302 -7.02587 3
      vertex -13.7482 -12.3789 3
      vertex -12.3789 -13.7482 3
    endloop
  endfacet
  facet normal 0 0 1
    outer loop
      vertex -9.98609 3.24468 3
      vertex -17.5945 5.71681 3
      vertex -10.2705 2.18307 3
    endloop
  endfacet
  facet normal 0 0 1
    outer loop
      vertex -8.49468 -6.17174 3
      vertex -14.9668 -10.874 3
      vertex -13.7482 -12.3789 3
    endloop
  endfacet
  facet normal -0 0 1
    outer loop
      vertex -18.0957 3.84637 3
      vertex -10.2705 2.18307 3
      vertex -17.5945 5.71681 3
    endloop
  endfacet
  facet normal 0 0 1
    outer loop
      vertex -9.09327 -5.25 3
      vertex -16.0215 -9.25 3
      vertex -14.9668 -10.874 3
    endloop
  endfacet
  facet normal 0 0 1
    outer loop
      vertex -10.2705 2.18307 3
      vertex -18.0957 3.84637 3
      vertex -10.4425 1.09755 3
    endloop
  endfacet
  facet normal 0 0 1
    outer loop
      vertex -9.59223 -4.27073 3
      vertex -16.9006 -7.52463 3
      vertex -16.0215 -9.25 3
    endloop
  endfacet
  facet normal -0 0 1
    outer loop
      vertex -18.3987 1.93378 3
      vertex -10.4425 1.09755 3
      vertex -18.0957 3.84637 3
    endloop
  endfacet
  facet normal 0 0 1
    outer loop
      vertex -9.98609 -3.24468 3
      vertex -17.5945 -5.71681 3
      vertex -16.9006 -7.52463 3
    endloop
  endfacet
  facet normal 0 0 1
    outer loop
      vertex -10.4425 1.09755 3
      vertex -18.3987 1.93378 3
      vertex -10.5 0 3
    endloop
  endfacet
  facet normal 0 0 1
    outer loop
      vertex -10.2705 -2.18307 3
      vertex -18.0957 -3.84637 3
      vertex -17.5945 -5.71681 3
    endloop
  endfacet
  facet normal 0 0 1
    outer loop
      vertex -18.5 0 3
      vertex -10.5 0 3
      vertex -18.3987 1.93378 3
    endloop
  endfacet
  facet normal 0 0 1
    outer loop
      vertex -10.4425 -1.09755 3
      vertex -18.3987 -1.93378 3
      vertex -18.0957 -3.84637 3
    endloop
  endfacet
  facet normal 0 0 1
    outer loop
      vertex -10.5 0 3
      vertex -18.5 0 3
      vertex -18.3987 -1.93378 3
    endloop
  endfacet
  facet normal 0.965924 -0.258827 0
    outer loop
      vertex 17.5945 -5.71681 3
      vertex 18.0957 -3.84637 0
      vertex 18.0957 -3.84637 3
    endloop
  endfacet
  facet normal 0.965924 -0.258827 0
    outer loop
      vertex 18.0957 -3.84637 0
      vertex 17.5945 -5.71681 3
      vertex 17.5945 -5.71681 0
    endloop
  endfacet
  facet normal 0.358342 -0.93359 0
    outer loop
      vertex 5.71681 -17.5945 0
      vertex 7.52463 -16.9006 3
      vertex 5.71681 -17.5945 3
    endloop
  endfacet
  facet normal 0.358342 -0.93359 0
    outer loop
      vertex 7.52463 -16.9006 3
      vertex 5.71681 -17.5945 0
      vertex 7.52463 -16.9006 0
    endloop
  endfacet
  facet normal 0.544662 -0.838656 0
    outer loop
      vertex 9.25 -16.0215 0
      vertex 10.874 -14.9668 3
      vertex 9.25 -16.0215 3
    endloop
  endfacet
  facet normal 0.544662 -0.838656 0
    outer loop
      vertex 10.874 -14.9668 3
      vertex 9.25 -16.0215 0
      vertex 10.874 -14.9668 0
    endloop
  endfacet
  facet normal -0.258827 -0.965924 0
    outer loop
      vertex -5.71681 -17.5945 0
      vertex -3.84637 -18.0957 3
      vertex -5.71681 -17.5945 3
    endloop
  endfacet
  facet normal -0.258827 -0.965924 -0
    outer loop
      vertex -3.84637 -18.0957 3
      vertex -5.71681 -17.5945 0
      vertex -3.84637 -18.0957 0
    endloop
  endfacet
  facet normal -0.629307 -0.777157 0
    outer loop
      vertex -12.3789 -13.7482 0
      vertex -10.874 -14.9668 3
      vertex -12.3789 -13.7482 3
    endloop
  endfacet
  facet normal -0.629307 -0.777157 -0
    outer loop
      vertex -10.874 -14.9668 3
      vertex -12.3789 -13.7482 0
      vertex -10.874 -14.9668 0
    endloop
  endfacet
  facet normal -0.93359 -0.358342 0
    outer loop
      vertex -16.9006 -7.52463 0
      vertex -17.5945 -5.71681 3
      vertex -17.5945 -5.71681 0
    endloop
  endfacet
  facet normal -0.93359 -0.358342 0
    outer loop
      vertex -17.5945 -5.71681 3
      vertex -16.9006 -7.52463 0
      vertex -16.9006 -7.52463 3
    endloop
  endfacet
  facet normal -0.987682 -0.156473 0
    outer loop
      vertex -18.0957 -3.84637 0
      vertex -18.3987 -1.93378 3
      vertex -18.3987 -1.93378 0
    endloop
  endfacet
  facet normal -0.987682 -0.156473 0
    outer loop
      vertex -18.3987 -1.93378 3
      vertex -18.0957 -3.84637 0
      vertex -18.0957 -3.84637 3
    endloop
  endfacet
  facet normal -0.838656 -0.544662 0
    outer loop
      vertex -14.9668 -10.874 0
      vertex -16.0215 -9.25 3
      vertex -16.0215 -9.25 0
    endloop
  endfacet
  facet normal -0.838656 -0.544662 0
    outer loop
      vertex -16.0215 -9.25 3
      vertex -14.9668 -10.874 0
      vertex -14.9668 -10.874 3
    endloop
  endfacet
  facet normal 0.891011 -0.453982 0
    outer loop
      vertex 16.0215 -9.25 3
      vertex 16.9006 -7.52463 0
      vertex 16.9006 -7.52463 3
    endloop
  endfacet
  facet normal 0.891011 -0.453982 0
    outer loop
      vertex 16.9006 -7.52463 0
      vertex 16.0215 -9.25 3
      vertex 16.0215 -9.25 0
    endloop
  endfacet
  facet normal -0.99863 -0.0523177 0
    outer loop
      vertex 10.5 0 0
      vertex 10.4425 1.09755 3
      vertex 10.4425 1.09755 0
    endloop
  endfacet
  facet normal -0.99863 -0.0523177 0
    outer loop
      vertex 10.4425 1.09755 3
      vertex 10.5 0 0
      vertex 10.5 0 3
    endloop
  endfacet
  facet normal 0.99863 -0.0523177 0
    outer loop
      vertex -10.5 0 3
      vertex -10.4425 1.09755 0
      vertex -10.4425 1.09755 3
    endloop
  endfacet
  facet normal 0.99863 -0.0523177 0
    outer loop
      vertex -10.4425 1.09755 0
      vertex -10.5 0 3
      vertex -10.5 0 0
    endloop
  endfacet
  facet normal -0.0523177 -0.99863 0
    outer loop
      vertex 0 10.5 0
      vertex 1.09755 10.4425 3
      vertex 0 10.5 3
    endloop
  endfacet
  facet normal -0.0523177 -0.99863 -0
    outer loop
      vertex 1.09755 10.4425 3
      vertex 0 10.5 0
      vertex 1.09755 10.4425 0
    endloop
  endfacet
  facet normal 0.777146 0.62932 0
    outer loop
      vertex -7.80302 -7.02587 3
      vertex -8.49468 -6.17174 0
      vertex -8.49468 -6.17174 3
    endloop
  endfacet
  facet normal 0.777146 0.62932 0
    outer loop
      vertex -8.49468 -6.17174 0
      vertex -7.80302 -7.02587 3
      vertex -7.80302 -7.02587 0
    endloop
  endfacet
  facet normal -0.707107 -0.707107 0
    outer loop
      vertex 7.80302 7.02587 0
      vertex 7.02587 7.80302 3
      vertex 7.02587 7.80302 0
    endloop
  endfacet
  facet normal -0.707107 -0.707107 0
    outer loop
      vertex 7.02587 7.80302 3
      vertex 7.80302 7.02587 0
      vertex 7.80302 7.02587 3
    endloop
  endfacet
  facet normal 0.62932 -0.777146 0
    outer loop
      vertex -7.02587 7.80302 0
      vertex -6.17174 8.49468 3
      vertex -7.02587 7.80302 3
    endloop
  endfacet
  facet normal 0.62932 -0.777146 0
    outer loop
      vertex -6.17174 8.49468 3
      vertex -7.02587 7.80302 0
      vertex -6.17174 8.49468 0
    endloop
  endfacet
  facet normal 0.358365 -0.933582 0
    outer loop
      vertex -4.27073 9.59223 0
      vertex -3.24468 9.98609 3
      vertex -4.27073 9.59223 3
    endloop
  endfacet
  facet normal 0.358365 -0.933582 0
    outer loop
      vertex -3.24468 9.98609 3
      vertex -4.27073 9.59223 0
      vertex -3.24468 9.98609 0
    endloop
  endfacet
  facet normal -0.891008 -0.453988 0
    outer loop
      vertex 9.59223 4.27073 0
      vertex 9.09327 5.25 3
      vertex 9.09327 5.25 0
    endloop
  endfacet
  facet normal -0.891008 -0.453988 0
    outer loop
      vertex 9.09327 5.25 3
      vertex 9.59223 4.27073 0
      vertex 9.59223 4.27073 3
    endloop
  endfacet
  facet normal -0.453988 -0.891008 0
    outer loop
      vertex 4.27073 9.59223 0
      vertex 5.25 9.09327 3
      vertex 4.27073 9.59223 3
    endloop
  endfacet
  facet normal -0.453988 -0.891008 -0
    outer loop
      vertex 5.25 9.09327 3
      vertex 4.27073 9.59223 0
      vertex 5.25 9.09327 0
    endloop
  endfacet
  facet normal -0.544642 -0.838668 0
    outer loop
      vertex 5.25 9.09327 0
      vertex 6.17174 8.49468 3
      vertex 5.25 9.09327 3
    endloop
  endfacet
  facet normal -0.544642 -0.838668 -0
    outer loop
      vertex 6.17174 8.49468 3
      vertex 5.25 9.09327 0
      vertex 6.17174 8.49468 0
    endloop
  endfacet
  facet normal 0.891008 -0.453988 0
    outer loop
      vertex -9.59223 4.27073 3
      vertex -9.09327 5.25 0
      vertex -9.09327 5.25 3
    endloop
  endfacet
  facet normal 0.891008 -0.453988 0
    outer loop
      vertex -9.09327 5.25 0
      vertex -9.59223 4.27073 3
      vertex -9.59223 4.27073 0
    endloop
  endfacet
  facet normal 0.453988 -0.891008 0
    outer loop
      vertex -5.25 9.09327 0
      vertex -4.27073 9.59223 3
      vertex -5.25 9.09327 3
    endloop
  endfacet
  facet normal 0.453988 -0.891008 0
    outer loop
      vertex -4.27073 9.59223 3
      vertex -5.25 9.09327 0
      vertex -4.27073 9.59223 0
    endloop
  endfacet
  facet normal 0.156497 -0.987678 0
    outer loop
      vertex -2.18307 10.2705 0
      vertex -1.09755 10.4425 3
      vertex -2.18307 10.2705 3
    endloop
  endfacet
  facet normal 0.156497 -0.987678 0
    outer loop
      vertex -1.09755 10.4425 3
      vertex -2.18307 10.2705 0
      vertex -1.09755 10.4425 0
    endloop
  endfacet
  facet normal -0.933582 0.358365 0
    outer loop
      vertex 9.59223 -4.27073 0
      vertex 9.98609 -3.24468 3
      vertex 9.98609 -3.24468 0
    endloop
  endfacet
  facet normal -0.933582 0.358365 0
    outer loop
      vertex 9.98609 -3.24468 3
      vertex 9.59223 -4.27073 0
      vertex 9.59223 -4.27073 3
    endloop
  endfacet
  facet normal -0.965937 0.258779 0
    outer loop
      vertex 9.98609 -3.24468 0
      vertex 10.2705 -2.18307 3
      vertex 10.2705 -2.18307 0
    endloop
  endfacet
  facet normal -0.965937 0.258779 0
    outer loop
      vertex 10.2705 -2.18307 3
      vertex 9.98609 -3.24468 0
      vertex 9.98609 -3.24468 3
    endloop
  endfacet
  facet normal 0.891008 0.453988 0
    outer loop
      vertex -9.09327 -5.25 3
      vertex -9.59223 -4.27073 0
      vertex -9.59223 -4.27073 3
    endloop
  endfacet
  facet normal 0.891008 0.453988 0
    outer loop
      vertex -9.59223 -4.27073 0
      vertex -9.09327 -5.25 3
      vertex -9.09327 -5.25 0
    endloop
  endfacet
  facet normal -0.965937 -0.258779 0
    outer loop
      vertex 10.2705 2.18307 0
      vertex 9.98609 3.24468 3
      vertex 9.98609 3.24468 0
    endloop
  endfacet
  facet normal -0.965937 -0.258779 0
    outer loop
      vertex 9.98609 3.24468 3
      vertex 10.2705 2.18307 0
      vertex 10.2705 2.18307 3
    endloop
  endfacet
  facet normal -0.987678 -0.156497 0
    outer loop
      vertex 10.4425 1.09755 0
      vertex 10.2705 2.18307 3
      vertex 10.2705 2.18307 0
    endloop
  endfacet
  facet normal -0.987678 -0.156497 0
    outer loop
      vertex 10.2705 2.18307 3
      vertex 10.4425 1.09755 0
      vertex 10.4425 1.09755 3
    endloop
  endfacet
  facet normal -0.933582 -0.358365 0
    outer loop
      vertex 9.98609 3.24468 0
      vertex 9.59223 4.27073 3
      vertex 9.59223 4.27073 0
    endloop
  endfacet
  facet normal -0.933582 -0.358365 0
    outer loop
      vertex 9.59223 4.27073 3
      vertex 9.98609 3.24468 0
      vertex 9.98609 3.24468 3
    endloop
  endfacet
  facet normal -0.777146 -0.62932 0
    outer loop
      vertex 8.49468 6.17174 0
      vertex 7.80302 7.02587 3
      vertex 7.80302 7.02587 0
    endloop
  endfacet
  facet normal -0.777146 -0.62932 0
    outer loop
      vertex 7.80302 7.02587 3
      vertex 8.49468 6.17174 0
      vertex 8.49468 6.17174 3
    endloop
  endfacet
  facet normal -0.838668 -0.544642 0
    outer loop
      vertex 9.09327 5.25 0
      vertex 8.49468 6.17174 3
      vertex 8.49468 6.17174 0
    endloop
  endfacet
  facet normal -0.838668 -0.544642 0
    outer loop
      vertex 8.49468 6.17174 3
      vertex 9.09327 5.25 0
      vertex 9.09327 5.25 3
    endloop
  endfacet
  facet normal -0.258779 -0.965937 0
    outer loop
      vertex 2.18307 10.2705 0
      vertex 3.24468 9.98609 3
      vertex 2.18307 10.2705 3
    endloop
  endfacet
  facet normal -0.258779 -0.965937 -0
    outer loop
      vertex 3.24468 9.98609 3
      vertex 2.18307 10.2705 0
      vertex 3.24468 9.98609 0
    endloop
  endfacet
  facet normal -0.358365 -0.933582 0
    outer loop
      vertex 3.24468 9.98609 0
      vertex 4.27073 9.59223 3
      vertex 3.24468 9.98609 3
    endloop
  endfacet
  facet normal -0.358365 -0.933582 -0
    outer loop
      vertex 4.27073 9.59223 3
      vertex 3.24468 9.98609 0
      vertex 4.27073 9.59223 0
    endloop
  endfacet
  facet normal -0.156497 -0.987678 0
    outer loop
      vertex 1.09755 10.4425 0
      vertex 2.18307 10.2705 3
      vertex 1.09755 10.4425 3
    endloop
  endfacet
  facet normal -0.156497 -0.987678 -0
    outer loop
      vertex 2.18307 10.2705 3
      vertex 1.09755 10.4425 0
      vertex 2.18307 10.2705 0
    endloop
  endfacet
  facet normal -0.62932 -0.777146 0
    outer loop
      vertex 6.17174 8.49468 0
      vertex 7.02587 7.80302 3
      vertex 6.17174 8.49468 3
    endloop
  endfacet
  facet normal -0.62932 -0.777146 -0
    outer loop
      vertex 7.02587 7.80302 3
      vertex 6.17174 8.49468 0
      vertex 7.02587 7.80302 0
    endloop
  endfacet
  facet normal 0.965937 -0.258779 0
    outer loop
      vertex -10.2705 2.18307 3
      vertex -9.98609 3.24468 0
      vertex -9.98609 3.24468 3
    endloop
  endfacet
  facet normal 0.965937 -0.258779 0
    outer loop
      vertex -9.98609 3.24468 0
      vertex -10.2705 2.18307 3
      vertex -10.2705 2.18307 0
    endloop
  endfacet
  facet normal 0.777146 -0.62932 0
    outer loop
      vertex -8.49468 6.17174 3
      vertex -7.80302 7.02587 0
      vertex -7.80302 7.02587 3
    endloop
  endfacet
  facet normal 0.777146 -0.62932 0
    outer loop
      vertex -7.80302 7.02587 0
      vertex -8.49468 6.17174 3
      vertex -8.49468 6.17174 0
    endloop
  endfacet
  facet normal 0.707107 -0.707107 0
    outer loop
      vertex -7.80302 7.02587 3
      vertex -7.02587 7.80302 0
      vertex -7.02587 7.80302 3
    endloop
  endfacet
  facet normal 0.707107 -0.707107 0
    outer loop
      vertex -7.02587 7.80302 0
      vertex -7.80302 7.02587 3
      vertex -7.80302 7.02587 0
    endloop
  endfacet
  facet normal 0.838668 -0.544642 0
    outer loop
      vertex -9.09327 5.25 3
      vertex -8.49468 6.17174 0
      vertex -8.49468 6.17174 3
    endloop
  endfacet
  facet normal 0.838668 -0.544642 0
    outer loop
      vertex -8.49468 6.17174 0
      vertex -9.09327 5.25 3
      vertex -9.09327 5.25 0
    endloop
  endfacet
  facet normal 0.933582 -0.358365 0
    outer loop
      vertex -9.98609 3.24468 3
      vertex -9.59223 4.27073 0
      vertex -9.59223 4.27073 3
    endloop
  endfacet
  facet normal 0.933582 -0.358365 0
    outer loop
      vertex -9.59223 4.27073 0
      vertex -9.98609 3.24468 3
      vertex -9.98609 3.24468 0
    endloop
  endfacet
  facet normal 0.987678 -0.156497 0
    outer loop
      vertex -10.4425 1.09755 3
      vertex -10.2705 2.18307 0
      vertex -10.2705 2.18307 3
    endloop
  endfacet
  facet normal 0.987678 -0.156497 0
    outer loop
      vertex -10.2705 2.18307 0
      vertex -10.4425 1.09755 3
      vertex -10.4425 1.09755 0
    endloop
  endfacet
  facet normal 0.544642 -0.838668 0
    outer loop
      vertex -6.17174 8.49468 0
      vertex -5.25 9.09327 3
      vertex -6.17174 8.49468 3
    endloop
  endfacet
  facet normal 0.544642 -0.838668 0
    outer loop
      vertex -5.25 9.09327 3
      vertex -6.17174 8.49468 0
      vertex -5.25 9.09327 0
    endloop
  endfacet
  facet normal 0.258779 -0.965937 0
    outer loop
      vertex -3.24468 9.98609 0
      vertex -2.18307 10.2705 3
      vertex -3.24468 9.98609 3
    endloop
  endfacet
  facet normal 0.258779 -0.965937 0
    outer loop
      vertex -2.18307 10.2705 3
      vertex -3.24468 9.98609 0
      vertex -2.18307 10.2705 0
    endloop
  endfacet
  facet normal 0.0523177 -0.99863 0
    outer loop
      vertex -1.09755 10.4425 0
      vertex 0 10.5 3
      vertex -1.09755 10.4425 3
    endloop
  endfacet
  facet normal 0.0523177 -0.99863 0
    outer loop
      vertex 0 10.5 3
      vertex -1.09755 10.4425 0
      vertex 0 10.5 0
    endloop
  endfacet
  facet normal -0.0523177 0.99863 0
    outer loop
      vertex 1.09755 -10.4425 0
      vertex 0 -10.5 3
      vertex 1.09755 -10.4425 3
    endloop
  endfacet
  facet normal -0.0523177 0.99863 0
    outer loop
      vertex 0 -10.5 3
      vertex 1.09755 -10.4425 0
      vertex 0 -10.5 0
    endloop
  endfacet
  facet normal -0.258779 0.965937 0
    outer loop
      vertex 3.24468 -9.98609 0
      vertex 2.18307 -10.2705 3
      vertex 3.24468 -9.98609 3
    endloop
  endfacet
  facet normal -0.258779 0.965937 0
    outer loop
      vertex 2.18307 -10.2705 3
      vertex 3.24468 -9.98609 0
      vertex 2.18307 -10.2705 0
    endloop
  endfacet
  facet normal -0.62932 0.777146 0
    outer loop
      vertex 7.02587 -7.80302 0
      vertex 6.17174 -8.49468 3
      vertex 7.02587 -7.80302 3
    endloop
  endfacet
  facet normal -0.62932 0.777146 0
    outer loop
      vertex 6.17174 -8.49468 3
      vertex 7.02587 -7.80302 0
      vertex 6.17174 -8.49468 0
    endloop
  endfacet
  facet normal -0.453988 0.891008 0
    outer loop
      vertex 5.25 -9.09327 0
      vertex 4.27073 -9.59223 3
      vertex 5.25 -9.09327 3
    endloop
  endfacet
  facet normal -0.453988 0.891008 0
    outer loop
      vertex 4.27073 -9.59223 3
      vertex 5.25 -9.09327 0
      vertex 4.27073 -9.59223 0
    endloop
  endfacet
  facet normal -0.777146 0.62932 0
    outer loop
      vertex 7.80302 -7.02587 0
      vertex 8.49468 -6.17174 3
      vertex 8.49468 -6.17174 0
    endloop
  endfacet
  facet normal -0.777146 0.62932 0
    outer loop
      vertex 8.49468 -6.17174 3
      vertex 7.80302 -7.02587 0
      vertex 7.80302 -7.02587 3
    endloop
  endfacet
  facet normal -0.891008 0.453988 0
    outer loop
      vertex 9.09327 -5.25 0
      vertex 9.59223 -4.27073 3
      vertex 9.59223 -4.27073 0
    endloop
  endfacet
  facet normal -0.891008 0.453988 0
    outer loop
      vertex 9.59223 -4.27073 3
      vertex 9.09327 -5.25 0
      vertex 9.09327 -5.25 3
    endloop
  endfacet
  facet normal 0.707107 0.707107 0
    outer loop
      vertex -7.02587 -7.80302 3
      vertex -7.80302 -7.02587 0
      vertex -7.80302 -7.02587 3
    endloop
  endfacet
  facet normal 0.707107 0.707107 0
    outer loop
      vertex -7.80302 -7.02587 0
      vertex -7.02587 -7.80302 3
      vertex -7.02587 -7.80302 0
    endloop
  endfacet
  facet normal 0.544642 0.838668 -0
    outer loop
      vertex -5.25 -9.09327 0
      vertex -6.17174 -8.49468 3
      vertex -5.25 -9.09327 3
    endloop
  endfacet
  facet normal 0.544642 0.838668 0
    outer loop
      vertex -6.17174 -8.49468 3
      vertex -5.25 -9.09327 0
      vertex -6.17174 -8.49468 0
    endloop
  endfacet
  facet normal 0.358365 0.933582 -0
    outer loop
      vertex -3.24468 -9.98609 0
      vertex -4.27073 -9.59223 3
      vertex -3.24468 -9.98609 3
    endloop
  endfacet
  facet normal 0.358365 0.933582 0
    outer loop
      vertex -4.27073 -9.59223 3
      vertex -3.24468 -9.98609 0
      vertex -4.27073 -9.59223 0
    endloop
  endfacet
  facet normal 0.156497 0.987678 -0
    outer loop
      vertex -1.09755 -10.4425 0
      vertex -2.18307 -10.2705 3
      vertex -1.09755 -10.4425 3
    endloop
  endfacet
  facet normal 0.156497 0.987678 0
    outer loop
      vertex -2.18307 -10.2705 3
      vertex -1.09755 -10.4425 0
      vertex -2.18307 -10.2705 0
    endloop
  endfacet
  facet normal 0.838668 0.544642 0
    outer loop
      vertex -8.49468 -6.17174 3
      vertex -9.09327 -5.25 0
      vertex -9.09327 -5.25 3
    endloop
  endfacet
  facet normal 0.838668 0.544642 0
    outer loop
      vertex -9.09327 -5.25 0
      vertex -8.49468 -6.17174 3
      vertex -8.49468 -6.17174 0
    endloop
  endfacet
  facet normal 0.965937 0.258779 0
    outer loop
      vertex -9.98609 -3.24468 3
      vertex -10.2705 -2.18307 0
      vertex -10.2705 -2.18307 3
    endloop
  endfacet
  facet normal 0.965937 0.258779 0
    outer loop
      vertex -10.2705 -2.18307 0
      vertex -9.98609 -3.24468 3
      vertex -9.98609 -3.24468 0
    endloop
  endfacet
  facet normal 0.99863 0.0523177 0
    outer loop
      vertex -10.4425 -1.09755 3
      vertex -10.5 0 0
      vertex -10.5 0 3
    endloop
  endfacet
  facet normal 0.99863 0.0523177 0
    outer loop
      vertex -10.5 0 0
      vertex -10.4425 -1.09755 3
      vertex -10.4425 -1.09755 0
    endloop
  endfacet
  facet normal -0.156497 0.987678 0
    outer loop
      vertex 2.18307 -10.2705 0
      vertex 1.09755 -10.4425 3
      vertex 2.18307 -10.2705 3
    endloop
  endfacet
  facet normal -0.156497 0.987678 0
    outer loop
      vertex 1.09755 -10.4425 3
      vertex 2.18307 -10.2705 0
      vertex 1.09755 -10.4425 0
    endloop
  endfacet
  facet normal -0.358365 0.933582 0
    outer loop
      vertex 4.27073 -9.59223 0
      vertex 3.24468 -9.98609 3
      vertex 4.27073 -9.59223 3
    endloop
  endfacet
  facet normal -0.358365 0.933582 0
    outer loop
      vertex 3.24468 -9.98609 3
      vertex 4.27073 -9.59223 0
      vertex 3.24468 -9.98609 0
    endloop
  endfacet
  facet normal -0.707107 0.707107 0
    outer loop
      vertex 7.02587 -7.80302 0
      vertex 7.80302 -7.02587 3
      vertex 7.80302 -7.02587 0
    endloop
  endfacet
  facet normal -0.707107 0.707107 0
    outer loop
      vertex 7.80302 -7.02587 3
      vertex 7.02587 -7.80302 0
      vertex 7.02587 -7.80302 3
    endloop
  endfacet
  facet normal -0.544642 0.838668 0
    outer loop
      vertex 6.17174 -8.49468 0
      vertex 5.25 -9.09327 3
      vertex 6.17174 -8.49468 3
    endloop
  endfacet
  facet normal -0.544642 0.838668 0
    outer loop
      vertex 5.25 -9.09327 3
      vertex 6.17174 -8.49468 0
      vertex 5.25 -9.09327 0
    endloop
  endfacet
  facet normal -0.838668 0.544642 0
    outer loop
      vertex 8.49468 -6.17174 0
      vertex 9.09327 -5.25 3
      vertex 9.09327 -5.25 0
    endloop
  endfacet
  facet normal -0.838668 0.544642 0
    outer loop
      vertex 9.09327 -5.25 3
      vertex 8.49468 -6.17174 0
      vertex 8.49468 -6.17174 3
    endloop
  endfacet
  facet normal -0.987678 0.156497 0
    outer loop
      vertex 10.2705 -2.18307 0
      vertex 10.4425 -1.09755 3
      vertex 10.4425 -1.09755 0
    endloop
  endfacet
  facet normal -0.987678 0.156497 0
    outer loop
      vertex 10.4425 -1.09755 3
      vertex 10.2705 -2.18307 0
      vertex 10.2705 -2.18307 3
    endloop
  endfacet
  facet normal 0.62932 0.777146 -0
    outer loop
      vertex -6.17174 -8.49468 0
      vertex -7.02587 -7.80302 3
      vertex -6.17174 -8.49468 3
    endloop
  endfacet
  facet normal 0.62932 0.777146 0
    outer loop
      vertex -7.02587 -7.80302 3
      vertex -6.17174 -8.49468 0
      vertex -7.02587 -7.80302 0
    endloop
  endfacet
  facet normal 0.453988 0.891008 -0
    outer loop
      vertex -4.27073 -9.59223 0
      vertex -5.25 -9.09327 3
      vertex -4.27073 -9.59223 3
    endloop
  endfacet
  facet normal 0.453988 0.891008 0
    outer loop
      vertex -5.25 -9.09327 3
      vertex -4.27073 -9.59223 0
      vertex -5.25 -9.09327 0
    endloop
  endfacet
  facet normal 0.258779 0.965937 -0
    outer loop
      vertex -2.18307 -10.2705 0
      vertex -3.24468 -9.98609 3
      vertex -2.18307 -10.2705 3
    endloop
  endfacet
  facet normal 0.258779 0.965937 0
    outer loop
      vertex -3.24468 -9.98609 3
      vertex -2.18307 -10.2705 0
      vertex -3.24468 -9.98609 0
    endloop
  endfacet
  facet normal 0.0523177 0.99863 -0
    outer loop
      vertex 0 -10.5 0
      vertex -1.09755 -10.4425 3
      vertex 0 -10.5 3
    endloop
  endfacet
  facet normal 0.0523177 0.99863 0
    outer loop
      vertex -1.09755 -10.4425 3
      vertex 0 -10.5 0
      vertex -1.09755 -10.4425 0
    endloop
  endfacet
  facet normal 0.933582 0.358365 0
    outer loop
      vertex -9.59223 -4.27073 3
      vertex -9.98609 -3.24468 0
      vertex -9.98609 -3.24468 3
    endloop
  endfacet
  facet normal 0.933582 0.358365 0
    outer loop
      vertex -9.98609 -3.24468 0
      vertex -9.59223 -4.27073 3
      vertex -9.59223 -4.27073 0
    endloop
  endfacet
  facet normal 0.987678 0.156497 0
    outer loop
      vertex -10.2705 -2.18307 3
      vertex -10.4425 -1.09755 0
      vertex -10.4425 -1.09755 3
    endloop
  endfacet
  facet normal 0.987678 0.156497 0
    outer loop
      vertex -10.4425 -1.09755 0
      vertex -10.2705 -2.18307 3
      vertex -10.2705 -2.18307 0
    endloop
  endfacet
  facet normal -0.99863 0.0523177 0
    outer loop
      vertex 10.4425 -1.09755 0
      vertex 10.5 0 3
      vertex 10.5 0 0
    endloop
  endfacet
  facet normal -0.99863 0.0523177 0
    outer loop
      vertex 10.5 0 3
      vertex 10.4425 -1.09755 0
      vertex 10.4425 -1.09755 3
    endloop
  endfacet
endsolid OpenSCAD_Model
